<svg enable-background="new 0 0 100 100" viewBox="0 0 100 100" xmlns="http://www.w3.org/2000/svg"><path d="m9 93.8c0-24.5 0-49 0-73.6 2.6-6.5 8.1-6.5 13.6-6.1 1.6-5.7 3.3-7 8.7-7 2.3 0 4.6.1 6.9 0 .7 0 1.9-.2 2.2-.7 1.9-3.6 5-5.3 8.5-6.6h2.8c2.2 1.3 5.2 2 6.5 3.9 2.4 3.6 5.4 3.7 8.8 3.5.8-.1 1.7 0 2.5 0 5.9 0 7.4 1.1 9.2 7h4.1c6.2 0 9.3 3.3 9.3 9.6v65.8c0 7.3-2.9 10.3-10.1 10.3-20.8 0-41.7-.1-62.5.1-4.9 0-8.5-1.5-10.5-6.2zm69.2-65.3c-18.6 0-36.8 0-55.4 0 0-2.4 0-4.7 0-7.1-1 0-1.7 0-2.4 0-4.3 0-4.3 0-4.3 4.5 0 21.2 0 42.4-.1 63.5 0 2.6.8 3.4 3.3 3.3 20.8-.1 41.7-.1 62.5 0 2.7 0 3.2-.9 3.2-3.4-.1-20.7 0-41.4-.1-62.1 0-6.4 1.4-5.9-6-5.7-.2 0-.3.1-.7.3zm-48.2-7.3h40.9c0-2.4 0-4.5 0-6.8-3.8 0-7.4 0-11 0-3.7 0-4.7-1-6.2-4.6-.5-1.1-2.1-2.5-3.2-2.5s-2.7 1.3-3.2 2.5c-1.5 3.6-2.5 4.6-6.2 4.6s-7.3 0-11.1 0z"/><path d="m53.3 35.9c-8.1-1.3-15.6 3.3-17.9 11-.3 1-.4 2-.6 3-.1.4-.1.9-.2 1.3s0 .9.3 1.2.7.5 1.2.5h7.2c.7 0 1.3-.5 1.5-1.2 0-.2.1-.4.1-.7.1-.4.1-.8.2-1.2.6-2.3 2.7-3.9 5.2-4.1 2.3-.1 4.6 1.3 5.5 3.6s.4 4.2-1.6 6c-.4.3-.8.6-1.2.9-.6.4-1.1.9-1.7 1.4l-.3.4c-1.2 1.1-2.4 2.3-3.4 3.6-1.5 2-2.1 4.5-2.1 7.7 0 .8.7 1.5 1.5 1.5h7.1c.8 0 1.5-.7 1.5-1.5 0-3 1.9-4.9 4.2-6.9l.4-.4c.5-.5 1.1-1 1.6-1.5.8-.8 1.6-1.7 2.4-2.6 1.3-1.7 2-3.8 2.1-6 .3-7.9-5.3-14.8-13-16z"/><path d="m54.1 72h-7c-.6 0-1 .4-1 1v7.1c0 .6.4 1 1 1h7c.6 0 1-.4 1-1v-7.1c0-.6-.4-1-1-1z"/></svg>