<svg xmlns="http://www.w3.org/2000/svg" viewBox="0 0 143.2 143.2"><circle cx="71.6" cy="71.6" r="71.6" fill="#fff"/><path d="M39.9 66c.2.2.2 1.1 0 1.5-.9 1.4-.6 2.9-.6 4.4 0 2.8.5 5.6.5 8.4 0 .9-.1 1.8 0 2.8.5 3.1.4 6.4 0 9.5-.2 2.2-.4 4.4-.9 6.6-.2.8-.5 2 .2 2.8 1 1.2.3 2.5.7 3.7.1.3.1.5 0 .7h16.6c-1.1-.6-2.6-.5-3.9-1.2-.2-.1-.6-.5-.6-.6.3-1.7-1.2-2.7-1.5-4.1-.5-1.8-.8-3.5 0-5.4 1.1-2.5.8-5.3 1-8 .1-1.4.1-2.9.5-4.3 1-3.7.5-7.4.4-11.1-.1-1.4.4-2.4 1.4-3.3.3-.3.9-.5.7-.9-.9-2.7 2.2-2.1 2.9-3.5.2-.5.4.1.6.3.6.7 1.3 1.2 2.1 1.2 1.3 0 1.5.6 1.3 1.7-.3 2-.5 3.9-.7 5.9-.2 2.1-.3 4 .3 6.2.8 2.7.4 5.8.3 8.8-.1 3.3-.4 6.6-.8 9.9-.2 2-.1 3.9.2 5.9.1 1.1-.2 2-1 2.6h6.2c0-.2.1-.5.3-.8.4-.7 1-1.5-.2-2.1-.3-.1-.3-.5-.1-.6 1.2-1 .6-2.3.4-3.3-.7-2.7-.5-5.2.2-7.8.9-3.7 1.5-7.5 2.2-11.3.1-.4.2-.8.4-1.2 1.9 4 2.8 8.2 3.6 12.4.6 3.4.6 6.8 1.7 10.1.5 1.3 1 2.6 1.6 3.9.1.3.2.5.1.7h5.7c-.6-.5-.9-1.3-.9-2.2 0-1-.7-2.1-.8-3.2-.9-7.2-2.2-14.4-2.6-21.7 0-.7-.2-1.6.9-1.8.6-.1.3-.7.2-1-.6-2.9-1-5.8-1.7-8.7-.2-.9-.2-1.4.7-1.7 1.7-.5 2.4-1.9 3.2-3.4 1 1 1.7 1.9.9 3.2-.4.7-.4 1.5.3 2s1.2-.1 1.8-.4c.3-.2.6-.4.9-.7.3-.2.5-.6.9-.3.4.2.3.7.1 1C84 71.2 84 75.1 83.7 79c-.2 2.3 1.2 4.1 1.7 6.2 1.2 5.5 1.6 11 2.3 16.6.3 2.3-.5 3.7-2.2 4.6h3.8c0-.7.6-1.2 1.2-1.9.3.7.6 1.4.4 1.9h5.9c0-.1.1-.2.1-.3.8-1.6.7-3.1-.3-4.5-.7-1-.8-1.9-.5-3 .7-3.2.8-6.5-.4-9.6-.8-2-1-3.9-.9-6 0-1.3 1-2 1.1-3.2.4-4 1-7.9-.3-11.9-.3-.9-.3-1.8 1.1-1.8 1.2 0 1.6-.6 1.4-1.9-.3-1.7-.5-3.3-.4-5 .1-1.5-1-2.5-1.3-3.8-.5-2-2.1-1.5-3.5-1.5-.7 0-1.2-.4-1.3-1-.1-.6.5-1.1 1-1.1.9-.1 1-.7 1.3-1.3 1.1-1.9.3-3.7 0-5.6-1.8-1.7-5.3-1.6-7.6.3-2 2.4-.6 4.9-.2 7.4.1.5.6.5 1 .6.7.1.8.6.9 1.2.1.6-.2 1-.7 1.3-.7.3-1.3.6-2 .8-1.2.3-1.8.9-2.1 2.1-.1.5.2 1.6-.9 1.3-1-.3-2.4.2-2.8-1.4-.4-2-1-4-1.4-6-.2-1.3-.8-2.2-2.1-2.6-.7-.2-1.3-.5-2-.8-3.1-1.2-3.1-1.2-1.6-4.3-.1-1.1-.2-2.2-.3-3.4-.2-1.6-1.4-2.2-2.8-2.3-1.3-.1-2.5.6-2.9 1.9-.4 1.2-.8 2.5-.7 3.8 1.2 1 1 2 0 3.1-1.2 1.3-2.8 1.7-4.3 2.2-1.6.5-2.2 1.6-2.3 3.1-.1 1.6-.8 3-1 4.6-.3 2.1-1.7 3.3-3.3 4.3-.4.3-1.2 1.1-1.6.1-.3-.8-1-1.9.2-2.6.1-.1.3-.2.6-.4-.6-.1-1-.2-1.5-.3.7-.5 1.5 0 2.2-.8-.7-.1-1.3-.2-2.1-.4.6-.1 1.1-.2 1.7-.3-.7-1-1.8-.2-2.5-.8.1-.7.9-.5 1.2-1.2-1.1.1-1.6-.2-1.6-1.5 0-.7-.2-1.6-.5-2.2-.9-2.1-.9-3.5 1.7-4 .6-.1.4-.8.5-1.2.2-.6 0-1.5 1-1.7-.4-1.7-1.3-3.4-.1-5.1.1-.1-.1-.3-.2-.5-.7-1.3-3.9-2.7-5.6-2.4-1.6.3-2.8 1.6-3.3 3.5-.4 1.5-.1 3 .1 4.4.8 2.3-1.2 2.4-2.4 2.8-1.8.6-2.9 1.6-3.4 3.4-.5 2-.9 4.1-1.5 6.1-.5 1.8-1 3.5.2 5.4 1 1.2.7 2.7 2 3.6zM92 105.7c-.5-.5-.2-1.1 0-1.6.6-1.1.5-2.1-.6-2.9-.7-.5-.8-1.1-.9-1.9-.2-3.8 1-7.6 0-11.5 2.9 4.9 5 15.4 1.5 17.9z" fill="#4d4e51"/><path fill="none" stroke="#4d4e51" stroke-miterlimit="10" d="M10.1 106.7h121.6"/></svg>