<svg xmlns="http://www.w3.org/2000/svg" viewBox="0 0 143.2 143.2"><circle cx="71.6" cy="71.6" r="71.6" fill="#fff"/><path d="M32.8 74.3c.6.7.9 1.4 1 2.2.4 4 .9 8 .8 12-.2 5.7-.1 11.4.3 17.1 0 .6-.2 1.5.5 1.6 1.3.3 1.6 1.2 2.1 2.3h-4.9v.4H123c-.3-.4-.8-.5-1.6-.4-2.8.1-5.5 0-8.3 0-4.3 0-4.3 0-5.1-4.1 0-.2 0-.5-.1-.7-.8-5.4-1.6-10.9-2.4-16.3-.8-5.2-1.6-10.4-2.3-15.6-.7-4.6-1.3-9.2-2.1-13.8-.7-3.9-1.1-7.9.2-11.8.1-2.8.6-5.5 1.1-8.2.2-1.2.1-1.9-1.5-1.9-8.2.1-16.4 0-24.6 0-1.2 0-1.7.3-1.8 1.6-.3 2.9-.8 5.7-1.2 8.5-1.8 12.9-3.6 25.9-5.4 38.8-1 7.2-2.1 14.4-3 21.6-.2 1.3-.5 1.8-1.9 1.7-2.9-.2-5.9.4-8.7-1-1.5-.7-2.3-1.5-2.3-3.4.2-5.6.1-11.2-.2-16.8-.1-1.7-1.1-3.2-1.5-5-.5-2.5-1.4-5-1.7-7.5-.2-2-.6-3.8-1.8-5.5-.2-.2-.2-.6-.2-.9 0-2.6 0-5.1.4-7.7.1.1.3.1.3.1 1.8 2.7 2.7 2.7 4.4-.2.2-.3.4-.5.4-.8.9-3.4 2.8-6.2 5.5-8.5l.1-.1c.4-.7 1.4-1.6.9-2.1-.7-.7-1.1.7-1.8 1-.2.1-.3.1-.5.2-.1.2-.4.4-.5.2-.2-.2.1-.3.2-.5.1-.6 0-1.2-.7-.5-1.2 1.1-2.4 2.1-2.8 3.9-.3 1.4-.8 2.8-2 3.8 0-.9-.6-1.4-1.1-2-.4-.8-1.4-2-1.8-3.4-.7-2.3-2.1-3.6-4.5-3.7.3-.6 1.2-.6 1-1.4.6-2.1-.5-4.4.2-6.5 0-.1-.1-.3-.2-.5-.9-1.6-4.1-2.8-5.9-2.1-2.1.8-3.3 3-2.9 5.3.2 1.4.6 2.7 1.4 3.8.6 1.8-.8 2.3-1.9 3-1.5 1-3.9 1.8-4.3 3.2-1.1 3.6-3.1 6.9-4.1 10.6-.2.9-.3 1.8.5 2.8 1.9 2.5 3.9 4.8 5.9 7.2zm54.6 35.3c-3 0-3 0-3.4-2.7-1.2-8.2-2.4-16.4-3.7-24.6-.2-1 .1-1.2 1-1.2 3.8.3 7.6.5 11.3.8.9.1 1.1.4.9 1.3-1.2 8.3-2.4 16.7-3.5 25-.1 2.2-1.8 1-2.6 1.4zm14.5-29.4l4.2 28.2c.2 1.1-.2 1.2-1.1 1.2-1.9-.1-3.7 0-5.6 0h-5.6c-.9 0-1.2-.3-1.1-1.3 1.4-9.6 2.7-19.2 4.1-28.7.1-.5.1-1 .8-.9l3.6.3c.7 0 .6.7.7 1.2zm-.8-5c.1.9-.2 1.2-1.1 1.1-.2 0-.5-.1-.7-.1-1.8.2-2.2-.6-1.9-2.3.6-3.6 1.1-7.3 1.6-10.9.1 0 .2 0 .3.1.6 4.1 1.2 8.1 1.8 12.1zM72 76.3c1.7-11.5 3.3-23.1 4.9-34.7.2-1.4.7-1.8 2-1.7 3.2.1 6.4 0 9.6 0h9.9c1 0 1.4.2 1.2 1.3-1.8 12.3-3.5 24.5-5.2 36.8-.2 1.2-.5 1.5-1.7 1.4-6.4-.5-12.9-.9-19.3-1.3-1.2-.1-1.7-.4-1.4-1.8zm-4.5 31.6L70.2 89c.3-2.4.7-4.8 1-7.1.1-1.1.5-1.7 1.7-1.3.2.1.4 0 .5.1 1.3.2 3.1-.5 4 .5.7.9.6 2.5.8 3.8 1.1 7.6 2.2 15.2 3.4 22.8.2 1.5-.2 1.9-1.6 1.8-1.9-.1-3.7 0-5.6 0-1.8 0-3.6-.1-5.4 0-1.4.1-1.7-.4-1.5-1.7zM39.6 92.2c.7-2 1-4 1.5-6.1.2-.9.4-1.8 1.1-2.6 1.6 2.1 2.1 4.7 3.7 6.6.6.7-.1 1.7 0 2.6.4 4.2.8 8.4.6 12.6-.1 1.2-.2 2.4-.4 3.6 0 .4-.2.7-.6.7-.9-.1-2 .4-2.7-.4-2.1-2.4-4.2-4.7-2.6-8.3.7-1.7.1-3.5-.6-5.1-.5-1.3-.4-2.3 0-3.6zM30.4 64c.6-.8 1.2-1.6 1.9-2.7 1.4 3.5 4 6.5 1.3 10.3-1.7-1.6-2.5-3.8-3.6-5.8-.3-.6 0-1.2.4-1.8z" fill="#4d4e51"/><path fill="none" stroke="#4d4e51" stroke-miterlimit="10" d="M10.9 109.6h121.5"/></svg>