<svg enable-background="new 0 0 158.5 158.5" viewBox="0 0 158.5 158.5" xmlns="http://www.w3.org/2000/svg"><path d="m12 155c-4.7 0-8.5-3.8-8.5-8.5v-134.5c0-4.7 3.8-8.5 8.5-8.5h134.5c4.7 0 8.5 3.8 8.5 8.5v134.5c0 4.7-3.8 8.5-8.5 8.5z" fill="#689ab0"/><path d="m146.5 7c2.8 0 5 2.2 5 5v134.5c0 2.8-2.2 5-5 5h-134.5c-2.8 0-5-2.2-5-5v-134.5c0-2.8 2.2-5 5-5zm0-7h-134.5c-6.6 0-12 5.4-12 12v134.5c0 6.6 5.4 12 12 12h134.5c6.6 0 12-5.4 12-12v-134.5c0-6.6-5.4-12-12-12z" fill="#060704"/><path d="m61.3 139.5c-1.4-2.7-.8-3.7 2.2-3.7h6.2c0-6.4 0-12.5 0-18.8-1.9 0-3.6 0-5.4 0-9.9 0-19.8 0-29.7 0-6.2 0-9.2-3.8-7.5-9.8 3.2-11.4 6.5-22.8 9.8-34.1 1.1-3.7 2.7-4.9 6.6-4.9h71.4c3.9 0 5.5 1.2 6.6 4.9 3.3 11.5 6.6 23.1 9.9 34.6 1.5 5.3-1.5 9.2-7.1 9.3-11.1 0-22.1 0-33.2 0-.8 0-1.6.1-2.5.1v18.7h6.2c3 0 3.6 1 2.2 3.7-11.8 0-23.7 0-35.7 0zm12.5-22.5v18.5h10.9c0-6.3 0-12.4 0-18.5-3.7 0-7.2 0-10.9 0zm40.9-3.8c3.6 0 7 .1 10.3-.1 1-.1 2.7-1.2 2.6-1.7-.4-3.2-1.2-6.3-1.9-9.4 0-.1-.3-.2-.5-.2-4.1 0-8.2 0-12.5 0 .8 4.1 1.4 7.7 2 11.4zm-69-11.4c-2.3 0-4.2 0-6.2 0-7.2 0-7.2 0-8.9 6.9-.7 2.7.5 4.4 3.2 4.5 2.8.1 5.5.1 8.3-.1.7-.1 1.8-1 2-1.7.6-3 1-6.1 1.6-9.6zm79.2-3.7c-1-3.6-2-7-3-10.3-.1-.4-.8-1-1.3-1-3.3-.1-6.6 0-10.3 0 .7 4 1.3 7.7 1.9 11.4 4.4-.1 8.3-.1 12.7-.1zm-76.7-11.4c-3.6 0-6.8 0-10 0-.5 0-1.4.6-1.5 1-1.1 3.4-2 6.8-3 10.3h12.7c.5-3.7 1.1-7.4 1.8-11.3zm49.7 26.4h13c-.5-3.4-1-6.6-1.6-9.8-.1-.5-.8-1.4-1.2-1.4-3.6-.1-7.2-.1-11-.1.2 4 .5 7.5.8 11.3zm-36.4-11.3c-3.8 0-7.2-.1-10.5.1-.6 0-1.6.8-1.7 1.4-.6 3.2-1.1 6.4-1.6 9.7h13c.2-3.7.5-7.3.8-11.2zm19.8.1v11.1h12.8c-.3-3.8-.6-7.4-.9-11.1-4 0-7.8 0-11.9 0zm-4.1-.1c-3.6 0-7 0-10.5 0-.5 0-1.5.6-1.5 1-.4 3.4-.6 6.8-.8 10.2h12.8c0-3.8 0-7.4 0-11.2zm18.4-15.1c.4 4.1.7 7.7 1.1 11.4h11.7c-.6-3.5-1-6.8-1.7-10.1-.1-.5-1-1.2-1.6-1.2-3-.2-6-.1-9.5-.1zm-14.4 11.3h11.7c-.3-3.8-.7-7.4-1-11.1-3.7 0-7.2 0-10.8 0 .1 3.8.1 7.3.1 11.1zm-14.7-11.2c-.3 3.7-.6 7.4-1 11.2h11.7c0-3.8 0-7.4 0-11.2-3.5 0-6.9 0-10.7 0zm-3.7-.1c-3.4 0-6.5-.1-9.6.1-.5 0-1.4.6-1.4 1.1-.6 3.4-1.1 6.7-1.7 10.2h11.7c.3-3.7.7-7.3 1-11.4zm46.9-3.7h10.9c-1-3.4-1.8-6.7-2.9-9.9-.2-.7-1.3-1.4-2-1.4-2.5-.2-5.1-.1-7.9-.1.6 4 1.2 7.5 1.9 11.4zm-59-11.4c-2.8 0-5.4-.1-8 .1-.7 0-1.8.8-2 1.5-1.1 3.2-1.9 6.4-2.9 9.8h10.9c.7-3.7 1.3-7.4 2-11.4zm55.2 11.4c-.7-4-1.3-7.6-1.9-11.3-3.3 0-6.2 0-9.5 0 .3 3.8.6 7.5.9 11.3zm-51.4-11.3c-.6 3.8-1.2 7.5-1.9 11.2h10.5c.3-3.8.6-7.5.9-11.2-3.3 0-6.2 0-9.5 0zm26.8 0v11.2h10.4c-.3-3.9-.7-7.5-1-11.2-3.3 0-6.3 0-9.4 0zm-13.5.1c-.3 3.8-.6 7.5-.9 11.2h10.5c0-2 0-3.9 0-5.8 0-1.8 0-3.6 0-5.4-3.5 0-6.4 0-9.6 0z"/><path d="m80 19c1.7 2.7 3.7 4.2 7 2.5 1.5-.7 2.4.4 2.5 1.8.2 2.7 1.6 4 4.2 4.2 1.8.1 2.2 1.4 1.6 2.8-1.1 2.4-.6 4.2 1.6 5.8 1.4 1 1.4 2.2 0 3.3-2.1 1.5-2.7 3.3-1.6 5.8.7 1.4.3 2.6-1.6 2.8-2.5.3-4.1 1.5-4.3 4.2-.1 1.7-1.1 2.6-2.9 1.7-2.3-1.2-4.1-.7-5.6 1.4-1.2 1.7-2.4 1.7-3.6 0-1.5-2.1-3.3-2.6-5.6-1.4-1.8.9-2.8 0-2.9-1.7-.2-2.7-1.8-3.9-4.3-4.2-1.9-.2-2.2-1.4-1.6-2.8 1.1-2.4.5-4.2-1.6-5.8-1.5-1.1-1.3-2.4.2-3.4 2-1.4 2.4-3.2 1.5-5.4-.8-1.8-.5-2.9 1.7-3.1 2.5-.2 3.8-1.6 4-4.1.1-1.5 1-2.6 2.5-1.9 3.4 1.7 5.4.1 7.1-2.5zm-1 32c2.4-.5 4.7-.5 6.4-1.4 1.8-.9 3-2.8 4.5-4.2.1-.1.2-.1.2-.1.4-.6.8-1.2 1-1.9.5-1.5.9-3 1.2-4.6.1-.6.2-1.3 0-1.9-.5-1.9-1.1-3.9-1.6-5.6-1.4-1.6-2.8-3.1-4.3-4.6-.4-.4-.9-.6-1.5-.7-1.9-.5-3.9-.9-5.8-1.4-1.9.4-3.9.8-5.9 1.4-.6.2-1.1.7-1.5 1.1-2.9 2.5-5 5.5-5.5 9.5 0 .2-.3.3-.3.5 0 .6-.1 1.1.1 1.7.4 1.6.8 3.2 1.3 4.8.2.6.5 1.2.9 1.7 1.1 1.2 2.3 2.4 3.6 3.5.5.4 1 .8 1.6.9 2 .5 4 .9 5.6 1.3z"/><g fill="#fff"><path d="m73.8 117h10.9v18.5c-3.5 0-7.1 0-10.9 0 0-6 0-12.1 0-18.5z"/><path d="m114.7 113.2c-.6-3.7-1.3-7.3-1.9-11.3h12.5c.2 0 .5.1.5.2.7 3.1 1.5 6.2 1.9 9.4.1.5-1.7 1.6-2.6 1.7-3.4.1-6.8 0-10.4 0z"/><path d="m45.7 101.8c-.6 3.5-1 6.6-1.6 9.6-.2.7-1.2 1.7-2 1.7-2.7.2-5.5.2-8.3.1s-3.9-1.8-3.2-4.5c1.8-6.9 1.8-6.9 8.9-6.9z"/><path d="m124.9 98.1c-4.3 0-8.3 0-12.7 0-.6-3.7-1.2-7.4-1.9-11.4h10.3c.5 0 1.1.6 1.3 1 1 3.4 2 6.8 3 10.4z"/><path d="m48.2 86.7c-.6 4-1.2 7.6-1.8 11.4-4.2 0-8.3 0-12.7 0 1-3.5 2-6.9 3-10.3.2-.5 1-1 1.5-1 3.2-.2 6.4-.1 10-.1z"/><path d="m97.9 113.1c-.3-3.8-.6-7.3-.9-11.3 3.8 0 7.4 0 11 .1.4 0 1.1.8 1.2 1.4.6 3.2 1.1 6.5 1.6 9.8-4.3 0-8.5 0-12.9 0z"/><path d="m61.5 101.8c-.3 4-.6 7.5-.9 11.2-4.3 0-8.5 0-13 0 .5-3.3.9-6.5 1.6-9.7.1-.6 1.1-1.4 1.7-1.4 3.4-.2 6.8-.1 10.6-.1z"/><path d="m81.3 101.9h11.9c.3 3.7.6 7.3.9 11.1-4.3 0-8.5 0-12.8 0 0-3.6 0-7.2 0-11.1z"/><path d="m77.2 101.8v11.2c-4.1 0-8.3 0-12.8 0 .3-3.4.5-6.8.8-10.2 0-.4 1-1 1.5-1 3.5-.1 6.9 0 10.5 0z"/><path d="m95.6 86.7c3.4 0 6.4-.1 9.4.1.6 0 1.5.7 1.6 1.2.7 3.3 1.1 6.6 1.7 10.1-3.9 0-7.6 0-11.7 0-.2-3.7-.6-7.4-1-11.4z"/><path d="m81.2 98c0-3.7 0-7.3 0-11.1h10.8c.3 3.6.6 7.2 1 11.1-4 0-7.8 0-11.8 0z"/><path d="m66.5 86.8h10.7v11.2c-3.8 0-7.6 0-11.7 0 .4-3.8.7-7.5 1-11.2z"/><path d="m62.8 86.7c-.4 4.1-.7 7.7-1 11.4-4 0-7.7 0-11.7 0 .6-3.5 1.1-6.9 1.7-10.2.1-.5.9-1.1 1.4-1.1 3.1-.2 6.2-.1 9.6-.1z"/><path d="m109.7 83c-.6-3.9-1.2-7.4-1.9-11.4 2.8 0 5.4-.1 7.9.1.7 0 1.8.8 2 1.4 1.1 3.2 1.9 6.4 2.9 9.9-3.8 0-7.3 0-10.9 0z"/><path d="m50.7 71.6c-.7 4-1.3 7.6-1.9 11.4-3.6 0-7.1 0-10.9 0 1-3.4 1.8-6.7 2.9-9.8.2-.7 1.3-1.4 2-1.5 2.5-.2 5.1-.1 7.9-.1z"/><path d="m105.9 83c-3.7 0-7 0-10.5 0-.3-3.8-.6-7.4-.9-11.3h9.5c.6 3.7 1.2 7.3 1.9 11.3z"/><path d="m54.5 71.7h9.5c-.3 3.8-.6 7.4-.9 11.2-3.5 0-6.9 0-10.5 0 .6-3.7 1.2-7.4 1.9-11.2z"/><path d="m81.3 71.7h9.4c.3 3.7.7 7.4 1 11.2-3.6 0-6.9 0-10.4 0 0-3.7 0-7.4 0-11.2z"/><path d="m67.8 71.8h9.6v5.4 5.8c-3.5 0-6.8 0-10.5 0 .3-3.8.6-7.4.9-11.2z"/><path d="m79 51c-1.6-.4-3.6-.8-5.5-1.4-.6-.2-1.2-.5-1.6-.9-1.2-1.1-2.4-2.3-3.6-3.5-.4-.5-.8-1.1-.9-1.7-.5-1.6-.9-3.2-1.3-4.8-.1-.5-.1-1.1-.1-1.6 0-.2.2-.3.3-.5.5-4 2.6-6.9 5.5-9.5.5-.4 1-.9 1.5-1.1 2-.5 4.1-1 5.9-1.4 1.9.4 3.9.9 5.8 1.4.5.1 1.1.4 1.5.7 1.5 1.5 2.8 3 4.3 4.6.5 1.7 1.1 3.6 1.6 5.6.2.6.1 1.3 0 1.9-.3 1.5-.7 3.1-1.2 4.6-.2.7-.7 1.3-1 1.9 0 .1-.2.1-.2.1-1.5 1.4-2.7 3.3-4.5 4.2-1.9.9-4.1.9-6.5 1.4zm.3-22.4c-5.2 0-9.4 4-9.4 9.2s4.1 9.4 9.3 9.4c5.1 0 9.4-4.2 9.4-9.3 0-5.2-4.1-9.3-9.3-9.3z"/></g><path d="m79.3 28.6c5.2 0 9.3 4.1 9.3 9.3 0 5.1-4.3 9.3-9.4 9.3-5.2 0-9.3-4.3-9.3-9.4 0-5.2 4.2-9.2 9.4-9.2zm5.6 9.2c0-3.1-2.5-5.6-5.6-5.7-3.1 0-5.6 2.5-5.7 5.6 0 3.2 2.6 5.9 5.7 5.8 3 0 5.6-2.6 5.6-5.7z"/><path d="m84.9 37.8c0 3.1-2.5 5.7-5.5 5.7-3.1.1-5.8-2.7-5.7-5.8 0-3.1 2.6-5.6 5.7-5.6 3 .1 5.4 2.6 5.5 5.7z" fill="#fff"/></svg>