<svg enable-background="new 0 0 158.5 158.5" viewBox="0 0 158.5 158.5" xmlns="http://www.w3.org/2000/svg"><path d="m12 155c-4.7 0-8.5-3.8-8.5-8.5v-134.5c0-4.7 3.8-8.5 8.5-8.5h134.5c4.7 0 8.5 3.8 8.5 8.5v134.5c0 4.7-3.8 8.5-8.5 8.5z" fill="#689ab0"/><path d="m146.5 7c2.8 0 5 2.2 5 5v134.5c0 2.8-2.2 5-5 5h-134.5c-2.8 0-5-2.2-5-5v-134.5c0-2.8 2.2-5 5-5zm0-7h-134.5c-6.6 0-12 5.4-12 12v134.5c0 6.6 5.4 12 12 12h134.5c6.6 0 12-5.4 12-12v-134.5c0-6.6-5.4-12-12-12z" fill="#060704"/><path d="m57.9 38.4c2.1 1.1 3.9 2.4 4.1 5 .2 3-1.5 5.5-4.4 6.2-2.6.6-5.4-.8-6.5-3.4-1.1-2.7 0-5.7 2.6-7.1.4-.2.8-.5 1.2-.7z"/><path d="m63.1 96.2c-.9-1.3-2-2.3-2.6-3.7-1.4-3.8-2.5-7.7-3.8-11.4-.6-1.8-.3-3.3 1.1-4.7 2.2-2.3 4.3-4.7 6.6-7.3-1.4-1.7-2.6-3.5-4-5.2-1.3-1.7-2.6-3.3-4-5.2-3.9 2-7.7 4.1-11.6 6.1-.6.3-1.2.6-1.8.9-1.6.8-2.9.5-3.9-1.1-.9-1.4-.4-3.1 1.3-4 6.3-3.4 12.6-6.8 18.9-10.1.6-.3 1.4-.5 2.2-.5h22.7c1.5 0 2.9.5 3.2 2 .2 1-.3 2.3-1 3-.5.5-1.6.6-2.5.7-4.6.1-9.1 0-14.1 0 2.3 2.9 4.1 5.7 6.2 8.2 1.7 2 2.3 4 1.6 6.4-1 3.5-.5 6.5 2.8 8.6 1 .7 1.7 1.7 2.6 2.6 1.7 1.5 2.6 3.2 1.3 5.7 3.7-1.1 6.7-2.5 9.1-5.3 1.8-2.1 3.2-2.3 4.3-1.2 1.2 1.1.8 2.3-1.1 4.5-2.3 2.6-5.1 4.4-8.3 5.6-9.6 3.7-19 7.8-28.7 11.3-2.9 1.1-6.3.6-9.5.5-.5 0-1.5-1.3-1.5-2s.8-1.7 1.5-2.1c.5-.4 1.4-.3 2.2-.2 4.1.8 7.8-.7 10.8-2.1zm7.1-23.4c-.6.6-1.2 1.3-1.7 1.9-1.6 1.8-4 3.5-4.4 5.5-.5 2 1.2 4.5 1.8 6.8.7 2.4 2.2 4.7.9 7.7 5-2 9.6-3.8 14-5.6-2.3-2.2-4.4-4.5-6.7-6.5-3-2.6-5-5.3-3.8-9.5.2 0 .1 0-.1-.3z"/><path d="m91.6 94.6c0 1.6-1.3 2.8-2.9 2.8s-2.8-1.3-2.7-2.9c.1-1.7 1.1-2.6 2.8-2.6 1.6-.2 2.8 1.1 2.8 2.7z"/><path d="m66.6 104.9c0 1.6-1.3 2.8-2.9 2.7s-2.8-1.4-2.7-2.9c.2-1.7 1.1-2.6 2.8-2.6 1.7-.2 2.9 1.2 2.8 2.8z"/><path d="m40.6 117.9v-.2c.9-.2 1.9-.2 2.8-.4 3.5-.5 7-1 10.4-1.6 18.6-3.5 32.7-8.9 44.3-17 9.1-6.4 15.2-13.9 18.8-23h.8v42.1h-77.1z" fill="#fff"/><path d="m115.6 83.9v31.7h-50.4c13.7-3.5 24.8-8.3 34.4-15 6.9-4.9 12.1-10.4 16-16.7m1.1-10.4c-1 0-1.4.5-1.8 1.4-3.6 9.2-10 16.4-18 21.9-13.1 9.2-28 13.8-43.5 16.7-5 .9-10.1 1.5-15.1 2.3v4.4h81.7c0-15.5 0-31.1 0-46.6-.7 0-1.4.1-2 .1-.4 0-.7 0-1.1-.1 0-.1-.1-.1-.2-.1z"/></svg>