<svg enable-background="new 0 0 158.5 158.5" viewBox="0 0 158.5 158.5" xmlns="http://www.w3.org/2000/svg"><path d="m12 155c-4.7 0-8.5-3.8-8.5-8.5v-134.5c0-4.7 3.8-8.5 8.5-8.5h134.5c4.7 0 8.5 3.8 8.5 8.5v134.5c0 4.7-3.8 8.5-8.5 8.5z" fill="#81b031"/><path d="m146.5 7c2.8 0 5 2.2 5 5v134.5c0 2.8-2.2 5-5 5h-134.5c-2.8 0-5-2.2-5-5v-134.5c0-2.8 2.2-5 5-5zm0-7h-134.5c-6.6 0-12 5.4-12 12v134.5c0 6.6 5.4 12 12 12h134.5c6.6 0 12-5.4 12-12v-134.5c0-6.6-5.4-12-12-12z" fill="#060704"/><path d="m93.2 79.5c2.9 0 5.6.4 8.1-.1 4-.7 7.2.2 9.9 3 7.7 7.7 15.4 15.5 23.1 23.3 2.1 2.1 3.2 4.5.6 6.5-1.2.9-4.2.6-5.7-.2-12.3-8.3-24.5-16.9-36.7-25.5-.9-.6-1.9-1.2-2.9-1.9-6.2 4.6-12.3 4.5-18.7-.7-1.6 3-2.7 5.8-4.5 8.1-1.9 2.4-4 5.2-6.6 6.1-10.7 3.4-21.6 6-32.6 8.8-2.6.6-5.2.4-5.5-2.6-.1-1.6 1.5-4.1 3-4.8 13.3-6.5 26.6-12.7 40-18.9 2.4-1.1 3.7-2.1 3.6-5.1-.2-6.5 4-9.9 9.8-12.6-1.6-2.6-3.5-4.8-4.5-7.5-1.1-3-2.9-6.3-2.1-9.2 2.5-11.1 5.7-22.1 9-33 .5-1.5 3.1-2.2 4.7-3.2 1 1.6 2.7 3.2 2.7 4.7-1 14.8-2.2 29.7-3.7 44.5-.2 3 .2 4.5 3 6 5.7 2.8 6.4 8.2 6 14.3z"/><path d="m74.4 86.3h12.1c2 17.5 3.9 34.9 5.9 52.6-8.1 0-15.8 0-23.9 0 2-17.5 4-34.8 5.9-52.6z"/><g fill="#fff"><circle cx="81.1" cy="74.7" r="7"/><path d="m80.4 87.8-7.6 46.7h15.2z"/></g></svg>