<?xml version="1.0" encoding="utf-8"?>
<!-- Generator: Adobe Illustrator 22.1.0, SVG Export Plug-In . SVG Version: 6.00 Build 0)  -->
<svg version="1.1" id="Layer_1" xmlns="http://www.w3.org/2000/svg" xmlns:xlink="http://www.w3.org/1999/xlink" x="0px" y="0px"
	 viewBox="0 0 158.5 158.5" style="enable-background:new 0 0 158.5 158.5;" xml:space="preserve">
<style type="text/css">
	.st0{fill:#689AB0;}
	.st1{fill:#060704;}
	.st2{fill:#FFFFFF;}
</style>
<path id="_x38_8" class="st0" d="M12,155c-4.7,0-8.5-3.8-8.5-8.5V12c0-4.7,3.8-8.5,8.5-8.5h134.5c4.7,0,8.5,3.8,8.5,8.5v134.5
	c0,4.7-3.8,8.5-8.5,8.5H12z"/>
<path id="_x37_7" class="st1" d="M146.5,7c2.8,0,5,2.2,5,5v134.5c0,2.8-2.2,5-5,5H12c-2.8,0-5-2.2-5-5V12c0-2.8,2.2-5,5-5H146.5z
	 M146.5,0H12C5.4,0,0,5.4,0,12v134.5c0,6.6,5.4,12,12,12h134.5c6.6,0,12-5.4,12-12V12C158.5,5.4,153.1,0,146.5,0z"/>
<path id="_x36_6" d="M113.6,101.9v3.9v24.9c0,2.3-0.8,3.2-3.1,3.2c-7-0.1-6.4,0.5-6.4-6.2c0-8.5,0-16.9,0-25.8c-2.2,0-4.3,0-6.4,0
	c-3.3,0-6.5,0-9.8,0s-3.6-0.4-3.3-3.7c-2.3,0-4.7,0-7.4,0v2.6v29.5c0,3.1-0.4,3.5-3.6,3.5c-7.5,0-6.7,0.6-6.7-6.6
	c0-7.1,0-14.1,0-21.4c-5.1,0-10,0-15.2,0c0,0.8-0.1,1.6-0.1,2.5c0,7.5-0.1,15,0,22.5c0,2.3-0.8,3.2-3.1,3.2c-5.8,0-5.8,0-5.8-5.9
	c0-7.2,0-14.5,0-21.7c0-0.1-0.1-0.3-0.3-0.7c-4.4,0-8.9,0-13.5,0c-3.8,0-4.4-1.1-2.5-4.4c2.1-3.7,4.2-7.3,6.3-11
	c0.1-0.1,0-0.3,0.1-0.5c-0.1-0.1-0.2-0.3-0.4-0.2c-4.8,0.3-4.8-1.9-2.8-5.1c2.5-4,4.7-8.1,7.2-12.4c-0.5-0.1-0.7-0.2-1-0.2
	c-2.9-0.3-3.4-1.3-2-3.8c2.5-4.4,5-8.7,7.5-13.1c1.3-2.2,2.5-4.4,3.8-6.5c1.3-2.2,2.8-2.2,4.2,0.1c2.4,4.1,4.8,8.3,7.4,12.8
	c1.2-2.1,2.2-3.8,3.4-5.9c-1.2-0.1-1.9-0.1-2.7-0.1c-2.4-0.1-3.2-1.4-2-3.5c2.8-5,5.7-10,8.6-15c2-3.5,4-6.9,6-10.3
	c1.4-2.4,2.9-2.4,4.3,0c4.8,8.2,9.5,16.5,14.2,24.7c1.7,3,1.1,4.1-2.4,4.2c-0.6,0-1.1,0.1-2,0.1c3.1,5.3,6,10.4,9.2,16.1
	c1.6-2.7,2.9-5.1,4.3-7.5c-5.4-0.8-5.5-1.1-2.9-5.7c3.9-6.8,7.8-13.5,11.7-20.3c1.6-2.8,3.1-2.8,4.7,0c4.1,7.1,8.2,14.2,12.3,21.3
	c1.9,3.3,1.4,4.2-2.5,4.3c-0.2,0-0.5,0.1-1,0.2c1.9,3.3,3.7,6.4,5.5,9.5c1.3,2.2,2.5,4.4,3.8,6.6c1.4,2.4,0.7,3.6-2.1,3.7
	c-0.8,0-1.6,0-2.9,0c1.2,2.2,2.3,4,3.4,5.9c1.7,2.9,3.3,5.8,5,8.7c1.4,2.4,0.6,3.7-2.2,3.7c-4.6,0-9.3,0-13.9,0
	C115.5,101.9,114.7,101.9,113.6,101.9z M54,73.7h2.9c4,0,4.6,1,2.6,4.4c-3,5.2-6,10.4-9.1,15.8c0.6,0.1,1,0.2,1.4,0.2h34.1
	c2.3,0,5-4.9,3.9-6.9c-1.8-3.3-3.8-6.5-5.6-9.7c-1.4-2.5-0.7-3.7,2.1-3.8H90c-0.5-1.1-0.9-1.8-1.3-2.4c-3.1-5.4-6.2-10.7-9.2-16.1
	c-1.5-2.6-0.8-3.8,2.1-3.9c0.7,0,1.4-0.1,2.4-0.2c-4-7-7.9-13.7-12-20.7c-4.1,7.1-8,13.8-12,20.8c0.7,0.1,1,0.1,1.3,0.1
	c4.6,0.1,5,0.9,2.8,4.8C60.8,61.8,57.6,67.5,54,73.7z M124.6,79.8c-3.1-5.3-5.9-10.3-8.8-15.3c-2.2-3.8-1.8-4.5,2.6-4.8
	c0.1,0,0.2-0.2,0.5-0.4c-3.3-5.7-6.6-11.4-10.1-17.5c-3.5,6.1-6.9,11.9-10.3,17.8c0.6,0.1,0.8,0.2,1.1,0.2c3.8,0.2,4.3,1.1,2.4,4.5
	c-2.6,4.5-5.2,9-7.8,13.5c-0.3,0.6-0.6,1.2-1,2h3.1c2.3,0.1,3,1.3,2,3.4c-0.4,0.7-0.8,1.4-1.2,2.1c-2.4,4.1-4.7,8.3-7.2,12.5h37.8
	c-0.4-0.8-0.7-1.3-1-1.7c-2.4-4.2-4.9-8.4-7.3-12.7c-1.3-2.3-0.5-3.5,2.1-3.6C122.4,79.7,123.3,79.8,124.6,79.8z M63.3,101.7
	c-1.4-3.6-1.4-3.6-4.6-3.6c-3.5,0-7,0-10.5,0c-3.2,0-3.9-1.2-2.2-4.1c2.5-4.4,5.1-8.9,7.7-13.3c0.5-0.9,1-1.8,1.7-3
	c-1.6,0-2.6,0-3.7,0c-2.8-0.1-3.5-1.3-2.2-3.7c1.4-2.5,2.9-4.9,4.2-7.4c0.3-0.6,0.5-1.6,0.2-2.2c-2.1-3.8-4.3-7.6-6.7-11.7
	c-3,5.2-5.8,10.1-8.7,15.1c4.2,0.7,4.6,1.4,2.6,4.9c-1.6,2.7-3.2,5.5-4.8,8.2c-0.9,1.5-1.7,3-2.6,4.7c0.8,0,1.2,0.1,1.6,0.1
	c3.3,0.1,3.9,1.2,2.3,4.1c-0.4,0.6-0.7,1.3-1.1,1.9c-1.9,3.3-3.8,6.6-5.8,10.1C41.8,101.7,52.4,101.7,63.3,101.7z M70.9,129.6
	c0.2,0.2,0.5,0.4,0.7,0.7c0.6-0.6,1.6-1.1,1.6-1.7c0.1-10,0.1-20.1,0.1-30.2c-0.9,0-1.6,0-2.4,0L70.9,129.6z M109.7,116.1
	c0-4.1,0-8.3,0-12.4c0-0.6-0.5-1.2-0.8-1.7c-0.3,0.6-0.8,1.1-0.8,1.7c-0.1,8.2-0.1,16.4,0,24.6c0,0.6,0.5,1.1,0.8,1.7
	c0.3-0.5,0.8-1.1,0.8-1.6C109.7,124.3,109.7,120.2,109.7,116.1L109.7,116.1z M46.8,129.9h0.6c0-8,0-16.1,0-24.1c-0.2,0-0.4,0-0.6,0
	V129.9z"/>
<path id="_x35_5" class="st2" d="M54,73.7h2.9c4,0,4.6,1,2.6,4.4c-3,5.2-6,10.4-9.1,15.8c0.6,0.1,1,0.2,1.4,0.2h34.1
	c2.3,0,5-4.9,3.9-6.9c-1.8-3.3-3.8-6.5-5.6-9.7c-1.4-2.5-0.7-3.7,2.1-3.8H90c-0.5-1.1-0.9-1.8-1.3-2.4c-3.1-5.4-6.2-10.7-9.2-16.1
	c-1.5-2.6-0.8-3.8,2.1-3.9c0.7,0,1.4-0.1,2.4-0.2c-4-7-7.9-13.7-12-20.7c-4.1,7.1-8,13.8-12,20.8c0.7,0.1,1,0.1,1.3,0.1
	c4.6,0.1,5,0.9,2.8,4.8C60.8,61.8,57.6,67.5,54,73.7z"/>
<path id="_x34_4" class="st2" d="M124.6,79.8c-3.1-5.3-5.9-10.3-8.8-15.3c-2.2-3.8-1.8-4.5,2.6-4.8c0.1,0,0.2-0.2,0.5-0.4
	c-3.3-5.7-6.6-11.4-10.1-17.5c-3.5,6.1-6.9,11.9-10.3,17.8c0.6,0.1,0.8,0.2,1.1,0.2c3.8,0.2,4.3,1.1,2.4,4.5
	c-2.6,4.5-5.2,9-7.8,13.5c-0.3,0.6-0.6,1.2-1,2h3.1c2.3,0.1,3,1.3,2,3.4c-0.4,0.7-0.8,1.4-1.2,2.1c-2.4,4.1-4.7,8.3-7.2,12.5h37.8
	c-0.4-0.8-0.7-1.3-1-1.7c-2.4-4.2-4.9-8.4-7.3-12.7c-1.3-2.3-0.5-3.5,2.1-3.6C122.4,79.7,123.3,79.8,124.6,79.8z"/>
<path id="_x33_3" class="st2" d="M63.3,101.7c-1.4-3.6-1.4-3.6-4.6-3.6c-3.5,0-7,0-10.5,0c-3.2,0-3.9-1.2-2.2-4.1
	c2.5-4.4,5.1-8.9,7.7-13.3c0.5-0.9,1-1.8,1.7-3c-1.6,0-2.6,0-3.7,0c-2.8-0.1-3.5-1.3-2.2-3.7c1.4-2.5,2.9-4.9,4.2-7.4
	c0.3-0.6,0.5-1.6,0.2-2.2c-2.1-3.8-4.3-7.6-6.7-11.7c-3,5.2-5.8,10.1-8.7,15.1c4.2,0.7,4.6,1.4,2.6,4.9c-1.6,2.7-3.2,5.5-4.8,8.2
	c-0.9,1.5-1.7,3-2.6,4.7c0.8,0,1.2,0.1,1.6,0.1c3.3,0.1,3.9,1.2,2.3,4.1c-0.4,0.6-0.7,1.3-1.1,1.9c-1.9,3.3-3.8,6.6-5.8,10.1
	C41.8,101.7,52.4,101.7,63.3,101.7z"/>
</svg>
