<svg enable-background="new 0 0 158.5 158.5" viewBox="0 0 158.5 158.5" xmlns="http://www.w3.org/2000/svg"><path d="m12 155c-4.7 0-8.5-3.8-8.5-8.5v-134.5c0-4.7 3.8-8.5 8.5-8.5h134.5c4.7 0 8.5 3.8 8.5 8.5v134.5c0 4.7-3.8 8.5-8.5 8.5z" fill="#689ab0"/><path d="m146.5 7c2.8 0 5 2.2 5 5v134.5c0 2.8-2.2 5-5 5h-134.5c-2.8 0-5-2.2-5-5v-134.5c0-2.8 2.2-5 5-5zm0-7h-134.5c-6.6 0-12 5.4-12 12v134.5c0 6.6 5.4 12 12 12h134.5c6.6 0 12-5.4 12-12v-134.5c0-6.6-5.4-12-12-12z" fill="#060704"/><path d="m100.3 82.2h23.3c5.6 0 6.2.7 6.2 6.9v29.8c0 4.9-.7 5.7-5.2 5.7-30.2 0-60.4 0-90.6 0-4.6 0-5.3-.8-5.3-5.6 0-10.3 0-20.7 0-31 0-4.7 1-5.7 5.3-5.7h19.2 5c0-8.1 0-15.5-.1-23 0-.7-1.2-1.4-1.4-2.2-.6-2.5-1.6-5.2-1.4-7.7.1-.9 3-2.2 4.6-2.2 12.9-.2 25.9-.2 38.8 0 1.5 0 4.3 1.3 4.3 2.1.2 2.6-.6 5.2-1.3 7.8-.2.9-1.5 1.7-1.5 2.6.1 7.1.1 14.5.1 22.5zm-3.2-24.7c-12.2 0-23.9 0-35.6 0v63.2h9.6c0-2.3 0-4.3 0-6.2 0-11.2.2-11.4 10.5-11.2 4.7.1 5.9 1.4 5.9 6.7v10.7h9.6c0-21.1 0-42.1 0-63.2zm-65 28v35.4h26.1c0-11.3 0-22.3-.1-33.3 0-.7-1.2-2-1.8-2-8-.2-15.9-.1-24.2-.1zm68.5.3v35h25.9c0-11.8 0-23.2 0-35-8.6 0-17.1 0-25.9 0zm-21.7-32c6.3 0 12.6.1 18.8-.1 1 0 1.9-1.1 2.9-1.6-1-.6-1.9-1.7-2.9-1.7-12.3-.1-24.6-.1-36.9 0-1 0-1.9 1.1-2.9 1.7 1 .6 1.9 1.6 2.9 1.6 6 .2 12 .1 18.1.1zm5.4 67c0-2.6 0-4.7 0-6.8 0-7.9-.3-8.3-7.7-7.2-.9.1-2.2 1.5-2.2 2.4-.3 3.8-.1 7.5-.1 11.5 3.4.1 6.4.1 10 .1z"/><g fill="#fff"><path d="m97.1 57.5v63.2c-3.1 0-6.1 0-9.6 0 0-3.4 0-7.1 0-10.7 0-5.3-1.2-6.6-5.9-6.7-10.3-.3-10.5-.1-10.5 11.2v6.2c-3.2 0-6.3 0-9.6 0 0-21.1 0-42 0-63.2zm-19.6 13.1c0-5.5-.3-5.9-5.1-6-5.7-.1-6.1.3-6.1 5.7 0 6 .3 6.4 5.1 6.4 5.8.1 6.1-.2 6.1-6.1zm14.7.1c0-5.6-.4-6-5.5-6.1-5.4 0-5.8.3-5.8 5.7 0 6.1.3 6.5 5.4 6.5 5.6 0 5.9-.3 5.9-6.1zm-20 13.4c-5.5 0-5.9.3-5.9 5.1 0 6.6.3 7.1 5.3 7.1 5.5 0 5.9-.4 5.9-6.9 0-4.8-.5-5.3-5.3-5.3zm14.3 0c-5 0-5.5.5-5.5 5.1 0 6.7.3 7.1 5.8 7.1 5.1 0 5.5-.4 5.5-7-.1-4.8-.5-5.2-5.8-5.2z"/><path d="m32.1 85.5c8.3 0 16.2 0 24.2.1.6 0 1.8 1.3 1.8 2 .1 11 .1 22 .1 33.3-8.9 0-17.3 0-26.1 0 0-11.6 0-23.2 0-35.4zm7.3 6.5c-1.5 1-2.7 1.8-4 2.7 1.3.6 2.6 1.5 3.8 1.5 1.3 0 2.6-1 3.9-1.5-1.1-.8-2.2-1.6-3.7-2.7zm11.5 13.7c1.4-.9 2.5-1.7 3.6-2.5-1.4-.6-2.9-1.5-4.3-1.5-1.1 0-2.2 1.1-3.4 1.8 1.2.7 2.5 1.3 4.1 2.2zm-.1 9.1c1.4-1 2.5-1.8 3.7-2.5-1.1-.5-2.3-1.5-3.4-1.5-1.4.1-2.8 1-4.2 1.6 1.1.7 2.3 1.4 3.9 2.4zm.1-22.7c-1.5.9-2.8 1.7-4.1 2.5 1.3.6 2.6 1.6 3.8 1.6 1.3-.1 2.6-1.2 3.9-1.8-1.1-.7-2.2-1.4-3.6-2.3zm-11.3 13.6c1.3-.9 2.4-1.7 3.5-2.4-1.3-.5-2.6-1.5-3.9-1.5-1.2 0-2.4 1.2-3.6 1.8 1.2.6 2.4 1.2 4 2.1zm0 4.3c-1.6.7-2.9 1.4-4.2 2 1.2.7 2.4 1.9 3.6 1.9 1.4 0 2.7-1.2 4.1-1.8-1.1-.7-2.2-1.3-3.5-2.1z"/><path d="m100.6 85.8h25.9v35c-8.6 0-17.1 0-25.9 0 0-11.6 0-23.2 0-35zm18.6 11.4c1.5-1.1 2.6-2 3.8-2.9-1.2-.5-2.4-1.4-3.5-1.4-1.4.1-2.8 1-4.2 1.5 1.2.9 2.3 1.7 3.9 2.8zm-11.6 8.5c1.6-.9 2.8-1.6 4.1-2.2-1.1-.6-2.3-1.8-3.4-1.8-1.5 0-2.9 1-4.3 1.5 1.1.8 2.3 1.6 3.6 2.5zm11.5 0c1.5-.9 2.7-1.6 3.9-2.2-1.3-.6-2.5-1.7-3.8-1.7s-2.6 1-3.9 1.6c1.2.7 2.4 1.4 3.8 2.3zm-14.6 5c-.3.5-.6 1-.9 1.5.9.6 1.9 1.7 2.8 1.7 1.7 0 3.4-.7 5.1-1-.5-.7-1-2-1.6-2.1-1.7-.3-3.6-.1-5.4-.1zm3.3-18.5c-1.4.8-2.6 1.5-3.8 2.3 1.2.6 2.4 1.8 3.6 1.7 1.4 0 2.7-1.1 4.1-1.7-1.2-.7-2.4-1.4-3.9-2.3zm12.1 17.7c-1.8.9-3.1 1.6-4.5 2.3 1.1.6 2.2 1.8 3.3 1.8 1.4 0 2.9-1 4.3-1.5-.9-.9-1.9-1.7-3.1-2.6z"/><path d="m78.9 53.8c-6 0-12 .1-18-.1-1 0-1.9-1.1-2.9-1.6 1-.6 1.9-1.7 2.9-1.7 12.3-.1 24.6-.1 36.9 0 1 0 1.9 1.1 2.9 1.7-1 .6-1.9 1.6-2.9 1.6-6.4.2-12.7.1-18.9.1z"/><path d="m84.3 120.8c-3.5 0-6.6 0-10 0 0-4-.1-7.8.1-11.5.1-.9 1.4-2.3 2.2-2.4 7.4-1.1 7.7-.7 7.7 7.2z"/></g><path d="m77.5 70.6c0 6-.3 6.2-6.1 6.2-4.8 0-5.1-.5-5.1-6.4 0-5.4.4-5.8 6.1-5.7 4.8-.1 5.1.3 5.1 5.9zm-7.9 2.5h4.6c0-1.7 0-3.2 0-4.7-1.7 0-3.1 0-4.6 0z"/><path d="m92.2 70.7c0 5.8-.3 6.1-5.8 6.1-5.1 0-5.4-.4-5.4-6.5 0-5.4.4-5.7 5.8-5.7 5.1 0 5.5.5 5.4 6.1zm-7.8-2.6v5h4.4c0-1.8 0-3.4 0-5-1.6 0-2.9 0-4.4 0z"/><path d="m72.2 84.1c4.9 0 5.3.5 5.3 5.3 0 6.5-.4 7-5.9 6.9-5 0-5.4-.5-5.3-7.1 0-4.8.4-5.1 5.9-5.1zm-2.6 3.4v5.1h4.4c0-1.8 0-3.4 0-5.1-1.5 0-2.8 0-4.4 0z"/><path d="m86.5 84.1c5.3 0 5.7.4 5.8 5.3 0 6.5-.3 7-5.5 7-5.4 0-5.8-.4-5.8-7.1 0-4.7.5-5.2 5.5-5.2zm2.3 8.6c0-1.9 0-3.5 0-5.4-1.7.1-3 .2-4.4.2v5.2z"/><path d="m39.4 92c1.5 1.1 2.6 1.9 3.7 2.7-1.3.6-2.6 1.5-3.9 1.5s-2.6-1-3.8-1.5c1.3-.9 2.5-1.7 4-2.7z"/><path d="m50.9 105.7c-1.6-.9-2.8-1.6-4.1-2.3 1.1-.6 2.3-1.8 3.4-1.8 1.5 0 2.9 1 4.3 1.5-1.1.9-2.3 1.7-3.6 2.6z"/><path d="m50.8 114.8c-1.6-1-2.8-1.7-4-2.5 1.4-.6 2.8-1.5 4.2-1.6 1.1-.1 2.3.9 3.4 1.5-1 .8-2.2 1.6-3.6 2.6z"/><path d="m50.9 92.1c1.5.9 2.6 1.5 3.6 2.2-1.3.7-2.6 1.8-3.9 1.8-1.2.1-2.5-1-3.8-1.6 1.3-.7 2.6-1.5 4.1-2.4z"/><path d="m39.6 105.7c-1.6-.8-2.8-1.5-4.1-2.1 1.2-.6 2.4-1.8 3.6-1.8 1.3 0 2.6 1 3.9 1.5-1 .7-2.1 1.5-3.4 2.4z"/><path d="m39.6 110c1.3.7 2.4 1.4 3.5 2.1-1.4.6-2.7 1.8-4.1 1.8-1.2 0-2.4-1.2-3.6-1.9 1.3-.6 2.6-1.2 4.2-2z"/><path d="m119.2 97.2c-1.6-1.1-2.7-1.9-3.9-2.7 1.4-.6 2.8-1.5 4.2-1.5 1.1-.1 2.3.9 3.5 1.4-1.1.8-2.3 1.7-3.8 2.8z"/><path d="m107.6 105.7c-1.4-.9-2.5-1.7-3.6-2.5 1.4-.6 2.9-1.5 4.3-1.5 1.1 0 2.2 1.1 3.4 1.8-1.2.6-2.5 1.3-4.1 2.2z"/><path d="m119.1 105.7c-1.4-.9-2.5-1.6-3.7-2.3 1.3-.6 2.6-1.6 3.9-1.6s2.5 1.1 3.8 1.7c-1.3.6-2.5 1.3-4 2.2z"/><path d="m104.5 110.7c1.8 0 3.6-.2 5.4.1.6.1 1.1 1.3 1.6 2.1-1.7.4-3.4 1-5.1 1-.9 0-1.9-1.1-2.8-1.7.3-.5.6-1 .9-1.5z"/><path d="m107.8 92.2c1.5.9 2.7 1.6 3.9 2.3-1.4.6-2.7 1.7-4.1 1.7-1.2 0-2.4-1.1-3.6-1.7 1.2-.8 2.4-1.5 3.8-2.3z"/><path d="m119.9 109.9c1.2 1 2.2 1.7 3.1 2.5-1.4.6-2.9 1.5-4.3 1.5-1.1 0-2.2-1.1-3.3-1.8 1.4-.7 2.8-1.3 4.5-2.2z"/><path d="m69.6 73.1c0-1.6 0-3 0-4.7h4.6v4.7c-1.5 0-2.8 0-4.6 0z" fill="#fff"/><path d="m84.4 68.1h4.4v5c-1.4 0-2.8 0-4.4 0 0-1.6 0-3 0-5z" fill="#fff"/><path d="m69.6 87.5h4.4v5.1c-1.5 0-2.8 0-4.4 0 0-1.6 0-3.1 0-5.1z" fill="#fff"/><path d="m88.8 92.7c-1.6 0-2.8 0-4.4 0 0-1.7 0-3.1 0-5.2 1.3-.1 2.7-.1 4.4-.2z" fill="#fff"/></svg>