<svg enable-background="new 0 0 158.5 158.5" viewBox="0 0 158.5 158.5" xmlns="http://www.w3.org/2000/svg"><path d="m12 155c-4.7 0-8.5-3.8-8.5-8.5v-134.5c0-4.7 3.8-8.5 8.5-8.5h134.5c4.7 0 8.5 3.8 8.5 8.5v134.5c0 4.7-3.8 8.5-8.5 8.5z" fill="#81b031"/><path d="m146.5 7c2.8 0 5 2.2 5 5v134.5c0 2.8-2.2 5-5 5h-134.5c-2.8 0-5-2.2-5-5v-134.5c0-2.8 2.2-5 5-5zm0-7h-134.5c-6.6 0-12 5.4-12 12v134.5c0 6.6 5.4 12 12 12h134.5c6.6 0 12-5.4 12-12v-134.5c0-6.6-5.4-12-12-12z" fill="#060704"/><path d="m77.4 37.7c.3 8.9 5.7 16.9 13.8 20.1 1.9.8 3.1.3 3.8-1.6 3.9-10.4-2.1-23.4-12.6-27-1.7-.6-2.9-.2-3.4 1.6-.7 2.2-1.1 4.6-1.6 6.9zm28.9 21c10.5 0 19.8-7.5 21.8-17.7.5-2.5-.4-3.9-3-4.3-10.1-1.8-20.7 4.5-24.2 14.5-2.1 5.8-1 7.5 5.4 7.5zm-28.1 9.6c2.8-.1 5.4-.9 7.7-2.6 1.8-1.3 1.9-2.6.5-4.2-4.4-5-12.5-5.7-17.7-1.5-1.7 1.3-1.8 2.4-.3 4 2.6 2.8 5.9 4.2 9.8 4.3z" fill="#fff"/><path d="m73.4 129.6c-.6-1-1.5-1.9-1.6-3-1.6-13.5-3.2-27-4.7-40.5-.3-2.6.5-3.5 3.2-3.5h48.2 2.5c0-1.8 0-3.6 0-5.6-.7 0-1.5 0-2.3 0-15.7 0-31.3 0-47 0-.4 0-.8 0-1.2 0-2.5 0-3.6-.8-3.6-2.4s1.1-2.3 3.5-2.3h13 7.7c.3-2.9.6-5.6.8-8.4.2-2.4.8-3.4 2.4-3.4s2.5 1.2 2.4 3.6c-.1 2.6-.4 5.3-.7 8.2h2.1 24.3c2.9 0 3.5.6 3.5 3.5v8.8c0 2.1-.8 2.9-2.9 2.9-1.7 0-3.4 0-5.3 0-.6 5.2-1.2 10.3-1.8 15.4-.9 8.1-1.8 16.2-2.8 24.3-.1.9-1 1.7-1.6 2.6-12.6-.2-25.4-.2-38.1-.2zm35.3-4.9c1.4-12.5 2.8-24.8 4.3-37.2-13.7 0-27.2 0-40.9 0 1.4 12.5 2.8 24.9 4.2 37.2z"/><path d="m30.3 51.9c.7-2.4 1.1-4.9 2-7.2 2.3-6.2 6.3-11 11.8-14.6 1.5-1 2.7-1.1 4.2-.1 8.5 5.7 13.4 13.6 13.8 23.8s.1 20.4.1 30.6c0 2-.8 2.8-3 2.9-3.4 0-6.9 0-10.6 0 0 2.3-.1 4.6 0 6.8 0 .4.6.9 1 1.2 3.1 1.6 4.5 4.2 4.5 7.6 0 5.6-.2 11.2 0 16.7.2 4.9-1.7 8.3-6.4 9.9-1.1 0-2.1 0-3.2 0-4.7-1.6-6.6-5-6.4-9.9.2-5.6.1-11.1 0-16.7 0-3.4 1.5-6 4.5-7.6.4-.2 1-.8 1-1.2.1-2.2 0-4.5 0-6.8-3.6 0-6.9-.1-10.2 0-1.5 0-2.6-.3-3.4-1.6.3-11.2.3-22.5.3-33.8zm16-17.5c-6.8 4.8-10.7 11.2-11 19.3-.4 9.5-.1 19-.1 28.5 0 .1.1.2.2.3h8.5c0-1.8 0-3.4 0-5.1 0-1.5.7-2.6 2.3-2.7 1.5-.1 2.4 1 2.5 2.7v5.1h8.7c0-9.8.3-19.4-.1-29-.3-8-4.3-14.4-11-19.1zm3.2 77.8c0-3.1 0-6.1 0-9.2 0-2.3-1.3-3.8-3.2-3.7-1.9 0-3.1 1.4-3.1 3.6v18.3c0 2.2 1.4 3.6 3.2 3.5 1.9 0 3.1-1.4 3.1-3.6 0-2.9 0-5.9 0-8.9z"/><path d="m77.4 37.7c.5-2.3.9-4.7 1.5-6.9.5-1.8 1.7-2.2 3.4-1.6 10.5 3.6 16.5 16.6 12.6 27-.7 1.9-1.8 2.3-3.8 1.6-8-3.2-13.4-11.2-13.7-20.1z"/><path d="m106.3 58.7c-6.3 0-7.5-1.7-5.4-7.6 3.5-10 14.1-16.3 24.2-14.5 2.6.5 3.5 1.8 3 4.3-2.1 10.3-11.4 17.8-21.8 17.8zm-1.1-4.9c7.7 1 16.6-5.2 17.6-12.5-7.7-1-16.5 5.2-17.6 12.5z"/><path d="m78.2 68.3c-3.9-.1-7.2-1.5-9.8-4.3-1.4-1.6-1.3-2.7.3-4 5.2-4.2 13.3-3.5 17.7 1.5 1.4 1.6 1.3 2.9-.5 4.2-2.3 1.6-4.9 2.4-7.7 2.6z"/><g fill="#fff"><path d="m108.7 124.7c-10.8 0-21.5 0-32.4 0-1.4-12.4-2.8-24.7-4.2-37.2h40.9c-1.4 12.4-2.8 24.7-4.3 37.2z"/><path d="m46.3 34.4c6.7 4.8 10.7 11.1 11 19.1.4 9.6.1 19.2.1 29-2.9 0-5.7 0-8.7 0 0-1.7 0-3.4 0-5.1 0-1.8-1-2.8-2.5-2.7-1.6.1-2.3 1.2-2.3 2.7v5.1c-2.9 0-5.7 0-8.5 0-.1-.1-.2-.2-.2-.3 0-9.5-.3-19 .1-28.5.3-8.1 4.2-14.5 11-19.3z"/><path d="m49.5 112.2v9c0 2.2-1.3 3.6-3.1 3.6-1.9 0-3.2-1.4-3.2-3.5 0-6.1 0-12.2 0-18.3 0-2.2 1.3-3.6 3.1-3.6 1.9 0 3.2 1.4 3.2 3.7z"/><path d="m105.2 53.8c1.1-7.2 9.9-13.5 17.6-12.5-1 7.2-9.9 13.5-17.6 12.5z"/></g></svg>