<svg enable-background="new 0 0 158.5 158.5" viewBox="0 0 158.5 158.5" xmlns="http://www.w3.org/2000/svg"><path d="m12 155c-4.7 0-8.5-3.8-8.5-8.5v-134.5c0-4.7 3.8-8.5 8.5-8.5h134.5c4.7 0 8.5 3.8 8.5 8.5v134.5c0 4.7-3.8 8.5-8.5 8.5z" fill="#81b031"/><path d="m146.5 7c2.8 0 5 2.2 5 5v134.5c0 2.8-2.2 5-5 5h-134.5c-2.8 0-5-2.2-5-5v-134.5c0-2.8 2.2-5 5-5zm0-7h-134.5c-6.6 0-12 5.4-12 12v134.5c0 6.6 5.4 12 12 12h134.5c6.6 0 12-5.4 12-12v-134.5c0-6.6-5.4-12-12-12z" fill="#060704"/><path d="m79.9 49.9c6.2-8.9 12.2-17.3 18-25.7 1.5-2.1 3.2-3.6 5.5-1.9 2.6 1.8 1.2 3.9-.2 5.9-5.7 8.1-11.3 16.3-17.1 24.2-1.9 2.6-1.7 4.3.1 6.8 16.5 23.3 32.9 46.7 49.2 70.2 1 1.4 1.7 3.9 1.2 5.3-.4 1-3.2 1.6-4.9 1.6-34.6.1-69.3.1-103.9 0-1.7 0-4.2-.6-4.8-1.8s.2-3.6 1.2-5c16.3-23.5 32.7-46.9 49.2-70.2 1.9-2.7 2.1-4.4.1-7.1-5.9-8-11.4-16.2-17.1-24.2-1.4-2-2.5-4.2.1-5.8 2.2-1.4 4-.3 5.3 1.9.5.9 1.1 1.7 1.7 2.5 5.3 7.6 10.7 15.2 16.4 23.3zm0 11.6c-16 22.9-31.7 45.2-47.7 68.1h95.4c-16-22.9-31.7-45.3-47.7-68.1z"/><path d="m79.9 61.5c16 22.9 31.7 45.3 47.7 68.1-32 0-63.4 0-95.4 0 16-22.9 31.7-45.3 47.7-68.1zm0 20.7c.9 1.3 1.5 1.9 2 2.7 9.1 12.8 18.1 25.5 27.2 38.3 1.3 1.9 2.8 3.5 5.2 1.7 2.3-1.7 1.5-3.7.2-5.6-10.5-14.7-20.9-29.4-31.4-44.1-2-2.9-4.3-2.9-6.3-.1-10.5 14.8-21 29.6-31.5 44.4-1.4 1.9-1.8 4 .5 5.5s3.7-.1 4.9-1.8c3.6-5.1 7.3-10.2 10.9-15.3 6-8.4 12-16.8 18.3-25.7z" fill="#fff"/><path d="m79.9 82.2c-6.3 8.8-12.3 17.2-18.3 25.7-3.6 5.1-7.2 10.2-10.9 15.3-1.2 1.7-2.6 3.3-4.9 1.8-2.4-1.5-1.9-3.6-.5-5.5 10.5-14.8 21-29.6 31.5-44.4 2-2.8 4.3-2.8 6.3.1 10.5 14.7 20.9 29.4 31.3 44.1 1.3 1.9 2.1 3.9-.2 5.6-2.4 1.8-3.9.1-5.2-1.7-9.1-12.8-18.1-25.5-27.2-38.3-.4-.7-1-1.4-1.9-2.7z"/></svg>