<svg enable-background="new 0 0 158.5 158.5" viewBox="0 0 158.5 158.5" xmlns="http://www.w3.org/2000/svg"><path d="m12 155c-4.7 0-8.5-3.8-8.5-8.5v-134.5c0-4.7 3.8-8.5 8.5-8.5h134.5c4.7 0 8.5 3.8 8.5 8.5v134.5c0 4.7-3.8 8.5-8.5 8.5z" fill="#81b031"/><path d="m146.5 7c2.8 0 5 2.2 5 5v134.5c0 2.8-2.2 5-5 5h-134.5c-2.8 0-5-2.2-5-5v-134.5c0-2.8 2.2-5 5-5zm0-7h-134.5c-6.6 0-12 5.4-12 12v134.5c0 6.6 5.4 12 12 12h134.5c6.6 0 12-5.4 12-12v-134.5c0-6.6-5.4-12-12-12z" fill="#060704"/><path d="m113.6 101.9v3.9 24.9c0 2.3-.8 3.2-3.1 3.2-7-.1-6.4.5-6.4-6.2 0-8.5 0-16.9 0-25.8-2.2 0-4.3 0-6.4 0-3.3 0-6.5 0-9.8 0s-3.6-.4-3.3-3.7c-2.3 0-4.7 0-7.4 0v2.6 29.5c0 3.1-.4 3.5-3.6 3.5-7.5 0-6.7.6-6.7-6.6 0-7.1 0-14.1 0-21.4-5.1 0-10 0-15.2 0 0 .8-.1 1.6-.1 2.5 0 7.5-.1 15 0 22.5 0 2.3-.8 3.2-3.1 3.2-5.8 0-5.8 0-5.8-5.9 0-7.2 0-14.5 0-21.7 0-.1-.1-.3-.3-.7-4.4 0-8.9 0-13.5 0-3.8 0-4.4-1.1-2.5-4.4 2.1-3.7 4.2-7.3 6.3-11 .1-.1 0-.3.1-.5-.1-.1-.2-.3-.4-.2-4.8.3-4.8-1.9-2.8-5.1 2.5-4 4.7-8.1 7.2-12.4-.5-.1-.7-.2-1-.2-2.9-.3-3.4-1.3-2-3.8 2.5-4.4 5-8.7 7.5-13.1 1.3-2.2 2.5-4.4 3.8-6.5 1.3-2.2 2.8-2.2 4.2.1 2.4 4.1 4.8 8.3 7.4 12.8 1.2-2.1 2.2-3.8 3.4-5.9-1.2-.1-1.9-.1-2.7-.1-2.4-.1-3.2-1.4-2-3.5 2.8-5 5.7-10 8.6-15 2-3.5 4-6.9 6-10.3 1.4-2.4 2.9-2.4 4.3 0 4.8 8.2 9.5 16.5 14.2 24.7 1.7 3 1.1 4.1-2.4 4.2-.6 0-1.1.1-2 .1 3.1 5.3 6 10.4 9.2 16.1 1.6-2.7 2.9-5.1 4.3-7.5-5.4-.8-5.5-1.1-2.9-5.7 3.9-6.8 7.8-13.5 11.7-20.3 1.6-2.8 3.1-2.8 4.7 0 4.1 7.1 8.2 14.2 12.3 21.3 1.9 3.3 1.4 4.2-2.5 4.3-.2 0-.5.1-1 .2 1.9 3.3 3.7 6.4 5.5 9.5 1.3 2.2 2.5 4.4 3.8 6.6 1.4 2.4.7 3.6-2.1 3.7-.8 0-1.6 0-2.9 0 1.2 2.2 2.3 4 3.4 5.9 1.7 2.9 3.3 5.8 5 8.7 1.4 2.4.6 3.7-2.2 3.7-4.6 0-9.3 0-13.9 0-1-.2-1.8-.2-2.9-.2zm-59.6-28.2h2.9c4 0 4.6 1 2.6 4.4-3 5.2-6 10.4-9.1 15.8.6.1 1 .2 1.4.2h34.1c2.3 0 5-4.9 3.9-6.9-1.8-3.3-3.8-6.5-5.6-9.7-1.4-2.5-.7-3.7 2.1-3.8h3.7c-.5-1.1-.9-1.8-1.3-2.4-3.1-5.4-6.2-10.7-9.2-16.1-1.5-2.6-.8-3.8 2.1-3.9.7 0 1.4-.1 2.4-.2-4-7-7.9-13.7-12-20.7-4.1 7.1-8 13.8-12 20.8.7.1 1 .1 1.3.1 4.6.1 5 .9 2.8 4.8-3.3 5.7-6.5 11.4-10.1 17.6zm70.6 6.1c-3.1-5.3-5.9-10.3-8.8-15.3-2.2-3.8-1.8-4.5 2.6-4.8.1 0 .2-.2.5-.4-3.3-5.7-6.6-11.4-10.1-17.5-3.5 6.1-6.9 11.9-10.3 17.8.6.1.8.2 1.1.2 3.8.2 4.3 1.1 2.4 4.5-2.6 4.5-5.2 9-7.8 13.5-.3.6-.6 1.2-1 2h3.1c2.3.1 3 1.3 2 3.4-.4.7-.8 1.4-1.2 2.1-2.4 4.1-4.7 8.3-7.2 12.5h37.8c-.4-.8-.7-1.3-1-1.7-2.4-4.2-4.9-8.4-7.3-12.7-1.3-2.3-.5-3.5 2.1-3.6.9-.1 1.8 0 3.1 0zm-61.3 21.9c-1.4-3.6-1.4-3.6-4.6-3.6-3.5 0-7 0-10.5 0-3.2 0-3.9-1.2-2.2-4.1 2.5-4.4 5.1-8.9 7.7-13.3.5-.9 1-1.8 1.7-3-1.6 0-2.6 0-3.7 0-2.8-.1-3.5-1.3-2.2-3.7 1.4-2.5 2.9-4.9 4.2-7.4.3-.6.5-1.6.2-2.2-2.1-3.8-4.3-7.6-6.7-11.7-3 5.2-5.8 10.1-8.7 15.1 4.2.7 4.6 1.4 2.6 4.9-1.6 2.7-3.2 5.5-4.8 8.2-.9 1.5-1.7 3-2.6 4.7.8 0 1.2.1 1.6.1 3.3.1 3.9 1.2 2.3 4.1-.4.6-.7 1.3-1.1 1.9-1.9 3.3-3.8 6.6-5.8 10.1 11.1-.1 21.7-.1 32.6-.1zm7.6 27.9c.2.2.5.4.7.7.6-.6 1.6-1.1 1.6-1.7.1-10 .1-20.1.1-30.2-.9 0-1.6 0-2.4 0zm38.8-13.5c0-4.1 0-8.3 0-12.4 0-.6-.5-1.2-.8-1.7-.3.6-.8 1.1-.8 1.7-.1 8.2-.1 16.4 0 24.6 0 .6.5 1.1.8 1.7.3-.5.8-1.1.8-1.6 0-4.1 0-8.2 0-12.3zm-62.9 13.8h.6c0-8 0-16.1 0-24.1-.2 0-.4 0-.6 0z"/><g fill="#fff"><path d="m54 73.7c3.6-6.2 6.9-11.9 10.1-17.6 2.2-3.9 1.8-4.6-2.8-4.8-.3 0-.6-.1-1.3-.1 4-6.9 7.8-13.6 12-20.8 4.1 7 7.9 13.7 12 20.7-1 .1-1.7.1-2.4.2-2.9.1-3.6 1.3-2.1 3.9 3.1 5.4 6.2 10.7 9.2 16.1.4.7.7 1.4 1.3 2.4-1.5 0-2.6 0-3.7 0-2.8.1-3.5 1.3-2.1 3.8 1.8 3.3 3.7 6.5 5.6 9.7 1.2 2-1.5 6.9-3.9 6.9-11.4 0-22.8 0-34.1 0-.4 0-.8-.1-1.4-.2 3.1-5.4 6.1-10.6 9.1-15.8 2-3.5 1.4-4.4-2.6-4.4-.8 0-1.6 0-2.9 0z"/><path d="m124.6 79.8c-1.3 0-2.1 0-3 0-2.6.1-3.4 1.3-2.1 3.6 2.4 4.2 4.9 8.5 7.3 12.7.3.5.5 1 1 1.7-12.7 0-25.1 0-37.8 0 2.5-4.3 4.8-8.4 7.2-12.5.4-.7.8-1.4 1.2-2.1 1-2.1.3-3.3-2-3.4-.9 0-1.8 0-3.1 0 .4-.8.6-1.5 1-2 2.6-4.5 5.2-9 7.8-13.5 1.9-3.3 1.4-4.3-2.4-4.5-.2 0-.5-.1-1.1-.2 3.4-5.9 6.7-11.7 10.3-17.8 3.5 6.1 6.8 11.8 10.1 17.5-.3.2-.4.4-.5.4-4.4.3-4.8 1-2.6 4.8 2.8 5 5.6 9.9 8.7 15.3z"/><path d="m63.3 101.7c-10.9 0-21.5 0-32.6 0 2-3.5 3.9-6.8 5.8-10.1.4-.6.7-1.3 1.1-1.9 1.6-2.9 1-4-2.3-4.1-.4 0-.8 0-1.6-.1 1-1.7 1.8-3.2 2.6-4.7 1.6-2.8 3.2-5.5 4.8-8.2 2-3.5 1.6-4.2-2.6-4.9 2.9-5 5.7-9.9 8.7-15.1 2.4 4.1 4.6 7.9 6.7 11.7.3.5.1 1.6-.2 2.2-1.3 2.5-2.8 4.9-4.2 7.4-1.4 2.4-.6 3.6 2.2 3.7h3.7c-.7 1.3-1.2 2.1-1.7 3-2.5 4.4-5.1 8.9-7.7 13.3-1.6 2.9-1 4.1 2.2 4.1h10.5c3.2.1 3.2.1 4.6 3.7z"/><path d="m70.9 129.6c0-10.4 0-20.7 0-31.3h2.4c0 10.2 0 20.2-.1 30.2 0 .6-1 1.2-1.6 1.7-.2-.1-.4-.4-.7-.6z"/><path d="m109.7 116.1v12.2c0 .6-.5 1.1-.8 1.6-.3-.6-.8-1.1-.8-1.7-.1-8.2-.1-16.4 0-24.6 0-.6.6-1.1.8-1.7.3.6.8 1.2.8 1.7z"/><path d="m46.8 129.9c0-8 0-16.1 0-24.1h.6v24.1c-.3 0-.5 0-.6 0z"/></g></svg>