<svg enable-background="new 0 0 30 30" viewBox="0 0 30 30" xmlns="http://www.w3.org/2000/svg"><path d="m15 29.3c-7.9 0-14.3-6.4-14.3-14.3s6.4-14.3 14.3-14.3 14.3 6.4 14.3 14.3-6.4 14.3-14.3 14.3zm0-16.7c-1.3 0-2.7 0-4 0-.2 0-.4 0-.6.1-.9.2-1.4.9-1.4 1.9v5.6c0 .2 0 .4.1.6.2.8.9 1.3 1.9 1.3h8.1c1.2 0 1.9-.8 1.9-1.9 0-1.9 0-3.8 0-5.7 0-.2 0-.4-.1-.6-.2-.8-.9-1.3-1.8-1.3-1.4 0-2.7 0-4.1 0zm4.8-1.2c0-.3 0-.6-.1-.9-.2-1.1-.6-2-1.5-2.8-.6-.5-1.3-.9-2.1-1-1.2-.2-2.4-.1-3.5.5-1.5.8-2.1 2.1-2.3 3.7v.5h1.5c.1-1.9 1.6-3.2 3.1-3.2.9 0 1.7.2 2.4.8s1.1 1.5 1.2 2.5c.3-.1.8-.1 1.3-.1z" stroke="#c7c6c6" stroke-miterlimit="10" stroke-width=".5"/><path d="m15 12.6h4.1c.9 0 1.6.5 1.8 1.3.1.2.1.4.1.6v5.7c0 1.2-.8 1.9-1.9 1.9-2.7 0-5.4 0-8.1 0-1 0-1.7-.5-1.9-1.3 0-.2-.1-.4-.1-.6 0-1.9 0-3.8 0-5.6 0-1 .5-1.6 1.3-1.9.2-.1.4-.1.6-.1zm-.7 5.8v.7c0 .2.1.4.3.6.5.3 1.1 0 1.1-.6 0-.4 0-.9 0-1.3 0-.1.1-.3.2-.3.6-.5.7-1.4.2-2s-1.4-.6-2-.1-.6 1.4-.1 1.9c.3.3.4.6.3 1 0-.1 0 0 0 .1z" fill="#fff"/><path d="m19.8 11.4c-.5 0-1 0-1.5 0 0-1-.4-1.8-1.2-2.5-.7-.6-1.5-.8-2.4-.8-1.5.1-3 1.4-3.1 3.2-.5 0-1 0-1.5 0 0-.2 0-.3 0-.5.2-1.6.8-2.9 2.3-3.7 1.1-.6 2.3-.7 3.5-.5.8.2 1.5.5 2.1 1 .8.7 1.3 1.7 1.5 2.8.3.4.3.7.3 1z" fill="#fff"/><path d="m14.3 18.4c0-.1 0-.1 0-.2 0-.4 0-.7-.3-1-.6-.5-.5-1.4.1-1.9s1.5-.5 2 .1.5 1.5-.2 2c-.1.1-.2.2-.2.3v1.3c0 .6-.6.9-1.1.6-.2-.1-.3-.3-.3-.6 0-.2 0-.4 0-.6z"/></svg>