<?xml version="1.0" encoding="utf-8"?>
<!-- Generator: Adobe Illustrator 25.2.3, SVG Export Plug-In . SVG Version: 6.00 Build 0)  -->
<svg version="1.1" id="Layer_1" xmlns="http://www.w3.org/2000/svg" xmlns:xlink="http://www.w3.org/1999/xlink" x="0px" y="0px"
	 viewBox="0 0 100 100" style="enable-background:new 0 0 100 100;" xml:space="preserve">
<g id="_x37_O2N2T_1_">
	<g>
		<path d="M3.4,84.1c0-25.1,0-50.2,0-75.3C4.3,6,6.4,4.4,9.2,3.4c27.4,0,54.9,0,82.3,0c2.9,1,4.7,2.9,5.4,5.8c0,27.3,0,54.6,0,81.9
			c-0.7,2.9-2.5,4.9-5.4,5.8c-24.9,0-49.9,0-74.8,0c-2.6-2.6-5.1-5.2-7.7-7.7C7.1,87.5,5.2,85.8,3.4,84.1z M81.6,10.5
			c0,1,0,1.8,0,2.5c0,6.4,0,12.9,0,19.3c0,4-2.1,6.1-6.2,6.1c-11.8,0-23.6,0-35.3,0c-4,0-6-2-6-6c0-6.6-0.1-13.2,0-19.7
			c0-1.9-0.6-2.3-2.4-2.3c-5.6,0.1-11.2,0-16.8,0c-3.9,0-4.2,0.4-4.2,4.3c0,19.4,0.2,38.8-0.1,58.2c-0.1,5.3,1.3,9.1,5.2,12.8
			c3.3,3.1,6.3,4.9,10.9,4.3c1.6-0.2,2.1-0.6,2.1-2.2c-0.1-10.3,0-20.5,0-30.8c0-3.1,0.6-3.7,3.8-3.7c15.1,0,30.2,0,45.3,0
			c3.1,0,3.8,0.7,3.8,3.7c0,10.2,0,20.4,0,30.6c0,0.7,0.1,1.5,0.1,2.3c1.3,0,2.3,0,3.4,0c4.3,0,4.5-0.2,4.5-4.4c0-23.5,0-47,0-70.5
			c0-0.8,0-1.5,0-2.3c-0.1-1.5-0.9-2.3-2.4-2.3C85.4,10.4,83.6,10.5,81.6,10.5z M34.9,89.8c13.9,0,27.5,0,41.1,0
			c0-10.3,0-20.4,0-30.7c-0.9,0-1.6,0-2.2,0c-12.2,0-24.4,0-36.6,0c-1.9,0-2.5,0.4-2.5,2.4c0.1,8.7,0,17.5,0.1,26.2
			C34.8,88.4,34.9,89,34.9,89.8z M40.4,10.6c0,6.6,0,13.1,0,19.5c0,1.6,0.9,2.1,2.4,2.1c9.7,0.1,19.4,0.2,29.1,0.3
			c2.7,0,3.1-0.4,3.1-3.2c0-5.6,0-11.2,0-16.8c0-0.6-0.1-1.2-0.2-1.9C63.4,10.6,52,10.6,40.4,10.6z"/>
		<path d="M56.2,71.2c-3.6,0-7.2,0-10.8,0c-1.6,0-3-0.3-3.1-2.3c0-1.9,1.3-2.3,3-2.3c7.3,0,14.7,0,22,0c1.6,0,3,0.3,3.1,2.3
			c0.1,1.6-1,2.3-3.2,2.3C63.5,71.2,59.8,71.2,56.2,71.2z"/>
		<path d="M56.2,82.9c-3.7,0-7.5,0-11.2,0c-1.5,0-2.7-0.4-2.7-2.1c-0.1-1.8,1.1-2.4,2.7-2.4c7.5,0,15.1,0,22.6,0
			c1.6,0,2.8,0.6,2.7,2.4c-0.1,1.7-1.2,2.2-2.7,2.1C63.8,82.9,60,82.9,56.2,82.9z"/>
	</g>
</g>
</svg>
