<svg enable-background="new 0 0 1665.6 355.6" viewBox="0 0 1665.6 355.6" xmlns="http://www.w3.org/2000/svg"><path d="m0 0h1665.6v355.6h-1665.6z" fill="#88d5f9"/><path d="m831.5 258.9c0 .8-24.5 0-24.5 0l-3.1-7.7-16.9 4-3.8 9.1v13.1h-7.7v-30l-5.4-8.5h-2.5l-4.6 8.8v12.5h-3.3v4h-5.4v-15.2h-3.3v-21h-14.6v20.8h-4.2v19h-2.9v-2.9h-5.9v-5.8h-15.3v-6.4l-2.6-2.6h-8.9l-2.7 2.7v7.9h-5.2v-4.4h-8.4v4.2h-3.3v2.3h-3.5l-3.5-10.1h-23v9.1h-13.2v16.5h-8.8v-11.1l-4.6-4-3.6-.6-1.3 2.5s-3.5 1.5-3.5 2.1 0 4 0 4h-2.5v-12.5l-2.9-2.5h-5.6v5.8h-8.6v6.1h-2.3v-5.8h-5v4.4h-12.7v4.8h-11.7v-12.3h-12.3v-21.2l-1.9 8.6v15.2h-3.3v-18.6l-3.3-5h-3.8l-2.9 5.2v35l-8.4-13.3-19.6-6.9-1.2 6.5-3.3 11.1-5.8-5.2v-18.6h-6.9v8.8h-7.7v3.5s-18.4-1.1-18.6 17.1h-19.4v-16.7h-7.5v-1.9h-9.6v-8.1h-1.9v-14.2l-1.7 14.2h-1.9l-1.9-15.2v28.8h-8.2v-5.8h-3.3v-41.1s-9-5.8-17.3 0v62.3s-9 2.5-9 0 0-37.1 0-37.1l-4.4-6.9-5.9 7.7v16.1l-3.6.2v-4.2l-15.5.4v12.1l-3.5 1.7-8.4-4.8h-8.2l-6-6.1v6.6h-3.4v-5.2h-8.4v-5.4s-8.1-1.4-9.6 4v9.2l-8.8-8.8-16.3 11.3s1.3-11.3 0-11.3-10.6 0-10.6 0 .4-8.1 0-8.1-26.1 0-26.1 0v7.5h-5.8l-3.5-3.6h-6.3l-2.8 2.8h-26v3.9h-2.9v-5.2l-4.7-4.7h-15.3v11.6l-8.9 8.9v-27.2l-7.3-7.4-7.4 7.4v18.9h-7.6v-16.1h-2.7v-22.5h-16.9v22.5h-3.1v19.2l-5.6-1.5-7.2-7.2h-10.2v-8.7h-14.9v11l-11.5 5.6h-20.4l-4.5-4.5h-13.7l-4.5 4.6v36.3h-11.1v-50.2h-8.5v13.3h-8v70h831.5z" fill="#7f7f7f"/><path d="m1665.7 258.1c0 .8-24.7 0-24.7 0l-3.1-7.7-17 4-3.9 9.1v13.1h-7.7v-30l-5.4-8.5h-2.5l-4.6 8.8v12.5h-3.3v4h-5.4v-15.2h-3.3v-21.1h-14.7v20.8h-4.3v19h-2.9v-2.9h-6v-5.8h-15.4v-6.4l-2.7-2.6h-8.9l-2.7 2.7v8h-5.2v-4.4h-8.5v4.2h-3.3v2.3h-3.5l-3.5-10.1h-23.2v9.1h-13.3v16.5h-8.9v-11.1l-4.6-4-3.7-.6-1.4 2.5s-3.5 1.5-3.5 2.1 0 4 0 4h-2.5v-12.5l-2.9-2.5h-5.6v5.8h-8.7v6.1h-2.3v-5.8h-5v4.4h-12.7v4.8h-11.8v-12.3h-12.4v-21.3l-1.9 8.6v15.3h-3.3v-18.6l-3.3-5h-3.9l-2.9 5.2v35l-8.5-13.3-19.7-6.9-1.2 6.5-3.3 11.1-5.8-5.2v-18.7h-7v8.8h-7.7v3.5s-18.5-1.1-18.7 17.1h-19.5v-16.7h-7.5v-1.8h-9.7v-8.1h-1.9v-14.2l-1.7 14.2h-1.9l-1.9-15.2v28.8h-8.3v-5.8h-3.3v-41.1s-9.1-5.8-17.4 0v62.3s-9.1 2.5-9.1 0 0-37.1 0-37.1l-4.4-6.9-6 7.7v16.1l-3.7.2v-4.2l-15.6.4v12.1l-3.5 1.7-8.5-4.8h-8.3l-6.1-6.1v6.6h-3.4v-5.2h-8.5v-5.4s-8.1-1.4-9.7 4v9.2l-8.9-8.8-16.4 11.1s1.4-11.3 0-11.3-10.6 0-10.6 0 .4-8.1 0-8.1-26.3 0-26.3 0v7.5h-5.8l-3.7-3.6h-6.4l-2.8 2.8h-26.2v3.9h-2.9v-5.2l-4.7-4.7h-15.3v11.6l-9 8.9v-27.2l-7.4-7.4-7.5 7.4v18.7h-7.6v-16.1h-2.7v-22.5h-17v22.5h-3.1v19.2l-5.6-1.5-7.2-7.2h-10.3v-8.8h-15v11l-11.6 5.6h-20.6l-4.5-4.5h-13.5l-4.6 4.6v36.3h-11.1v-50.2h-8.5v13.3h-8.1v70h837z" fill="#7f7f7f"/><path d="m0 270.3c0 .8 24.6 0 24.6 0l3.1-7.7 16.9 4 3.8 9.1v13.1h7.7v-30l5.4-8.5h2.5l4.6 8.8v12.5h3.3v4h5.4v-15.2h3.3v-21.1h14.6v20.8h4.2v19h2.9v-2.9h6v-5.8h15.4v-6.4l2.6-2.6h8.9l2.7 2.7v8h5.2v-4.4h8.5v4.2h3.3v2.3h3.5l3.5-10.1h23.3v9.1h13.3v16.5h8.8v-11.1l4.6-4 3.7-.6 1.4 2.5s3.5 1.5 3.5 2.1 0 4 0 4h2.5v-12.5l2.9-2.5h5.6v5.8h8.7v6.1h2.3v-5.8h5v4.4h12.7v4.8h11.7v-12.3h12.1v-21.3l1.9 8.6v15.2h3.3v-18.6l3.3-5h3.8l2.9 5.2v35l8.5-13.3 19.6-6.9 1.2 6.5 3.3 11.1 5.8-5.2v-18.6h6.9v8.8h7.7v3.5s18.5-1.1 18.7 17.1h19.4v-16.7h7.5v-1.9h9.6v-8.1h1.9v-14.2l1.7 14.2h1.9l1.9-15.2v28.8h8.3v-5.8h3.3v-41.1s9-5.8 17.3 0v62.3s9 2.5 9 0 0-37.1 0-37.1l4.4-6.9 6 7.7v16.1l3.7.2v-4.2l15.6.4v12.1l3.5 1.7 8.5-4.8h8.3l6.1-6v6.6h3.4v-5.2h8.5v-5.4s8.1-1.4 9.6 4v9.2l8.8-8.8 16.4 11.1s-1.4-11.3 0-11.3 10.6 0 10.6 0-.4-8.1 0-8.1 26.2 0 26.2 0v7.5h5.8l3.7-3.6h6.3l2.8 2.8h26.1v3.9h2.9v-5.2l4.7-4.7h15.3v11.6l8.9 8.9v-27.2l7.4-7.4 7.5 7.5v18.7h7.6v-16.1h2.7v-22.5h16.9v22.5h3.1v19.2l5.6-1.5 7.2-7.2h10.3v-8.8h14.9v11l11.5 5.6h20.5l4.5-4.5h13.7l4.6 4.5v36.7h11.1v-50.2h8.5v13.3h8.1v70h-834.5z" fill="#564242"/><path d="m831.5 270.3c0 .8 24.6 0 24.6 0l3.1-7.7 16.9 4 3.8 9.1v13.1h7.7v-30l5.4-8.5h2.5l4.6 8.8v12.5h3.3v4h5.4v-15.2h3.3v-21.1h14.6v20.8h4.2v19h2.9v-2.9h6v-5.8h15.4v-6.4l2.6-2.6h8.9l2.7 2.7v8h5.2v-4.4h8.5v4.2h3.3v2.3h3.5l3.5-10.1h23.3v9.1h13.3v16.5h8.8v-11.1l4.6-4 3.7-.6 1.4 2.5s3.5 1.5 3.5 2.1 0 4 0 4h2.5v-12.5l2.9-2.5h5.6v5.8h8.7v6.1h2.3v-5.8h5v4.4h12.7v4.8h11.7v-12.3h12.3v-21.3l1.9 8.6v15.2h3.3v-18.6l3.3-5h3.8l2.9 5.2v35l8.5-13.3 19.6-6.9 1.2 6.5 3.3 11.1 5.8-5.2v-18.6h6.9v8.8h7.7v3.5s18.5-1.1 18.7 17.1h19.4v-16.7h7.5v-1.9h9.6v-8.1h1.9v-14.2l1.7 14.2h1.9l1.9-15.2v28.8h8.3v-5.8h3.3v-41.1s9-5.8 17.3 0v62.3s9 2.5 9 0 0-37.1 0-37.1l4.4-6.9 6 7.7v16.1l3.7.2v-4.2l15.6.4v12.1l3.5 1.7 8.5-4.8h8.3l6.1-6v6.6h3.4v-5.2h8.5v-5.4s8.1-1.4 9.6 4v9.2l8.8-8.8 16.4 11.1s-1.4-11.3 0-11.3 10.6 0 10.6 0-.4-8.1 0-8.1 26.2 0 26.2 0v7.5h5.8l3.7-3.6h6.3l2.8 2.8h26.1v3.9h2.9v-5.2l4.7-4.7h15.3v11.6l8.9 8.9v-27.2l7.4-7.4 7.5 7.5v18.7h7.6v-16.1h2.7v-22.5h16.9v22.5h3.1v19.2l5.6-1.5 7.2-7.2h10.3v-8.8h14.9v11l11.5 5.6h20.5l4.5-4.5h13.7l4.6 4.5v36.7h11.1v-50.2h8.5v13.3h8.1v70h-834.7z" fill="#564242"/><path d="m0 296.8 44-22.4s.9-14.7 1.5-14.7 8.8 0 8.8 0l1.8 9.9 25.3-11 50.4 21.2.7-1.2-5.5-3.3 17.2-12.5 18.6 12.3-15.3 12.9 1.1 1 29.4-19.5 30.5 23.8 25.6-24.7 13.7 17.3.4-7.7 3.8.1-.5 10.9 3.7 5-6.3 5.3 1.4 1.9 25.5-15.5s28 26.5 28.3 26.2 11.8-5 11.8-5v-8l6.3-.2v3.2l12.1-5.9 17 7.3 27.8-18.2.1-12.1-1-3.5h13.9l-1.1 3v4.8l24.9-16.6 13.4 25.2-1.5 2.3.4 1 33-14.2v-11.2l-3-.4v-3.5h16.4v3.5l-3 .5.1 6.4 28.2-12.3 49 22.3.5-.9-5.3-4.4 17.1-11.6s18.6 12.6 17.9 12.3-15.5 12.3-15.5 12.3l.8 1 30.5-19.2 29.5 23.2 26.4-25.9 13.5 18.4v-8.7h4.3v12.2l3.6 4.4-5.3 4.8.6 1.1 24.9-14.8 27.9 27.1 19.6-22.9 26.8 14.7 29.8-18.8v-11.2l-1.5-3.5h13.5l-1.1 3.2-.4 5.5 26-18.4 2.2 94.9h-835.2z" fill="#3f0505"/><g fill="#fff"><path d="m26.8 324.2h7.2v7.2h-7.2z"/><path d="m36.7 324.2h7.2v7.2h-7.2z"/><path d="m26.8 334.1h7.2v7.2h-7.2z"/><path d="m36.7 334.1h7.2v7.2h-7.2z"/><path d="m65.4 292.7h6v6.6h-6z"/><path d="m73.6 292.7h6v6.6h-6z"/><path d="m65.4 301.8h6v6.6h-6z"/><path d="m73.6 301.8h6v6.6h-6z"/><path d="m83.2 292.7h6v6.6h-6z"/><path d="m91.4 292.7h6v6.6h-6z"/><path d="m83.2 301.8h6v6.6h-6z"/><path d="m91.4 301.8h6v6.6h-6z"/><path d="m161.1 306.9h4.7v5.2h-4.7z"/><path d="m167.6 306.9h4.7v5.2h-4.7z"/><path d="m161.1 314.1h4.7v5.2h-4.7z"/><path d="m167.6 314.1h4.7v5.2h-4.7z"/><path d="m183.5 306.9h4.7v5.2h-4.7z"/><path d="m190 306.9h4.7v5.2h-4.7z"/><path d="m183.5 314.1h4.7v5.2h-4.7z"/><path d="m190 314.1h4.7v5.2h-4.7z"/><path d="m161.1 327.6h4.7v5.2h-4.7z"/><path d="m167.6 327.6h4.7v5.2h-4.7z"/><path d="m161.1 334.8h4.7v5.2h-4.7z"/><path d="m167.6 334.8h4.7v5.2h-4.7z"/><path d="m183.5 327.6h4.7v5.2h-4.7z"/><path d="m190 327.6h4.7v5.2h-4.7z"/><path d="m183.5 334.8h4.7v5.2h-4.7z"/><path d="m190 334.8h4.7v5.2h-4.7z"/><path d="m225.1 307.8h6v6.6h-6z"/><path d="m233.4 307.8h6v6.6h-6z"/><path d="m225.1 316.9h6v6.6h-6z"/><path d="m233.4 316.9h6v6.6h-6z"/><path d="m267.2 317.2h4.7v5.2h-4.7z"/><path d="m273.7 317.2h4.7v5.2h-4.7z"/><path d="m267.2 324.4h4.7v5.2h-4.7z"/><path d="m273.7 324.4h4.7v5.2h-4.7z"/><path d="m296.5 340.3h4.7v5.2h-4.7z"/><path d="m303 340.3h4.7v5.2h-4.7z"/><path d="m296.5 347.5h4.7v5.2h-4.7z"/><path d="m303 347.5h4.7v5.2h-4.7z"/><path d="m328.9 307.7h4.7v5.2h-4.7z"/><path d="m335.4 307.7h4.7v5.2h-4.7z"/><path d="m328.9 314.8h4.7v5.2h-4.7z"/><path d="m335.4 314.8h4.7v5.2h-4.7z"/><path d="m349.2 332.9h4.7v5.2h-4.7z"/><path d="m355.7 332.9h4.7v5.2h-4.7z"/><path d="m349.2 340.1h4.7v5.2h-4.7z"/><path d="m355.7 340.1h4.7v5.2h-4.7z"/><path d="m384.9 307.7h6.5v7.2h-6.5z"/><path d="m393.8 307.7h6.5v7.2h-6.5z"/><path d="m384.9 317.5h6.5v7.2h-6.5z"/><path d="m393.8 317.5h6.5v7.2h-6.5z"/><path d="m443.2 324.1h6.9v7.6h-6.9z"/><path d="m452.6 324.1h6.9v7.6h-6.9z"/><path d="m443.2 334.6h6.9v7.6h-6.9z"/><path d="m452.6 334.6h6.9v7.6h-6.9z"/><path d="m482.2 293.2h5.9v6.5h-5.9z"/><path d="m490.4 293.2h5.9v6.5h-5.9z"/><path d="m482.2 302.2h5.9v6.5h-5.9z"/><path d="m490.4 302.2h5.9v6.5h-5.9z"/><path d="m499.8 293.2h5.9v6.5h-5.9z"/><path d="m508 293.2h5.9v6.5h-5.9z"/><path d="m499.8 302.2h5.9v6.5h-5.9z"/><path d="m508 302.2h5.9v6.5h-5.9z"/><path d="m538.7 324.9h6v6.6h-6z"/><path d="m546.9 324.9h6v6.6h-6z"/><path d="m538.7 334h6v6.6h-6z"/><path d="m546.9 334h6v6.6h-6z"/><path d="m564.6 324.9h6v6.6h-6z"/><path d="m572.8 324.9h6v6.6h-6z"/><path d="m564.6 334h6v6.6h-6z"/><path d="m572.8 334h6v6.6h-6z"/><path d="m641.8 307.9h6v6.6h-6z"/><path d="m650.1 307.9h6v6.6h-6z"/><path d="m641.8 316.9h6v6.6h-6z"/><path d="m650.1 316.9h6v6.6h-6z"/><path d="m611.2 340.6h6v6.6h-6z"/><path d="m619.5 340.6h6v6.6h-6z"/><path d="m683.2 316.9h4.7v5.2h-4.7z"/><path d="m689.7 316.9h4.7v5.2h-4.7z"/><path d="m683.2 324.1h4.7v5.2h-4.7z"/><path d="m689.7 324.1h4.7v5.2h-4.7z"/><path d="m713.2 340.2h4.7v5.2h-4.7z"/><path d="m719.7 340.2h4.7v5.2h-4.7z"/><path d="m713.2 347.4h4.7v5.2h-4.7z"/><path d="m719.7 347.4h4.7v5.2h-4.7z"/><path d="m744.7 307.6h4.7v5.2h-4.7z"/><path d="m751.1 307.6h4.7v5.2h-4.7z"/><path d="m744.7 314.8h4.7v5.2h-4.7z"/><path d="m751.1 314.8h4.7v5.2h-4.7z"/><path d="m801.3 308h6.3v7h-6.3z"/><path d="m810 308h6.3v7h-6.3z"/><path d="m801.3 317.6h6.3v7h-6.3z"/><path d="m810 317.6h6.3v7h-6.3z"/><path d="m760 334h4.7v5.2h-4.7z"/><path d="m766.5 334h4.7v5.2h-4.7z"/><path d="m749.5 334 16.5-9.4 23.6 10.1-23.9-6.4z"/><path d="m338 333.4 16.5-9.4 23.6 10.1-23.8-6.4z"/><path d="m104.3 340.5s-6.1-.9-6.1 6.1v9h6.1 6.1v-9c.1-7-6.1-6.1-6.1-6.1z"/><path d="m231.4 340.5s-6.1-.9-6.1 6.1v9h6.1 6.1v-9c.1-7-6.1-6.1-6.1-6.1z"/><path d="m413.3 340.5s-6.1-.9-6.1 6.1v9h6.1 6.1v-9c0-7-6.1-6.1-6.1-6.1z"/><path d="m515.3 340.5s-6.1-.9-6.1 6.1v9h6.1 6.1v-9c0-7-6.1-6.1-6.1-6.1z"/><path d="m649.7 340.5s-6.1-.9-6.1 6.1v9h6.1 6.1v-9c0-7-6.1-6.1-6.1-6.1z"/><path d="m777.8 340.5s-6.1-.9-6.1 6.1v9h6.1 6.1v-9c.1-7-6.1-6.1-6.1-6.1z"/></g><path d="m1665.6 296.8-44.1-22.4s-.9-14.7-1.5-14.7-8.8 0-8.8 0l-1.8 9.9-25.4-11-50.4 21.2-.7-1.2 5.5-3.3-17.2-12.5-18.6 12.3 15.3 12.9-1.1 1-29.4-19.5-30.5 23.8-25.6-24.7-13.7 17.3-.4-7.7-3.8.1.5 10.9-3.7 5 6.3 5.3-1.4 1.9-25.5-15.5s-28 26.5-28.3 26.2-11.8-5-11.8-5v-8l-6.3-.2v3.2l-12.1-5.9-17 7.3-27.8-18.2-.1-12.1 1-3.5h-13.9l1.1 3v4.8l-24.9-16.6-13.4 25.2 1.6 2.3-.4 1-33-14.2v-11.2l3-.4v-3.5h-16.4v3.5l3 .5-.1 6.4-28.2-12.3-49 22.3-.5-.9 5.3-4.4-17.1-11.6s-18.6 12.6-17.9 12.3 15.5 12.3 15.5 12.3l-.8 1-30.5-19.2-29.5 23.2-26.4-25.9-13.5 18.4v-8.7h-4.2v12.2l-3.6 4.4 5.3 4.8-.6 1.1-24.9-14.8-28 27.3-19.6-22.9-26.8 14.7-29.8-18.7v-11.2l1.5-3.5h-13.5l1.1 3.2.4 5.5-26-18.4.4 94.9h832.7z" fill="#3f0505"/><path d="m1631.7 324.2h7.2v7.2h-7.2z" fill="#fff"/><path d="m1621.8 324.2h7.2v7.2h-7.2z" fill="#fff"/><path d="m1631.7 334.1h7.2v7.2h-7.2z" fill="#fff"/><path d="m1621.8 334.1h7.2v7.2h-7.2z" fill="#fff"/><path d="m1594.2 292.7h6v6.6h-6z" fill="#fff"/><path d="m1586 292.7h6v6.6h-6z" fill="#fff"/><path d="m1594.2 301.7h6v6.6h-6z" fill="#fff"/><path d="m1586 301.7h6v6.6h-6z" fill="#fff"/><path d="m1576.4 292.7h6v6.6h-6z" fill="#fff"/><path d="m1568.2 292.7h6v6.6h-6z" fill="#fff"/><path d="m1576.4 301.7h6v6.6h-6z" fill="#fff"/><path d="m1568.2 301.7h6v6.6h-6z" fill="#fff"/><path d="m1499.8 306.9h4.7v5.2h-4.7z" fill="#fff"/><path d="m1493.3 306.9h4.7v5.2h-4.7z" fill="#fff"/><path d="m1499.8 314.1h4.7v5.2h-4.7z" fill="#fff"/><path d="m1493.3 314.1h4.7v5.2h-4.7z" fill="#fff"/><path d="m1477.4 306.9h4.7v5.2h-4.7z" fill="#fff"/><path d="m1470.9 306.9h4.7v5.2h-4.7z" fill="#fff"/><path d="m1477.4 314.1h4.7v5.2h-4.7z" fill="#fff"/><path d="m1470.9 314.1h4.7v5.2h-4.7z" fill="#fff"/><path d="m1499.8 327.6h4.7v5.2h-4.7z" fill="#fff"/><path d="m1493.3 327.6h4.7v5.2h-4.7z" fill="#fff"/><path d="m1499.8 334.8h4.7v5.2h-4.7z" fill="#fff"/><path d="m1493.3 334.8h4.7v5.2h-4.7z" fill="#fff"/><path d="m1477.4 327.6h4.7v5.2h-4.7z" fill="#fff"/><path d="m1470.9 327.6h4.7v5.2h-4.7z" fill="#fff"/><path d="m1477.4 334.8h4.7v5.2h-4.7z" fill="#fff"/><path d="m1470.9 334.8h4.7v5.2h-4.7z" fill="#fff"/><path d="m1434.4 307.8h6v6.6h-6z" fill="#fff"/><path d="m1426.2 307.8h6v6.6h-6z" fill="#fff"/><path d="m1434.4 316.9h6v6.6h-6z" fill="#fff"/><path d="m1426.2 316.9h6v6.6h-6z" fill="#fff"/><path d="m1393.6 317.3h4.7v5.2h-4.7z" fill="#fff"/><path d="m1387.1 317.3h4.7v5.2h-4.7z" fill="#fff"/><path d="m1393.6 324.4h4.7v5.2h-4.7z" fill="#fff"/><path d="m1387.1 324.4h4.7v5.2h-4.7z" fill="#fff"/><path d="m1364.3 340.3h4.7v5.2h-4.7z" fill="#fff"/><path d="m1357.8 340.3h4.7v5.2h-4.7z" fill="#fff"/><path d="m1364.3 347.5h4.7v5.2h-4.7z" fill="#fff"/><path d="m1357.8 347.5h4.7v5.2h-4.7z" fill="#fff"/><path d="m1331.9 307.7h4.7v5.2h-4.7z" fill="#fff"/><path d="m1325.4 307.7h4.7v5.2h-4.7z" fill="#fff"/><path d="m1331.9 314.8h4.7v5.2h-4.7z" fill="#fff"/><path d="m1325.4 314.8h4.7v5.2h-4.7z" fill="#fff"/><path d="m1311.5 332.9h4.7v5.2h-4.7z" fill="#fff"/><path d="m1305 332.9h4.7v5.2h-4.7z" fill="#fff"/><path d="m1311.5 340.1h4.7v5.2h-4.7z" fill="#fff"/><path d="m1305 340.1h4.7v5.2h-4.7z" fill="#fff"/><path d="m1274.1 307.7h6.5v7.2h-6.5z" fill="#fff"/><path d="m1265.2 307.7h6.5v7.2h-6.5z" fill="#fff"/><path d="m1274.1 317.5h6.5v7.2h-6.5z" fill="#fff"/><path d="m1265.2 317.5h6.5v7.2h-6.5z" fill="#fff"/><path d="m1215.4 324.1h6.9v7.6h-6.9z" fill="#fff"/><path d="m1205.9 324.1h6.9v7.6h-6.9z" fill="#fff"/><path d="m1215.4 334.6h6.9v7.6h-6.9z" fill="#fff"/><path d="m1205.9 334.6h6.9v7.6h-6.9z" fill="#fff"/><path d="m1177.3 293.2h5.9v6.5h-5.9z" fill="#fff"/><path d="m1169.2 293.2h5.9v6.5h-5.9z" fill="#fff"/><path d="m1177.3 302.2h5.9v6.5h-5.9z" fill="#fff"/><path d="m1169.2 302.2h5.9v6.5h-5.9z" fill="#fff"/><path d="m1159.7 293.2h5.9v6.5h-5.9z" fill="#fff"/><path d="m1151.5 293.2h5.9v6.5h-5.9z" fill="#fff"/><path d="m1159.7 302.2h5.9v6.5h-5.9z" fill="#fff"/><path d="m1151.5 302.2h5.9v6.5h-5.9z" fill="#fff"/><path d="m1120.8 324.9h6v6.6h-6z" fill="#fff"/><path d="m1112.5 324.9h6v6.6h-6z" fill="#fff"/><path d="m1120.8 334h6v6.6h-6z" fill="#fff"/><path d="m1112.5 334h6v6.6h-6z" fill="#fff"/><path d="m1094.8 324.9h6v6.6h-6z" fill="#fff"/><path d="m1086.6 324.9h6v6.6h-6z" fill="#fff"/><path d="m1094.8 334h6v6.6h-6z" fill="#fff"/><path d="m1086.6 334h6v6.6h-6z" fill="#fff"/><path d="m1017.6 307.9h6v6.6h-6z" fill="#fff"/><path d="m1009.3 307.9h6v6.6h-6z" fill="#fff"/><path d="m1017.6 316.9h6v6.6h-6z" fill="#fff"/><path d="m1009.3 316.9h6v6.6h-6z" fill="#fff"/><path d="m1048.2 340.6h6v6.6h-6z" fill="#fff"/><path d="m1040 340.6h6v6.6h-6z" fill="#fff"/><path d="m977.5 316.9h4.7v5.2h-4.7z" fill="#fff"/><path d="m971 316.9h4.7v5.2h-4.7z" fill="#fff"/><path d="m977.5 324.1h4.7v5.2h-4.7z" fill="#fff"/><path d="m971 324.1h4.7v5.2h-4.7z" fill="#fff"/><path d="m947.4 340.2h4.7v5.2h-4.7z" fill="#fff"/><path d="m940.9 340.2h4.7v5.2h-4.7z" fill="#fff"/><path d="m947.4 347.4h4.7v5.2h-4.7z" fill="#fff"/><path d="m940.9 347.4h4.7v5.2h-4.7z" fill="#fff"/><path d="m916 307.6h4.7v5.2h-4.7z" fill="#fff"/><path d="m909.5 307.6h4.7v5.2h-4.7z" fill="#fff"/><path d="m916 314.8h4.7v5.2h-4.7z" fill="#fff"/><path d="m909.5 314.8h4.7v5.2h-4.7z" fill="#fff"/><path d="m857.7 308h6.4v7h-6.4z" fill="#fff"/><path d="m849 308h6.4v7h-6.4z" fill="#fff"/><path d="m857.7 317.6h6.4v7h-6.4z" fill="#fff"/><path d="m849 317.6h6.4v7h-6.4z" fill="#fff"/><path d="m900.6 334h4.7v5.2h-4.7z" fill="#fff"/><path d="m894.1 334h4.7v5.2h-4.7z" fill="#fff"/><path d="m915.9 334-16.5-9.4-23.6 10.1 23.8-6.4z" fill="#fff"/><path d="m1327.5 333.4-16.5-9.4-23.7 10.1 23.9-6.4z" fill="#fff"/><path d="m1561.3 340.5s6.1-.9 6.1 6.1v9h-6.1-6.1v-9c-.1-7 6.1-6.1 6.1-6.1z" fill="#fff"/><path d="m1434.1 340.5s6.1-.9 6.1 6.1v9h-6.1-6.1v-9c0-7 6.1-6.1 6.1-6.1z" fill="#fff"/><path d="m1252.2 340.5s6.1-.9 6.1 6.1v9h-6.1-6.1v-9c0-7 6.1-6.1 6.1-6.1z" fill="#fff"/><path d="m1150.1 340.5s6.1-.9 6.1 6.1v9h-6.1-6.1v-9c0-7 6.1-6.1 6.1-6.1z" fill="#fff"/><path d="m1015.7 340.5s6.1-.9 6.1 6.1v9h-6.1-6.1v-9c0-7 6.1-6.1 6.1-6.1z" fill="#fff"/><path d="m887.5 340.5s6.1-.9 6.1 6.1v9h-6.1-6.1v-9c0-7 6.1-6.1 6.1-6.1z" fill="#fff"/></svg>