<svg enable-background="new 0 0 100 100" viewBox="0 0 100 100" xmlns="http://www.w3.org/2000/svg"><path d="m74.3 81.2c-10.7-4.3-21.2-8.5-31.6-12.7-3.6-1.5-4.1-4.5-1.4-7.4 11.3-12.1 22.6-24.2 33.9-36.3 1-1 1.9-2.1 2.6-3.6-.7.5-1.3.9-2 1.4-14.8 11.5-29.5 23.1-44.2 34.7-3.9 3.1-8.3 3.7-13 1.9-2.8-1.1-5.6-2.2-8.4-3.4-1.6-.6-3.6-1.1-3.7-3.1-.1-2.1 1.9-2.7 3.4-3.5 12.6-6.6 25.3-13.2 37.9-19.9 13.6-7.1 27.2-14.2 40.8-21.3 1.4-.7 2.9-1.8 4.4-.6s.7 2.9.3 4.4c-6.2 22.6-12.3 45.2-18.5 67.8-.1.5-.3 1-.5 1.6z"/><path d="m37.2 91.4c-2.4-6-4.7-11.6-6.9-17.3-.6-1.4-1.7-3.3-.2-4.3 1-.7 3-.1 4.4.3 2.3.7 4.5 1.8 6.8 2.7 3.9 1.7 4.9 5 2.7 8.5-2.3 3.4-4.6 6.7-6.8 10.1z"/></svg>