<svg enable-background="new 0 0 100 100" viewBox="0 0 100 100" xmlns="http://www.w3.org/2000/svg"><path d="m56.5 36.8c-1.3-.4-2.2-.7-3.1-.9-5.1-1.3-7.1-3.7-5.5-8.6 1.4-4.4 0-6.7-3.6-9-6.2-4-7.7-11.1-3.6-16.2.8-1 2.6-1.2 3.9-1.8 0 1.5.6 3.2 0 4.3-2 3.5-1.9 7 1.3 8.9 6.7 4 9.5 9 6.3 16.6 1.4.5 2.3.9 3.2 1.1 5.8 1.4 8.1 5.8 4.9 10.7-3 4.6-3.7 7.7 1.8 10.8 3.6 2 3.4 5.9 2.2 9.4-2.2 6.3-4.5 12.5-6.8 18.8-.4 1.2-.8 2.3-.5 4 1.1-1.1 2.1-2.4 3.4-3.2.9-.5 2.3-.3 3.5-.5-.1 1.2.4 2.9-.3 3.4-4.1 3.7-8.2 7.2-12.6 10.5-2.3 1.7-3.6.3-4.1-2.2-.6-3.6-1.5-7.2-1.8-10.8-.1-1.4 1.1-3 1.7-4.5.9 1.3 1.9 2.5 2.7 3.9.4.6.3 1.5 1.7 2.6 2.8-7.9 5.8-15.7 8.3-23.6.4-1.3-.8-3.9-2-4.9-5.9-5.3-6.4-7.2-2.7-14.1.7-1.3 1.1-2.9 1.7-4.7z"/></svg>