<svg enable-background="new 0 0 100 100" viewBox="0 0 100 100" xmlns="http://www.w3.org/2000/svg"><path d="m16.8 57.5c14.6 2.8 28.1 4.8 41.6.2 8.4-2.9 15.8-7.3 18.1-16.8 1.2-4.9 0-9-4.4-11.7-2.2 1.9-4.1 4-6.4 5.5-3.4 2.1-7.3 2.1-9.9-.9-1.6-1.8-2.5-5.3-2.1-7.7.7-4 4.6-4.7 8.2-4.6 2.2 0 4.5.3 7.8.5-.4-5.5-.9-10.6-1-15.7 0-1.6 1.1-3.2 1.7-4.8 1 1.4 2.7 2.7 2.9 4.1.5 5.3.4 10.7.8 16 .1 1.4.7 3 1.7 3.9 7.3 6.8 8.3 15.8 2.4 24.2-5.7 8-13.9 12.8-23.3 13.9-9.9 1.1-20.1.3-30.1.2-2.2 0-4.4-.6-7.9-1.1 2.6 2.4 4.5 3.9 6 5.7.7.9.7 2.5 1 3.7-1.3 0-3 .5-3.8-.1-3.5-2.9-6.9-5.9-10.1-9.2-2.4-2.4-2.2-5.1.7-7 5-3.3 10.2-6.5 15.3-9.6.8-.5 2.2.1 3.4.2-.3 1.3-.2 3.1-1 3.7-3.4 2.4-6.9 4.5-11.6 7.4zm50.1-29.1c-.4-1-.7-1.9-1.1-2.9-2.6.9-5.2 1.8-7.7 2.7.5.9 1.3 2.6 1.6 2.5 2.4-.5 4.8-1.5 7.2-2.3z"/></svg>