<svg enable-background="new 0 0 100 100" viewBox="0 0 100 100" xmlns="http://www.w3.org/2000/svg"><path d="m48.4 46.4c2.2 0 4.6-.5 6.6.1 2.5.7 6 2 6.6 3.8s-1.3 5.5-3.1 6.9c-9.5 7-9.6 6.8-6.8 18.4.2.6.4 1.3.9 2.7 1.8-2.9 3.2-5.5 4.9-7.7.7-.9 2.4-.9 3.6-1.3.1 1.3.8 2.9.3 3.8-2.5 4.5-5.4 8.8-8.2 13.1-1.5 2.4-3.3 2.7-5.2.6-3.8-4-7.6-7.9-11.2-12.1-.8-.9-.4-2.8-.6-4.2 1.4.3 3.1.3 4 1.1 2.2 2 4 4.4 6.2 6.9-.5-5.5-2.4-11.2-.9-15.6 1.6-4.4 6.6-7.6 10.3-11.4-1.1 0-2.6 0-4.1 0-4 0-7.6-1-8.5-5.3-.9-4.4 2.1-6.6 5.8-8 2.4-.9 4.7-1.9 7-2.8 0-.5 0-1.1-.1-1.6-2-.8-4.1-1.6-6.1-2.4-6.8-2.5-8.2-8.1-3-13.1 2.6-2.5 5.6-4.7 8.7-6.7 1-.7 2.8-.1 4.3-.1-.6 1.4-.8 3.1-1.8 4-2.3 2.2-5 3.8-7.4 5.9-2.6 2.2-2.5 4.2 1.1 5.3 4.1 1.3 9 2.3 8.9 7.9-.1 5.7-4.9 6.8-9.3 8-1.1.3-2.1 1.2-3.2 1.8.1.7.2 1.4.3 2z"/></svg>