<svg viewBox="0 0 100 100" xmlns="http://www.w3.org/2000/svg"><path d="m53.6 2.5c1 .3 2 .6 3.1.9 11.6 3.2 18.4 14.9 14.6 26.3-2.5 7.3-6 14.2-9.2 21.2-1.9 4.1-4.2 7.9-6.5 11.8-2.2 3.7-6.6 3.8-8.7.2-5.9-10.1-11.3-20.3-15.5-31.3-5.5-14.6 5.1-27.5 16.6-28.7.2 0 .4-.2.6-.4zm-2.5 31.1c5.4-.1 9.9-4.5 9.9-9.8 0-5.5-4.5-9.9-10.1-9.8-5.4.1-9.8 4.6-9.7 10s4.5 9.7 9.9 9.6z"/><path d="m8.6 71c2.7-5.7 5.4-11.4 7.9-17.2 1-2.4 2.5-3.7 5.2-3.9 2.5-.2 4.9-.7 7.4-1.3 1.3-.3 2 .1 2.5 1.3.7 1.7 1.6 3.3 2.5 5.2-3.1.5-5.9 1.1-8.8 1.5-1.6.2-2.6.8-3.3 2.5-1.5 3.8-3.3 7.4-5.1 11.3.7.4 1.2.8 1.9 1.2 10.6 5.8 21.2 11.7 31.8 17.4 1.1.6 2.7.8 3.9.6 8.6-1.6 17.1-3.4 26.1-5.3-1.5-3.3-2.9-6.4-4.3-9.6-2.7-5.9-2.7-5.9 2.3-10.2 1.6-1.4 3.1-2.7 4.9-4.3-4.9-2.5-9.6-4.8-14.4-7.2 1.1-2.1 2-4.1 3.2-6.3 2.4 1.2 4.7 2.3 6.9 3.4 3.7 1.8 7.3 3.5 10.9 5.5 1.3.7 2.4 2 3.5 3v2c-3.1 2.8-6.2 5.8-9.4 8.5-1.3 1.1-1.6 1.9-.8 3.5 1.9 4 3.7 8 5.4 12.1 1.4 3.2.3 5.2-3 5.9-4.1.9-8.3 1.7-12.5 2.6l-20.7 4.5h-2c-.7-.5-1.4-1.1-2.2-1.5-12.2-6.9-24.4-13.5-36.5-20.3-1.3-.7-2.2-1.9-3.3-2.9z"/></svg>