<?xml version="1.0" encoding="utf-8"?>
<!-- Generator: Adobe Illustrator 25.0.1, SVG Export Plug-In . SVG Version: 6.00 Build 0)  -->
<svg version="1.1" id="Layer_1" xmlns="http://www.w3.org/2000/svg" xmlns:xlink="http://www.w3.org/1999/xlink" x="0px" y="0px"
	 viewBox="0 0 100 100" style="enable-background:new 0 0 100 100;" xml:space="preserve">
<style type="text/css">
	.st0{fill:#FF0000;}
	.st1{fill:#FFFFFF;}
</style>
<circle class="st0" cx="50.2" cy="50.2" r="49.8"/>
<g>
	<path class="st1" d="M39.9,48.6c-0.4-0.5-0.7-0.8-1-1.1c-5-5.1-10.1-10.1-15.1-15.1c-3.7-3.7-2.2-9.7,2.9-11.1
		c2.4-0.6,4.6,0,6.3,1.8c5.1,5.1,10.2,10.2,15.2,15.2c0.3,0.3,0.6,0.6,0.9,0.9c0.4-0.3,0.7-0.6,1-0.9c5.1-5,10.1-10.1,15.1-15.1
		c3.8-3.8,9.9-2.2,11.1,3c0.6,2.4-0.1,4.5-1.8,6.3c-5.1,5-10.1,10.1-15.1,15.1c-0.3,0.3-0.6,0.6-0.9,1c0.3,0.3,0.6,0.7,0.9,0.9
		c5.1,5.1,10.2,10.1,15.2,15.2c3.7,3.7,2.1,9.7-2.9,11c-2.4,0.7-4.6,0-6.4-1.8c-5.1-5-10.1-10.1-15.1-15.1c-0.3-0.3-0.5-0.6-1.3-1.2
		c-0.2,0.4-0.3,0.8-0.6,1.1C43.2,63.8,38.1,68.9,33,73.9c-3.7,3.7-9.8,2.1-11.1-3c-0.6-2.4,0-4.6,1.8-6.3c5-5.1,10.1-10.1,15.1-15.1
		C39.2,49.2,39.5,49,39.9,48.6z"/>
</g>
</svg>
