<svg enable-background="new 0 0 158.5 158.5" viewBox="0 0 158.5 158.5" xmlns="http://www.w3.org/2000/svg"><path d="m12 155c-4.7 0-8.5-3.8-8.5-8.5v-134.5c0-4.7 3.8-8.5 8.5-8.5h134.5c4.7 0 8.5 3.8 8.5 8.5v134.5c0 4.7-3.8 8.5-8.5 8.5z" fill="#81b031"/><path d="m146.5 7c2.8 0 5 2.2 5 5v134.5c0 2.8-2.2 5-5 5h-134.5c-2.8 0-5-2.2-5-5v-134.5c0-2.8 2.2-5 5-5zm0-7h-134.5c-6.6 0-12 5.4-12 12v134.5c0 6.6 5.4 12 12 12h134.5c6.6 0 12-5.4 12-12v-134.5c0-6.6-5.4-12-12-12z" fill="#060704"/><path d="m24.9 133.8c-1.6-2.9.5-2.7 2.3-2.7h24.9 3.7c0-1.6 0-3 0-4.3 0-21.2.1-42.5-.1-63.7 0-3.3 1.2-4.3 4.2-5.1 12.7-3.7 25.3-7.7 38-11.7 3.7-1.2 3.9-1.2 3.9 2.9v76.7 5.3h5.8 22.1c1.2 0 2.4.4 3.6.6v2c-36.1 0-72.2 0-108.4 0zm74-84.7c-.8.2-1.2.2-1.7.4-11.9 3.7-23.8 7.4-35.8 10.9-2.6.7-3.1 1.8-3 4.2.1 21 0 42.1 0 63.1v3.2h9.5c0-4.5.1-8.8 0-13.1-.1-2.3.7-3.3 3.1-3.2 4.9.1 9.8.2 14.6 0 3.1-.2 3.9 1 3.8 3.9-.2 4.1-.1 8.3-.1 12.3h9.4c.2-27.2.2-54.3.2-81.7zm-28 68.4v13.3h15.6c0-4.6 0-8.9 0-13.3-5.2 0-10.3 0-15.6 0z"/><path d="m133.3 84.6c-.7.7-1.4 1.4-2.1 2.1-.3-1.1-1-2.2-.8-3.2.4-1.7-1.4-5.1 2.9-4.4z"/><path d="m133.3 75.1c-1.4 1.1-2.8 1.5-3-.9-.1-2 .2-3.9.3-5.9.8 1.6 1.5 3.3 2.3 4.9.1.2.2.4.3.6.1.4.1.8.1 1.3z"/><path d="m120.8 45.6c-.8.1-1.8.5-2.2.2-1.4-1.1-2.6-2.5-3.7-4-.2-.3.6-1.4.9-2.1 1.8 1.6 3.5 3.2 5.3 4.9-.1.3-.2.7-.3 1z"/><path d="m130.9 89.1c.3.7.9 1.2.8 1.6-.5 2.1-1.2 4.3-1.9 6.4-.1.2-1.1.4-1.4.2-.4-.2-.7-1-.6-1.4.4-1.7.9-3.5 1.4-5.2.2-.5.8-.7 1.7-1.6z"/><path d="m27.3 89.4c.3.4.8.7 1 1.2.3.6.6 1.3.6 1.9 0 1.6-.1 3.2-.2 4.8-.8-1.4-1.9-2.8-2.4-4.3-.4-1-.1-2.3-.1-3.5.4 0 .7-.1 1.1-.1z"/><path d="m78.8 24.6c.3 0 .7-.1 1 0 1 .4 2 .9 3 1.4-1 .4-2 .9-3 1.3-.3.1-.7.1-1 0-1.3-.4-2.6-.8-3.8-1.2 1.2-.7 2.4-1.4 3.6-2.2 0 .3.1.5.2.7z"/><path d="m88.3 24.8c1.9 1.1 3.7 2 5.4 3-1.8 2.6-3.8.3-5.7.2-.8 0-1.5-1-2.2-1.5.7-.5 1.4-1 2.5-1.7z"/><path d="m55.4 32.9c-.4-.2-.9-.4-1-.7-.2-.5-.2-1.4.1-1.5 1.9-1 3.8-1.8 5.7-2.6.3-.1 1.1.4 1.2.8s-.1 1.2-.4 1.4c-1.8.9-3.7 1.7-5.6 2.6z"/><path d="m104.3 31.4c-.8.7-1.3 1.4-1.5 1.3-2.1-.8-4.2-1.8-6.3-2.8-.1-.1.2-1 .2-1.5 1.4.3 2.9.5 4.3 1 1.2.4 2.1 1.2 3.3 2z"/><path d="m131.1 63.8c-.3.5-.6 1.3-1.1 1.4-.4.1-1.3-.4-1.5-.8-.7-1.6-1.4-3.3-1.8-5.1-.1-.4.4-1.4.9-1.5.4-.1 1.4.3 1.6.8.7 1.6 1.2 3.3 1.9 5.2z"/><path d="m41.5 114.9c-1.3.5-2.4 1.1-2.6.9-1.5-1.5-2.8-3.2-4-4.9-.1-.1.9-1.1 1.4-1.6 1.5 1.6 3.1 3.3 5.2 5.6z"/><path d="m128.5 101.6c-1 1.8-2 3.6-3.1 5.3-.2.3-1.2.3-1.8.1-.3-.1-.5-1-.3-1.4.7-1.6 1.5-3.2 2.5-4.7.2-.4 1.1-.6 1.6-.5.5-.1.7.6 1.1 1.2z"/><path d="m34.4 105.7c-.3.4-.5 1.1-.9 1.2-.5.1-1.4-.1-1.7-.5-1-1.5-1.8-3.1-2.5-4.8-.2-.4.2-1.3.6-1.7.2-.2 1.2 0 1.4.3 1.2 1.8 2.1 3.6 3.1 5.5z"/><path d="m23.7 82c.8-1.3 1.3-2.3 1.9-3.2.5.9 1 1.9 1.5 2.8v.3c-.3 1.6-.6 3.2-.9 4.8-.7-1.6-1.6-3.1-2.5-4.7z"/><path d="m113.8 37.1c-1.2.9-2 1.7-2.1 1.5-1.9-1.3-3.8-2.7-5.5-4.1-.1-.1.6-1 .9-1.5 2 1.3 4.1 2.5 6.7 4.1z"/><path d="m32.2 55.7c-.6-.9-1.3-1.6-1.2-1.8 1.1-2 2.3-4 3.5-5.9.1-.1 1.4.3 1.3.4-.2 1-.3 2.1-.8 3-.7 1.4-1.7 2.6-2.8 4.3z"/><path d="m127.2 53.6c-.5.7-.7 1.3-1.1 1.5s-1.1 0-1.5-.3-.7-.9-.9-1.4c-.7-1.6-1.3-3.2-1.9-4.7.5-.2 1.3-.6 1.4-.4 1.4 1.7 2.6 3.5 4 5.3z"/><path d="m31.2 58.6c-.4 1.2-.6 1.9-.9 2.5-.8 1.3-1.7 2.6-2.6 3.9-.3-.4-1.1-.9-1-1.2.7-2.1 1.6-4.2 2.4-6.2.8.3 1.5.7 2.1 1z"/><path d="m123 111.1c-1.5 1.6-3 3.3-4.6 4.9-.2.2-1 0-1.2-.2-.3-.4-.4-1.2-.2-1.5 1.1-1.6 2.3-3.1 3.6-4.5.3-.3 1-.2 1.5-.1.4.1.5.7.9 1.4z"/><path d="m66.2 29.5c-.9-.8-1.4-1.4-1.9-1.9 1.9-.8 3.7-1.7 5.6-2.2.6-.2 1.4.6 2.1 1-1.8 1-3.7 2-5.8 3.1z"/><path d="m46.4 38.7c-.6-.3-1.2-.5-1.3-.8-.2-.5-.1-1.3.1-1.5 1.5-1.2 3.1-2.3 4.7-3.4.3-.2 1.2 0 1.5.3s.4 1.3.1 1.5c-1.7 1.4-3.4 2.6-5.1 3.9z"/><path d="m24.2 73c.8-1.8 1.7-3.5 2.5-5.2 2.7 1.6.5 3.8.7 5.8.1.7-1 1.4-1.6 2.1-.5-.7-.9-1.5-1.6-2.7z"/><path d="m43.9 40.9c-2.1 2-3.8 3.5-5.5 5.1-.4-.5-1.3-1.4-1.2-1.5 1.4-1.7 3-3.3 4.6-4.8.1-.1 1.1.6 2.1 1.2z"/><path d="m47.4 120.1c-.9.8-1.6 1.5-1.7 1.5-1.2-.8-2.3-1.8-3.5-2.8.4-.5 1-1.4 1.1-1.3 1.3.7 2.5 1.5 4.1 2.6z"/><path d="m116.1 118.8c-1.6 1.1-2.7 2-4 2.7-.2.1-.8-.7-1.3-1.1 1.1-1 2.1-2.1 3.3-3 .2 0 1 .7 2 1.4z"/><path d="m98.9 49.1v81.7c-3 0-5.9 0-9.4 0 0-4.1-.1-8.2.1-12.3.1-2.9-.7-4.1-3.8-3.9-4.9.2-9.8.2-14.6 0-2.4-.1-3.2.9-3.1 3.2.1 4.3 0 8.6 0 13.1-3.2 0-6.1 0-9.5 0 0-1.1 0-2.1 0-3.2 0-21 0-42.1 0-63.1 0-2.4.5-3.5 3-4.2 12-3.4 23.8-7.2 35.8-10.9.3-.2.7-.2 1.5-.4zm-8.7 41.4c-.8-1.2-1.4-2.1-2-3-.5.9-1.3 1.9-1.3 2.8 0 1.1.8 2.1 1.3 3.2.6-.9 1.2-1.8 2-3zm-9.3-.3c-.8-1.1-1.4-1.9-2.1-2.7-.4 1-1.2 2.1-1.2 3.1s.9 1.9 1.4 2.9c.6-1 1.2-2 1.9-3.3zm-13.6.2c.9 1.2 1.6 2.1 2.3 3 .4-.9 1.1-1.9 1.1-2.8-.1-1.1-.8-2.2-1.2-3.3-.8 1-1.4 1.9-2.2 3.1zm0 10.1c.8 1.2 1.5 2.2 2.1 3.1.4-.9 1.2-1.9 1.1-2.8-.1-1.1-.9-2.2-1.3-3.2-.5.9-1.1 1.7-1.9 2.9zm9.6-.1c.8 1.4 1.4 2.3 1.9 3.3.5-1 1.3-1.9 1.4-2.9 0-1-.7-2.1-1.1-3.1-.7.8-1.3 1.6-2.2 2.7zm13.4.3c-.9-1.2-1.5-2.1-2.1-3-.4 1-1.2 2-1.2 3s.8 2 1.2 3c.6-.9 1.2-1.8 2.1-3zm0-20.2c-.8-1.4-1.4-2.3-2-3.3-.5 1-1.3 1.9-1.3 2.9s.7 2.1 1.1 3.1c.6-.8 1.3-1.6 2.2-2.7zm-9.4.1c-.8-1.4-1.3-2.4-1.8-3.3-.5 1-1.4 1.9-1.4 2.9s.7 2.1 1.2 3.1c.6-.9 1.2-1.7 2-2.7zm-9.6-.2c-.7-1.3-1.2-2.2-1.8-3.2-.5 1-1.4 2.1-1.4 3.1 0 .9.8 1.9 1.3 2.9.6-.8 1.2-1.7 1.9-2.8zm9.6-10.5c-.8-1.1-1.4-2-2-2.9-.4 1-1.2 2.1-1.2 3.1s.9 1.9 1.4 2.9c.5-.9 1.1-1.8 1.8-3.1zm9.4.1c-.9-1.2-1.5-2.1-2.1-2.9-.4 1-1.2 2-1.2 3.1 0 1 .8 2 1.3 2.9.5-1 1.1-1.9 2-3.1zm-19-.2c-.8-1.1-1.5-1.9-2.1-2.8-.4 1-1.2 2.1-1.2 3.1s.9 1.9 1.4 2.9c.6-.9 1.2-1.9 1.9-3.2z" fill="#fff"/><path d="m70.9 117.5h15.6v13.3c-5.2 0-10.3 0-15.6 0 0-4.4 0-8.6 0-13.3z" fill="#fff"/><path d="m90.2 90.5c-.8 1.2-1.4 2.1-2 3-.5-1.1-1.3-2.1-1.3-3.2 0-.9.8-1.9 1.3-2.8.6.9 1.2 1.8 2 3z"/><path d="m80.9 90.2c-.8 1.3-1.3 2.3-1.8 3.3-.5-1-1.4-1.9-1.4-2.9s.8-2.1 1.2-3.1c.6.8 1.2 1.6 2 2.7z"/><path d="m67.3 90.4c.9-1.2 1.5-2.1 2.1-3 .4 1.1 1.2 2.2 1.2 3.3.1.9-.7 1.8-1.1 2.8-.6-.9-1.3-1.8-2.2-3.1z"/><path d="m67.3 100.5c.8-1.2 1.4-2 1.9-2.9.5 1.1 1.3 2.1 1.3 3.2.1.9-.7 1.9-1.1 2.8-.6-.9-1.2-1.9-2.1-3.1z"/><path d="m76.9 100.4c.9-1.1 1.6-1.9 2.2-2.7.4 1.1 1.1 2.1 1.1 3.1s-.9 1.9-1.4 2.9c-.5-1-1.1-2-1.9-3.3z"/><path d="m90.3 100.7c-.9 1.2-1.5 2.1-2.1 3-.4-1-1.2-2-1.2-3s.8-2 1.2-3c.6.9 1.2 1.8 2.1 3z"/><path d="m90.3 80.5c-.9 1.1-1.5 1.9-2.2 2.7-.4-1-1.1-2.1-1.1-3.1s.9-1.9 1.3-2.9c.6 1 1.1 2 2 3.3z"/><path d="m80.9 80.6c-.8 1-1.4 1.9-2.1 2.7-.4-1-1.2-2.1-1.2-3.1s.9-1.9 1.4-2.9c.6.9 1.2 1.9 1.9 3.3z"/><path d="m71.3 80.4c-.7 1.1-1.3 2-1.9 2.8-.5-1-1.4-1.9-1.3-2.9 0-1.1.9-2.1 1.4-3.1.5 1 1.1 1.9 1.8 3.2z"/><path d="m80.9 69.9c-.8 1.3-1.3 2.2-1.9 3.1-.5-1-1.4-1.9-1.4-2.9s.8-2.1 1.2-3.1c.7.9 1.3 1.8 2.1 2.9z"/><path d="m90.3 70c-.8 1.3-1.4 2.2-2.1 3.1-.5-1-1.3-2-1.3-2.9 0-1 .8-2 1.2-3.1.7.8 1.3 1.7 2.2 2.9z"/><path d="m71.3 69.8c-.8 1.3-1.3 2.3-1.9 3.2-.5-1-1.4-1.9-1.4-2.9s.7-2.1 1.2-3.1c.7.9 1.3 1.7 2.1 2.8z"/></svg>