<svg enable-background="new 0 0 158.5 158.5" viewBox="0 0 158.5 158.5" xmlns="http://www.w3.org/2000/svg"><path d="m12 155c-4.7 0-8.5-3.8-8.5-8.5v-134.5c0-4.7 3.8-8.5 8.5-8.5h134.5c4.7 0 8.5 3.8 8.5 8.5v134.5c0 4.7-3.8 8.5-8.5 8.5z" fill="#81b031"/><path d="m146.5 7c2.8 0 5 2.2 5 5v134.5c0 2.8-2.2 5-5 5h-134.5c-2.8 0-5-2.2-5-5v-134.5c0-2.8 2.2-5 5-5zm0-7h-134.5c-6.6 0-12 5.4-12 12v134.5c0 6.6 5.4 12 12 12h134.5c6.6 0 12-5.4 12-12v-134.5c0-6.6-5.4-12-12-12z" fill="#060704"/><path d="m78.1 25.6h1c6.1 5 12.3 10 18.6 15.2 0-2.9 0-5.5 0-8.1 0-2 .7-2.8 2.8-2.8h11.6c2 0 2.7.7 2.7 2.7v21c0 .8.2 1.4.9 1.9 5 4.1 10 8.2 14.9 12.3 1.5 1.3 1.6 2.2.4 3.8-1.9 2.4-3.7 4.8-5.6 7.3-1.1 1.4-2.3 1.5-3.7.4-.8-.7-1.6-1.3-2.7-2.2v1.6 47.4c0 4-2.8 6.2-6.2 6.2-22.9-.1-45.8 0-68.8 0-.6 0-1.2 0-1.8-.1-2.8-.6-4.4-2.7-4.4-5.9 0-15.9 0-31.7 0-47.6 0-.4 0-.9 0-1.3-.2 0-.3 0-.3 0-.8.7-1.6 1.3-2.4 2-1.5 1.2-2.5 1.1-3.7-.4-2.1-2.8-4.3-5.6-6.4-8.3 0-.5 0-1 0-1.5.5-.5.9-1 1.5-1.4 15.9-13.1 31.8-26.2 47.8-39.3 1.3-1.1 2.6-2 3.8-2.9zm-1.7 102.3c.4 0 .7.1.9.1h35.8c1.3 0 1.6-.3 1.6-1.7 0-17.3 0-34.6 0-51.9 0-.4-.3-1-.6-1.3-11.5-9.5-23.1-19.1-34.8-28.7-.6-.5-1-.5-1.6 0-11.5 9.6-23.2 19.1-34.8 28.7-.4.3-.6.9-.6 1.4v51.8c0 1.4.3 1.7 1.7 1.7h10.2c.3 0 .5-.1.9-.1 0-.5 0-.9 0-1.3 0-9.9 0-19.9 0-29.8 0-2.3.6-2.9 2.9-2.9h15.6c2.2 0 2.8.7 2.8 2.9v29.9zm50.4-57.8c-16.1-13.3-32.2-26.4-48.3-39.7-16.1 13.3-32.1 26.6-48.2 39.8 1.3 1.7 2.5 3.2 3.7 4.8.3-.2.4-.4.6-.5 14-11.5 28-23 42.1-34.5 1.6-1.3 2.3-1.3 3.8 0 11.7 9.6 23.4 19.2 35.1 28.8 2.5 2 4.9 4 7.5 6.1 1.2-1.6 2.5-3.1 3.7-4.8zm-54.8 57.9c0-10 0-19.9 0-29.8-4.3 0-8.4 0-12.6 0v29.8zm38.5-76.9c0-5.8 0-11.4 0-17-2.8 0-5.6 0-8.4 0 0 .1-.1.2-.1.3v9.3c0 .3.3.8.6 1 1.3 1.1 2.7 2.2 4 3.3 1.3 1 2.5 2 3.9 3.1z"/><g fill="#fff"><path d="m76.4 127.9c0-.4 0-.9 0-1.3 0-10 0-19.9 0-29.9 0-2.2-.7-2.9-2.8-2.9-5.2 0-10.4 0-15.6 0-2.2 0-2.9.7-2.9 2.9v29.8 1.3c-.4 0-.6.1-.9.1-3.4 0-6.8 0-10.2 0-1.4 0-1.7-.3-1.7-1.7 0-17.3 0-34.5 0-51.8 0-.5.3-1.1.6-1.4 11.6-9.5 23.3-19 34.9-28.6.6-.5 1-.5 1.6 0 11.6 9.6 23.2 19.2 34.8 28.8.3.3.6.9.6 1.3v51.9c0 1.3-.3 1.7-1.6 1.7-11.9 0-23.9 0-35.8 0-.3-.1-.6-.1-1-.2zm29.8-29.8c0-3.4 0-6.8 0-10.2 0-1.8-.7-2.6-2.5-2.6-4 0-8 0-12 0-1.8 0-2.6.8-2.6 2.6v20.3c0 1.9.8 2.6 2.7 2.7h11.8c1.8 0 2.6-.8 2.6-2.6 0-3.4 0-6.8 0-10.2z"/><path d="m126.8 70.1c-1.3 1.6-2.5 3.2-3.7 4.8-2.6-2.1-5-4.1-7.5-6.1-11.7-9.6-23.4-19.2-35.1-28.8-1.6-1.3-2.3-1.3-3.8 0-14 11.5-28 23-42.1 34.5-.2.1-.3.3-.6.5-1.2-1.6-2.4-3.1-3.7-4.8 16.1-13.2 32.1-26.5 48.2-39.7 16.1 13.2 32.2 26.4 48.3 39.6z"/><path d="m72 128c-4.2 0-8.4 0-12.6 0 0-9.9 0-19.8 0-29.8h12.6z"/><path d="m110.5 51.1c-1.4-1.1-2.6-2.1-3.8-3.1-1.3-1.1-2.7-2.2-4-3.3-.3-.2-.6-.7-.6-1 0-3.1 0-6.2 0-9.3 0-.1.1-.2.1-.3h8.4c-.1 5.7-.1 11.3-.1 17z"/></g><path d="m106.2 98.1v10.2c0 1.8-.8 2.6-2.6 2.6-3.9 0-7.8 0-11.8 0-1.9 0-2.7-.8-2.7-2.7 0-6.8 0-13.5 0-20.3 0-1.9.7-2.6 2.6-2.6h12c1.8 0 2.5.7 2.5 2.6zm-12.7-8.5v17h8.4c0-5.7 0-11.3 0-17-2.8 0-5.5 0-8.4 0z"/><path d="m93.5 89.6h8.4v17c-2.8 0-5.6 0-8.4 0 0-5.6 0-11.3 0-17z" fill="#fff"/></svg>