<svg enable-background="new 0 0 100 100" viewBox="0 0 100 100" xmlns="http://www.w3.org/2000/svg"><path d="m51.8 98c-.5 0-1.4-.1-2-.6-.4-.4-.5-1-.5-1.7.5-7.8-5.7-15.7-5.9-16.1 0 0-16.3-20.6-16.3-20.7-5.5-6.1-8.5-14-8.5-22.2 0-18.3 14.9-33.2 33.2-33.2s33.2 14.9 33.2 33.2c0 8.2-3 16.1-8.5 22.2l-16.3 20.7c-.3.4-5.9 8.5-5.9 16 0 1-.3 1.7-.9 2.1-.6.3-1.2.3-1.4.3 0 0-.1 0-.2 0z" fill="#a5a5a5" stroke="#fff" stroke-miterlimit="10" stroke-width="2"/><circle cx="51.8" cy="35" fill="#fff" r="14.6"/></svg>