<?xml version="1.0" encoding="utf-8"?>
<!-- Generator: Adobe Illustrator 26.0.0, SVG Export Plug-In . SVG Version: 6.00 Build 0)  -->
<svg version="1.1" id="Layer_1" xmlns="http://www.w3.org/2000/svg" xmlns:xlink="http://www.w3.org/1999/xlink" x="0px" y="0px"
	 viewBox="0 0 1665.6 355.6" style="enable-background:new 0 0 1665.6 355.6;" xml:space="preserve">
<style type="text/css">
	.st0{fill:#88D5F9;}
	.st1{fill:url(#SVGID_1_);}
	.st2{fill:#7F7F7F;}
	.st3{fill:#564242;}
	.st4{fill:#3F0505;}
	.st5{fill:#FFFFFF;}
</style>
<path class="st0" d="M0,0h1666.2v302.2H0V0z"/>
<path class="st0" d="M0,76h1665.6v279.6H0V76z"/>
<linearGradient id="SVGID_1_" gradientUnits="userSpaceOnUse" x1="832.8" y1="282" x2="832.8" y2="78.7" gradientTransform="matrix(1 0 0 -1 0 358)">
	<stop  offset="6.157407e-02" style="stop-color:#88D5F9"/>
	<stop  offset="0.9996" style="stop-color:#BB6B2D"/>
</linearGradient>
<path class="st1" d="M0,76h1665.6v203.3H0V76z"/>
<path class="st2" d="M831.5,258.9c0,0.8-24.5,0-24.5,0l-3.1-7.7l-16.9,4l-3.8,9.1v13.1h-7.7v-30l-5.4-8.5h-2.5l-4.6,8.8v12.5h-3.3v4
	h-5.4V249H751v-21h-14.6v20.8h-4.2v19h-2.9v-2.9h-5.9v-5.8h-15.3v-6.4l-2.6-2.6h-8.9l-2.7,2.7v7.9h-5.2v-4.4h-8.4v4.2H677v2.3h-3.5
	l-3.5-10.1h-23v9.1h-13.2v16.5H625v-11.1l-4.6-4l-3.6-0.6l-1.3,2.5c0,0-3.5,1.5-3.5,2.1s0,4,0,4h-2.5v-12.5l-2.9-2.5H601v5.8h-8.6
	v6.1h-2.3v-5.8h-5v4.4h-12.7v4.8h-11.7v-12.3h-12.3V238l-1.9,8.6v15.2h-3.3v-18.6l-3.3-5h-3.8l-2.9,5.2v35l-8.4-13.3l-19.6-6.9
	l-1.2,6.5l-3.3,11.1l-5.8-5.2V252H488v8.8h-7.7v3.5c0,0-18.4-1.1-18.6,17.1h-19.4v-16.7h-7.5v-1.9h-9.6v-8.1h-1.9v-14.2l-1.7,14.2
	h-1.9l-1.9-15.2v28.8h-8.2v-5.8h-3.3v-41.1c0,0-9-5.8-17.3,0v62.3c0,0-9,2.5-9,0s0-37.1,0-37.1l-4.4-6.9l-5.9,7.7v16.1l-3.6,0.2
	v-4.2l-15.5,0.4V272l-3.5,1.7l-8.4-4.8h-8.2l-6-6.1v6.6h-3.4v-5.2h-8.4v-5.4c0,0-8.1-1.4-9.6,4v9.2l-8.8-8.8L278,274.5
	c0,0,1.3-11.3,0-11.3s-10.6,0-10.6,0s0.4-8.1,0-8.1s-26.1,0-26.1,0v7.5h-5.8L232,259h-6.3l-2.8,2.8h-26v3.9H194v-5.2l-4.7-4.7H174
	v11.6l-8.9,8.9v-27.2l-7.3-7.4l-7.4,7.4V268h-7.6v-16.1h-2.7v-22.5h-16.9v22.5h-3.1v19.2l-5.6-1.5l-7.2-7.2H97.1v-8.7H82.2v11
	l-11.5,5.6H50.3l-4.5-4.5H32.1l-4.5,4.6v36.3H16.5v-50.2H8v13.3H0v70h831.5V258.9z"/>
<path class="st2" d="M1665.7,258.1c0,0.8-24.7,0-24.7,0l-3.1-7.7l-17,4l-3.9,9.1v13.1h-7.7v-30l-5.4-8.5h-2.5l-4.6,8.8v12.5h-3.3v4
	h-5.4v-15.2h-3.3v-21.1h-14.7v20.8h-4.3v19h-2.9V264h-6v-5.8h-15.4v-6.4l-2.7-2.6h-8.9l-2.7,2.7v8h-5.2v-4.4h-8.5v4.2h-3.3v2.3h-3.5
	l-3.5-10.1H1480v9.1h-13.3v16.5h-8.9v-11.1l-4.6-4l-3.7-0.6l-1.4,2.5c0,0-3.5,1.5-3.5,2.1s0,4,0,4h-2.5v-12.5l-2.9-2.5h-5.6v5.8
	h-8.7v6.1h-2.3v-5.8h-5v4.4h-12.7v4.8h-11.8v-12.3h-12.4v-21.3l-1.9,8.6V261h-3.3v-18.6l-3.3-5h-3.9l-2.9,5.2v35l-8.5-13.3
	l-19.7-6.9l-1.2,6.5l-3.3,11.1l-5.8-5.2v-18.7h-7v8.8h-7.7v3.5c0,0-18.5-1.1-18.7,17.1H1274v-16.7h-7.5V262h-9.7v-8.1h-1.9v-14.2
	l-1.7,14.2h-1.9l-1.9-15.2v28.8h-8.3v-5.8h-3.3v-41.1c0,0-9.1-5.8-17.4,0v62.3c0,0-9.1,2.5-9.1,0s0-37.1,0-37.1l-4.4-6.9l-6,7.7
	v16.1l-3.7,0.2v-4.2l-15.6,0.4v12.1l-3.5,1.7l-8.5-4.8h-8.3l-6.1-6.1v6.6h-3.4v-5.2h-8.5V258c0,0-8.1-1.4-9.7,4v9.2l-8.9-8.8
	l-16.4,11.1c0,0,1.4-11.3,0-11.3s-10.6,0-10.6,0s0.4-8.1,0-8.1s-26.3,0-26.3,0v7.5h-5.8l-3.7-3.6h-6.4l-2.8,2.8h-26.2v3.9h-2.9v-5.2
	l-4.7-4.7h-15.3v11.6l-9,8.9v-27.2l-7.4-7.4l-7.5,7.4v18.7h-7.6v-16.1h-2.7v-22.5h-17v22.5h-3.1v19.2l-5.6-1.5l-7.2-7.2h-10.3v-8.8
	h-15v11l-11.6,5.6H879l-4.5-4.5H861l-4.6,4.6v36.3h-11.1v-50.2h-8.5v13.3h-8.1v70h837V258.1z"/>
<path class="st3" d="M0,270.3c0,0.8,24.6,0,24.6,0l3.1-7.7l16.9,4l3.8,9.1v13.1h7.7v-30l5.4-8.5H64l4.6,8.8v12.5h3.3v4h5.4v-15.2
	h3.3v-21.1h14.6v20.8h4.2v19h2.9v-2.9h6v-5.8h15.4V264l2.6-2.6h8.9l2.7,2.7v8h5.2v-4.4h8.5v4.2h3.3v2.3h3.5l3.5-10.1h23.3v9.1h13.3
	v16.5h8.8v-11.1l4.6-4l3.7-0.6l1.4,2.5c0,0,3.5,1.5,3.5,2.1s0,4,0,4h2.5v-12.5l2.9-2.5h5.6v5.8h8.7v6.1h2.3v-5.8h5v4.4h12.7v4.8
	h11.7v-12.3H284v-21.3l1.9,8.6v15.2h3.3v-18.6l3.3-5h3.8l2.9,5.2v35l8.5-13.3l19.6-6.9l1.2,6.5l3.3,11.1l5.8-5.2v-18.6h6.9v8.8h7.7
	v3.5c0,0,18.5-1.1,18.7,17.1h19.4V276h7.5v-1.9h9.6V266h1.9v-14.2L411,266h1.9l1.9-15.2v28.8h8.3v-5.8h3.3v-41.1c0,0,9-5.8,17.3,0
	V295c0,0,9,2.5,9,0s0-37.1,0-37.1l4.4-6.9l6,7.7v16.1l3.7,0.2v-4.2l15.6,0.4v12.1l3.5,1.7l8.5-4.8h8.3l6.1-6v6.6h3.4v-5.2h8.5v-5.4
	c0,0,8.1-1.4,9.6,4v9.2l8.8-8.8l16.4,11.1c0,0-1.4-11.3,0-11.3s10.6,0,10.6,0s-0.4-8.1,0-8.1s26.2,0,26.2,0v7.5h5.8l3.7-3.6h6.3
	l2.8,2.8H637v3.9h2.9v-5.2l4.7-4.7h15.3v11.6l8.9,8.9v-27.2l7.4-7.4l7.5,7.5v18.7h7.6V263h2.7v-22.5h16.9V263h3.1v19.2l5.6-1.5
	l7.2-7.2h10.3v-8.8H752v11l11.5,5.6H784l4.5-4.5h13.7l4.6,4.5V318h11.1v-50.2h8.5v13.3h8.1v70H0L0,270.3z"/>
<path class="st3" d="M831.5,270.3c0,0.8,24.6,0,24.6,0l3.1-7.7l16.9,4l3.8,9.1v13.1h7.7v-30l5.4-8.5h2.5l4.6,8.8v12.5h3.3v4h5.4
	v-15.2h3.3v-21.1h14.6v20.8h4.2v19h2.9v-2.9h6v-5.8h15.4V264l2.6-2.6h8.9l2.7,2.7v8h5.2v-4.4h8.5v4.2h3.3v2.3h3.5l3.5-10.1h23.3v9.1
	h13.3v16.5h8.8v-11.1l4.6-4l3.7-0.6l1.4,2.5c0,0,3.5,1.5,3.5,2.1s0,4,0,4h2.5v-12.5l2.9-2.5h5.6v5.8h8.7v6.1h2.3v-5.8h5v4.4h12.7
	v4.8h11.7v-12.3h12.3v-21.3l1.9,8.6v15.2h3.3v-18.6l3.3-5h3.8l2.9,5.2v35l8.5-13.3l19.6-6.9l1.2,6.5l3.3,11.1l5.8-5.2v-18.6h6.9v8.8
	h7.7v3.5c0,0,18.5-1.1,18.7,17.1h19.4V276h7.5v-1.9h9.6V266h1.9v-14.2l1.7,14.2h1.9l1.9-15.2v28.8h8.3v-5.8h3.3v-41.1
	c0,0,9-5.8,17.3,0V295c0,0,9,2.5,9,0s0-37.1,0-37.1l4.4-6.9l6,7.7v16.1l3.7,0.2v-4.2l15.6,0.4v12.1l3.5,1.7l8.5-4.8h8.3l6.1-6v6.6
	h3.4v-5.2h8.5v-5.4c0,0,8.1-1.4,9.6,4v9.2l8.8-8.8l16.4,11.1c0,0-1.4-11.3,0-11.3s10.6,0,10.6,0s-0.4-8.1,0-8.1s26.2,0,26.2,0v7.5
	h5.8l3.7-3.6h6.3l2.8,2.8h26.1v3.9h2.9v-5.2l4.7-4.7h15.3v11.6l8.9,8.9v-27.2l7.4-7.4l7.5,7.5v18.7h7.6V263h2.7v-22.5h16.9V263h3.1
	v19.2l5.6-1.5l7.2-7.2h10.3v-8.8h14.9v11l11.5,5.6h20.5l4.5-4.5h13.7l4.6,4.5V318h11.1v-50.2h8.5v13.3h8.1v70H831.5L831.5,270.3z"/>
<path class="st4" d="M0,296.8l44-22.4c0,0,0.9-14.7,1.5-14.7s8.8,0,8.8,0l1.8,9.9l25.3-11l50.4,21.2l0.7-1.2l-5.5-3.3l17.2-12.5
	l18.6,12.3L147.5,288l1.1,1l29.4-19.5l30.5,23.8l25.6-24.7l13.7,17.3l0.4-7.7l3.8,0.1l-0.5,10.9l3.7,5l-6.3,5.3l1.4,1.9l25.5-15.5
	c0,0,28,26.5,28.3,26.2s11.8-5,11.8-5v-8l6.3-0.2v3.2l12.1-5.9l17,7.3l27.8-18.2l0.1-12.1l-1-3.5h13.9l-1.1,3v4.8l24.9-16.6
	l13.4,25.2l-1.5,2.3l0.4,1l33-14.2V264l-3-0.4v-3.5h16.4v3.5l-3,0.5l0.1,6.4l28.2-12.3l49,22.3l0.5-0.9l-5.3-4.4l17.1-11.6
	c0,0,18.6,12.6,17.9,12.3s-15.5,12.3-15.5,12.3l0.8,1l30.5-19.2l29.5,23.2l26.4-25.9l13.5,18.4V277h4.3v12.2l3.6,4.4l-5.3,4.8
	l0.6,1.1l24.9-14.8l27.9,27.1l19.6-22.9l26.8,14.7l29.8-18.8v-11.2l-1.5-3.5h13.5l-1.1,3.2l-0.4,5.5l26-18.4l2.2,94.9H0L0,296.8z"/>
<g>
	<path class="st5" d="M26.8,324.2H34v7.2h-7.2V324.2z"/>
	<path class="st5" d="M36.7,324.2h7.2v7.2h-7.2V324.2z"/>
	<path class="st5" d="M26.8,334.1H34v7.2h-7.2V334.1z"/>
	<path class="st5" d="M36.7,334.1h7.2v7.2h-7.2V334.1z"/>
	<path class="st5" d="M65.4,292.7h6v6.6h-6V292.7z"/>
	<path class="st5" d="M73.6,292.7h6v6.6h-6V292.7z"/>
	<path class="st5" d="M65.4,301.8h6v6.6h-6V301.8z"/>
	<path class="st5" d="M73.6,301.8h6v6.6h-6V301.8z"/>
	<path class="st5" d="M83.2,292.7h6v6.6h-6V292.7z"/>
	<path class="st5" d="M91.4,292.7h6v6.6h-6V292.7z"/>
	<path class="st5" d="M83.2,301.8h6v6.6h-6V301.8z"/>
	<path class="st5" d="M91.4,301.8h6v6.6h-6V301.8z"/>
	<path class="st5" d="M161.1,306.9h4.7v5.2h-4.7V306.9z"/>
	<path class="st5" d="M167.6,306.9h4.7v5.2h-4.7V306.9z"/>
	<path class="st5" d="M161.1,314.1h4.7v5.2h-4.7V314.1z"/>
	<path class="st5" d="M167.6,314.1h4.7v5.2h-4.7V314.1z"/>
	<path class="st5" d="M183.5,306.9h4.7v5.2h-4.7V306.9z"/>
	<path class="st5" d="M190,306.9h4.7v5.2H190V306.9z"/>
	<path class="st5" d="M183.5,314.1h4.7v5.2h-4.7V314.1z"/>
	<path class="st5" d="M190,314.1h4.7v5.2H190V314.1z"/>
	<path class="st5" d="M161.1,327.6h4.7v5.2h-4.7V327.6z"/>
	<path class="st5" d="M167.6,327.6h4.7v5.2h-4.7V327.6z"/>
	<path class="st5" d="M161.1,334.8h4.7v5.2h-4.7V334.8z"/>
	<path class="st5" d="M167.6,334.8h4.7v5.2h-4.7V334.8z"/>
	<path class="st5" d="M183.5,327.6h4.7v5.2h-4.7V327.6z"/>
	<path class="st5" d="M190,327.6h4.7v5.2H190V327.6z"/>
	<path class="st5" d="M183.5,334.8h4.7v5.2h-4.7V334.8z"/>
	<path class="st5" d="M190,334.8h4.7v5.2H190V334.8z"/>
	<path class="st5" d="M225.1,307.8h6v6.6h-6V307.8z"/>
	<path class="st5" d="M233.4,307.8h6v6.6h-6V307.8z"/>
	<path class="st5" d="M225.1,316.9h6v6.6h-6V316.9z"/>
	<path class="st5" d="M233.4,316.9h6v6.6h-6V316.9z"/>
	<path class="st5" d="M267.2,317.2h4.7v5.2h-4.7V317.2z"/>
	<path class="st5" d="M273.7,317.2h4.7v5.2h-4.7V317.2z"/>
	<path class="st5" d="M267.2,324.4h4.7v5.2h-4.7V324.4z"/>
	<path class="st5" d="M273.7,324.4h4.7v5.2h-4.7V324.4z"/>
	<path class="st5" d="M296.5,340.3h4.7v5.2h-4.7V340.3z"/>
	<path class="st5" d="M303,340.3h4.7v5.2H303V340.3z"/>
	<path class="st5" d="M296.5,347.5h4.7v5.2h-4.7V347.5z"/>
	<path class="st5" d="M303,347.5h4.7v5.2H303V347.5z"/>
	<path class="st5" d="M328.9,307.7h4.7v5.2h-4.7V307.7z"/>
	<path class="st5" d="M335.4,307.7h4.7v5.2h-4.7V307.7z"/>
	<path class="st5" d="M328.9,314.8h4.7v5.2h-4.7V314.8z"/>
	<path class="st5" d="M335.4,314.8h4.7v5.2h-4.7V314.8z"/>
	<path class="st5" d="M349.2,332.9h4.7v5.2h-4.7V332.9z"/>
	<path class="st5" d="M355.7,332.9h4.7v5.2h-4.7V332.9z"/>
	<path class="st5" d="M349.2,340.1h4.7v5.2h-4.7V340.1z"/>
	<path class="st5" d="M355.7,340.1h4.7v5.2h-4.7V340.1z"/>
	<path class="st5" d="M384.9,307.7h6.5v7.2h-6.5V307.7z"/>
	<path class="st5" d="M393.8,307.7h6.5v7.2h-6.5V307.7z"/>
	<path class="st5" d="M384.9,317.5h6.5v7.2h-6.5V317.5z"/>
	<path class="st5" d="M393.8,317.5h6.5v7.2h-6.5V317.5z"/>
	<path class="st5" d="M443.2,324.1h6.9v7.6h-6.9V324.1z"/>
	<path class="st5" d="M452.6,324.1h6.9v7.6h-6.9V324.1z"/>
	<path class="st5" d="M443.2,334.6h6.9v7.6h-6.9V334.6z"/>
	<path class="st5" d="M452.6,334.6h6.9v7.6h-6.9V334.6z"/>
	<path class="st5" d="M482.2,293.2h5.9v6.5h-5.9V293.2z"/>
	<path class="st5" d="M490.4,293.2h5.9v6.5h-5.9V293.2z"/>
	<path class="st5" d="M482.2,302.2h5.9v6.5h-5.9V302.2z"/>
	<path class="st5" d="M490.4,302.2h5.9v6.5h-5.9V302.2z"/>
	<path class="st5" d="M499.8,293.2h5.9v6.5h-5.9V293.2z"/>
	<path class="st5" d="M508,293.2h5.9v6.5H508L508,293.2z"/>
	<path class="st5" d="M499.8,302.2h5.9v6.5h-5.9V302.2z"/>
	<path class="st5" d="M508,302.2h5.9v6.5H508L508,302.2z"/>
	<path class="st5" d="M538.7,324.9h6v6.6h-6V324.9z"/>
	<path class="st5" d="M546.9,324.9h6v6.6h-6V324.9z"/>
	<path class="st5" d="M538.7,334h6v6.6h-6V334z"/>
	<path class="st5" d="M546.9,334h6v6.6h-6V334z"/>
	<path class="st5" d="M564.6,324.9h6v6.6h-6V324.9z"/>
	<path class="st5" d="M572.8,324.9h6v6.6h-6V324.9z"/>
	<path class="st5" d="M564.6,334h6v6.6h-6V334z"/>
	<path class="st5" d="M572.8,334h6v6.6h-6V334z"/>
	<path class="st5" d="M641.8,307.9h6v6.6h-6V307.9z"/>
	<path class="st5" d="M650.1,307.9h6v6.6h-6V307.9z"/>
	<path class="st5" d="M641.8,316.9h6v6.6h-6V316.9z"/>
	<path class="st5" d="M650.1,316.9h6v6.6h-6V316.9z"/>
	<path class="st5" d="M611.2,340.6h6v6.6h-6V340.6z"/>
	<path class="st5" d="M619.5,340.6h6v6.6h-6V340.6z"/>
	<path class="st5" d="M683.2,316.9h4.7v5.2h-4.7V316.9z"/>
	<path class="st5" d="M689.7,316.9h4.7v5.2h-4.7V316.9z"/>
	<path class="st5" d="M683.2,324.1h4.7v5.2h-4.7V324.1z"/>
	<path class="st5" d="M689.7,324.1h4.7v5.2h-4.7V324.1z"/>
	<path class="st5" d="M713.2,340.2h4.7v5.2h-4.7V340.2z"/>
	<path class="st5" d="M719.7,340.2h4.7v5.2h-4.7V340.2z"/>
	<path class="st5" d="M713.2,347.4h4.7v5.2h-4.7V347.4z"/>
	<path class="st5" d="M719.7,347.4h4.7v5.2h-4.7V347.4z"/>
	<path class="st5" d="M744.7,307.6h4.7v5.2h-4.7V307.6z"/>
	<path class="st5" d="M751.1,307.6h4.7v5.2h-4.7V307.6z"/>
	<path class="st5" d="M744.7,314.8h4.7v5.2h-4.7V314.8z"/>
	<path class="st5" d="M751.1,314.8h4.7v5.2h-4.7V314.8z"/>
	<path class="st5" d="M801.3,308h6.3v7h-6.3V308z"/>
	<path class="st5" d="M810,308h6.3v7H810V308z"/>
	<path class="st5" d="M801.3,317.6h6.3v7h-6.3V317.6z"/>
	<path class="st5" d="M810,317.6h6.3v7H810V317.6z"/>
	<path class="st5" d="M760,334h4.7v5.2H760V334z"/>
	<path class="st5" d="M766.5,334h4.7v5.2h-4.7V334z"/>
	<path class="st5" d="M749.5,334l16.5-9.4l23.6,10.1l-23.9-6.4L749.5,334z"/>
	<path class="st5" d="M338,333.4l16.5-9.4l23.6,10.1l-23.8-6.4L338,333.4z"/>
	<path class="st5" d="M104.3,340.5c0,0-6.1-0.9-6.1,6.1v9h6.1h6.1v-9C110.5,339.6,104.3,340.5,104.3,340.5z"/>
	<path class="st5" d="M231.4,340.5c0,0-6.1-0.9-6.1,6.1v9h6.1h6.1v-9C237.6,339.6,231.4,340.5,231.4,340.5z"/>
	<path class="st5" d="M413.3,340.5c0,0-6.1-0.9-6.1,6.1v9h6.1h6.1v-9C419.4,339.6,413.3,340.5,413.3,340.5z"/>
	<path class="st5" d="M515.3,340.5c0,0-6.1-0.9-6.1,6.1v9h6.1h6.1v-9C521.4,339.6,515.3,340.5,515.3,340.5z"/>
	<path class="st5" d="M649.7,340.5c0,0-6.1-0.9-6.1,6.1v9h6.1h6.1v-9C655.8,339.6,649.7,340.5,649.7,340.5z"/>
	<path class="st5" d="M777.8,340.5c0,0-6.1-0.9-6.1,6.1v9h6.1h6.1v-9C784,339.6,777.8,340.5,777.8,340.5z"/>
</g>
<path class="st4" d="M1665.6,296.8l-44.1-22.4c0,0-0.9-14.7-1.5-14.7s-8.8,0-8.8,0l-1.8,9.9l-25.4-11l-50.4,21.2l-0.7-1.2l5.5-3.3
	l-17.2-12.5l-18.6,12.3l15.3,12.9l-1.1,1l-29.4-19.5l-30.5,23.8l-25.6-24.7l-13.7,17.3l-0.4-7.7l-3.8,0.1l0.5,10.9l-3.7,5l6.3,5.3
	l-1.4,1.9l-25.5-15.5c0,0-28,26.5-28.3,26.2s-11.8-5-11.8-5v-8l-6.3-0.2v3.2l-12.1-5.9l-17,7.3l-27.8-18.2l-0.1-12.1l1-3.5h-13.9
	l1.1,3v4.8l-24.9-16.6l-13.4,25.2l1.6,2.3l-0.4,1l-33-14.2V264l3-0.4v-3.5h-16.4v3.5l3,0.5l-0.1,6.4l-28.2-12.3l-49,22.3l-0.5-0.9
	l5.3-4.4l-17.1-11.6c0,0-18.6,12.6-17.9,12.3s15.5,12.3,15.5,12.3l-0.8,1l-30.5-19.2l-29.5,23.2l-26.4-25.9l-13.5,18.4V277H997v12.2
	l-3.6,4.4l5.3,4.8l-0.6,1.1l-24.9-14.8l-28,27.3l-19.6-22.9l-26.8,14.7L869,285.1v-11.2l1.5-3.5H857l1.1,3.2l0.4,5.5l-26-18.4
	l0.4,94.9h832.7L1665.6,296.8z"/>
<path class="st5" d="M1631.7,324.2h7.2v7.2h-7.2V324.2z"/>
<path class="st5" d="M1621.8,324.2h7.2v7.2h-7.2V324.2z"/>
<path class="st5" d="M1631.7,334.1h7.2v7.2h-7.2V334.1z"/>
<path class="st5" d="M1621.8,334.1h7.2v7.2h-7.2V334.1z"/>
<path class="st5" d="M1594.2,292.7h6v6.6h-6V292.7z"/>
<path class="st5" d="M1586,292.7h6v6.6h-6V292.7z"/>
<path class="st5" d="M1594.2,301.7h6v6.6h-6V301.7z"/>
<path class="st5" d="M1586,301.7h6v6.6h-6V301.7z"/>
<path class="st5" d="M1576.4,292.7h6v6.6h-6V292.7z"/>
<path class="st5" d="M1568.2,292.7h6v6.6h-6V292.7z"/>
<path class="st5" d="M1576.4,301.7h6v6.6h-6V301.7z"/>
<path class="st5" d="M1568.2,301.7h6v6.6h-6V301.7z"/>
<path class="st5" d="M1499.8,306.9h4.7v5.2h-4.7V306.9z"/>
<path class="st5" d="M1493.3,306.9h4.7v5.2h-4.7V306.9z"/>
<path class="st5" d="M1499.8,314.1h4.7v5.2h-4.7V314.1z"/>
<path class="st5" d="M1493.3,314.1h4.7v5.2h-4.7V314.1z"/>
<path class="st5" d="M1477.4,306.9h4.7v5.2h-4.7V306.9z"/>
<path class="st5" d="M1470.9,306.9h4.7v5.2h-4.7V306.9z"/>
<path class="st5" d="M1477.4,314.1h4.7v5.2h-4.7V314.1z"/>
<path class="st5" d="M1470.9,314.1h4.7v5.2h-4.7V314.1z"/>
<path class="st5" d="M1499.8,327.6h4.7v5.2h-4.7V327.6z"/>
<path class="st5" d="M1493.3,327.6h4.7v5.2h-4.7V327.6z"/>
<path class="st5" d="M1499.8,334.8h4.7v5.2h-4.7V334.8z"/>
<path class="st5" d="M1493.3,334.8h4.7v5.2h-4.7V334.8z"/>
<path class="st5" d="M1477.4,327.6h4.7v5.2h-4.7V327.6z"/>
<path class="st5" d="M1470.9,327.6h4.7v5.2h-4.7V327.6z"/>
<path class="st5" d="M1477.4,334.8h4.7v5.2h-4.7V334.8z"/>
<path class="st5" d="M1470.9,334.8h4.7v5.2h-4.7V334.8z"/>
<path class="st5" d="M1434.4,307.8h6v6.6h-6V307.8z"/>
<path class="st5" d="M1426.2,307.8h6v6.6h-6V307.8z"/>
<path class="st5" d="M1434.4,316.9h6v6.6h-6V316.9z"/>
<path class="st5" d="M1426.2,316.9h6v6.6h-6V316.9z"/>
<path class="st5" d="M1393.6,317.3h4.7v5.2h-4.7V317.3z"/>
<path class="st5" d="M1387.1,317.3h4.7v5.2h-4.7V317.3z"/>
<path class="st5" d="M1393.6,324.4h4.7v5.2h-4.7V324.4z"/>
<path class="st5" d="M1387.1,324.4h4.7v5.2h-4.7V324.4z"/>
<path class="st5" d="M1364.3,340.3h4.7v5.2h-4.7V340.3z"/>
<path class="st5" d="M1357.8,340.3h4.7v5.2h-4.7V340.3z"/>
<path class="st5" d="M1364.3,347.5h4.7v5.2h-4.7V347.5z"/>
<path class="st5" d="M1357.8,347.5h4.7v5.2h-4.7V347.5z"/>
<path class="st5" d="M1331.9,307.7h4.7v5.2h-4.7V307.7z"/>
<path class="st5" d="M1325.4,307.7h4.7v5.2h-4.7V307.7z"/>
<path class="st5" d="M1331.9,314.8h4.7v5.2h-4.7V314.8z"/>
<path class="st5" d="M1325.4,314.8h4.7v5.2h-4.7V314.8z"/>
<path class="st5" d="M1311.5,332.9h4.7v5.2h-4.7V332.9z"/>
<path class="st5" d="M1305,332.9h4.7v5.2h-4.7V332.9z"/>
<path class="st5" d="M1311.5,340.1h4.7v5.2h-4.7V340.1z"/>
<path class="st5" d="M1305,340.1h4.7v5.2h-4.7V340.1z"/>
<path class="st5" d="M1274.1,307.7h6.5v7.2h-6.5V307.7z"/>
<path class="st5" d="M1265.2,307.7h6.5v7.2h-6.5V307.7z"/>
<path class="st5" d="M1274.1,317.5h6.5v7.2h-6.5V317.5z"/>
<path class="st5" d="M1265.2,317.5h6.5v7.2h-6.5V317.5z"/>
<path class="st5" d="M1215.4,324.1h6.9v7.6h-6.9V324.1z"/>
<path class="st5" d="M1205.9,324.1h6.9v7.6h-6.9V324.1z"/>
<path class="st5" d="M1215.4,334.6h6.9v7.6h-6.9V334.6z"/>
<path class="st5" d="M1205.9,334.6h6.9v7.6h-6.9V334.6z"/>
<path class="st5" d="M1177.3,293.2h5.9v6.5h-5.9V293.2z"/>
<path class="st5" d="M1169.2,293.2h5.9v6.5h-5.9V293.2z"/>
<path class="st5" d="M1177.3,302.2h5.9v6.5h-5.9V302.2z"/>
<path class="st5" d="M1169.2,302.2h5.9v6.5h-5.9V302.2z"/>
<path class="st5" d="M1159.7,293.2h5.9v6.5h-5.9V293.2z"/>
<path class="st5" d="M1151.5,293.2h5.9v6.5h-5.9V293.2z"/>
<path class="st5" d="M1159.7,302.2h5.9v6.5h-5.9V302.2z"/>
<path class="st5" d="M1151.5,302.2h5.9v6.5h-5.9V302.2z"/>
<path class="st5" d="M1120.8,324.9h6v6.6h-6V324.9z"/>
<path class="st5" d="M1112.5,324.9h6v6.6h-6V324.9z"/>
<path class="st5" d="M1120.8,334h6v6.6h-6V334z"/>
<path class="st5" d="M1112.5,334h6v6.6h-6V334z"/>
<path class="st5" d="M1094.8,324.9h6v6.6h-6V324.9z"/>
<path class="st5" d="M1086.6,324.9h6v6.6h-6V324.9z"/>
<path class="st5" d="M1094.8,334h6v6.6h-6V334z"/>
<path class="st5" d="M1086.6,334h6v6.6h-6V334z"/>
<path class="st5" d="M1017.6,307.9h6v6.6h-6V307.9z"/>
<path class="st5" d="M1009.3,307.9h6v6.6h-6V307.9z"/>
<path class="st5" d="M1017.6,316.9h6v6.6h-6V316.9z"/>
<path class="st5" d="M1009.3,316.9h6v6.6h-6V316.9z"/>
<path class="st5" d="M1048.2,340.6h6v6.6h-6V340.6z"/>
<path class="st5" d="M1040,340.6h6v6.6h-6V340.6z"/>
<path class="st5" d="M977.5,316.9h4.7v5.2h-4.7V316.9z"/>
<path class="st5" d="M971,316.9h4.7v5.2H971V316.9z"/>
<path class="st5" d="M977.5,324.1h4.7v5.2h-4.7V324.1z"/>
<path class="st5" d="M971,324.1h4.7v5.2H971V324.1z"/>
<path class="st5" d="M947.4,340.2h4.7v5.2h-4.7V340.2z"/>
<path class="st5" d="M940.9,340.2h4.7v5.2h-4.7V340.2z"/>
<path class="st5" d="M947.4,347.4h4.7v5.2h-4.7V347.4z"/>
<path class="st5" d="M940.9,347.4h4.7v5.2h-4.7V347.4z"/>
<path class="st5" d="M916,307.6h4.7v5.2H916V307.6z"/>
<path class="st5" d="M909.5,307.6h4.7v5.2h-4.7V307.6z"/>
<path class="st5" d="M916,314.8h4.7v5.2H916V314.8z"/>
<path class="st5" d="M909.5,314.8h4.7v5.2h-4.7V314.8z"/>
<path class="st5" d="M857.7,308h6.4v7h-6.4V308z"/>
<path class="st5" d="M849,308h6.4v7H849V308z"/>
<path class="st5" d="M857.7,317.6h6.4v7h-6.4V317.6z"/>
<path class="st5" d="M849,317.6h6.4v7H849V317.6z"/>
<path class="st5" d="M900.6,334h4.7v5.2h-4.7V334z"/>
<path class="st5" d="M894.1,334h4.7v5.2h-4.7V334z"/>
<path class="st5" d="M915.9,334l-16.5-9.4l-23.6,10.1l23.8-6.4L915.9,334z"/>
<path class="st5" d="M1327.5,333.4L1311,324l-23.7,10.1l23.9-6.4L1327.5,333.4z"/>
<path class="st5" d="M1561.3,340.5c0,0,6.1-0.9,6.1,6.1v9h-6.1h-6.1v-9C1555.1,339.6,1561.3,340.5,1561.3,340.5z"/>
<path class="st5" d="M1434.1,340.5c0,0,6.1-0.9,6.1,6.1v9h-6.1h-6.1v-9C1428,339.6,1434.1,340.5,1434.1,340.5z"/>
<path class="st5" d="M1252.2,340.5c0,0,6.1-0.9,6.1,6.1v9h-6.1h-6.1v-9C1246.1,339.6,1252.2,340.5,1252.2,340.5z"/>
<path class="st5" d="M1150.1,340.5c0,0,6.1-0.9,6.1,6.1v9h-6.1h-6.1v-9C1144,339.6,1150.1,340.5,1150.1,340.5z"/>
<path class="st5" d="M1015.7,340.5c0,0,6.1-0.9,6.1,6.1v9h-6.1h-6.1v-9C1009.6,339.6,1015.7,340.5,1015.7,340.5z"/>
<path class="st5" d="M887.5,340.5c0,0,6.1-0.9,6.1,6.1v9h-6.1h-6.1v-9C881.4,339.6,887.5,340.5,887.5,340.5z"/>
</svg>
