<svg enable-background="new 0 0 1920.1 668.8" viewBox="0 0 1920.1 668.8" xmlns="http://www.w3.org/2000/svg" xmlns:xlink="http://www.w3.org/1999/xlink"><linearGradient id="a" gradientTransform="matrix(-1 0 0 -1 1918.8063 669.8898)" gradientUnits="userSpaceOnUse" x1="835.0681" x2="835.0681" y1="56.375" y2="266.9898"><stop offset="0" stop-color="#81b031"/><stop offset=".2145" stop-color="#7caa2e"/><stop offset=".4943" stop-color="#6e9a25"/><stop offset=".809" stop-color="#567f17"/><stop offset=".9374" stop-color="#4b7210"/></linearGradient><path d="m1919.5 594.4c-19.8 8.8-46.3 10.3-61.5 10.1-80.1-1.4-207.4-54.2-308.9-54.2-52.1 0-92.4 12.2-123.3 23-41.5 14.6-41.5 14.6-78.3 26.4-24.7 7.9-74.3 17.7-133.2 12.1-59.3-5.6-100.9-23.7-144.9-45.6-32.6-16.3-129.4-75.8-149.6-86.6-24.4-13-76.4-55-157.3-60.5-62.7-4.3-91.8 8.4-137.1 24-60.7 20.9-147 62.4-223.3 60.5-87.9-2.2-122.1-28.2-154.1-44v-56.8h1671.4v191.6z" fill="url(#a)"/><path d="m1920 440.3v-440.3h-1920v440.3 207.8c22.7 9.6 53.2 11.2 70.7 11 92-1.5 238.3-58.8 354.8-58.8 59.9 0 106.2 13.2 141.6 25 47.7 15.8 47.7 15.8 90 28.6 28.4 8.6 85.3 19.2 153 13.2 68.1-6 115.9-25.7 166.5-49.5 37.5-17.7 148.6-82.2 171.8-94 28-14.1 87.8-59.6 180.7-65.6 72-4.7 105.5 9.1 157.5 26 69.7 22.7 168.9 67.7 256.5 65.7 101-2.4 140.3-30.6 177-47.7z" fill="#81b030"/></svg>