<svg version="1.1" id="Layer_1" xmlns="http://www.w3.org/2000/svg" xmlns:xlink="http://www.w3.org/1999/xlink" x="0px" y="0px"
	 viewBox="0 0 100 100" style="enable-background:new 0 0 100 100;" xml:space="preserve">
<g id="QjgJW1.tif">
	<g>
		<path d="M9,93.8c0-24.5,0-49,0-73.6c2.6-6.5,8.1-6.5,13.6-6.1c1.6-5.7,3.3-7,8.7-7c2.3,0,4.6,0.1,6.9,0c0.7,0,1.9-0.2,2.2-0.7
			c1.9-3.6,5-5.3,8.5-6.6c0.9,0,1.8,0,2.8,0c2.2,1.3,5.2,2,6.5,3.9c2.4,3.6,5.4,3.7,8.8,3.5c0.8-0.1,1.7,0,2.5,0
			c5.9,0,7.4,1.1,9.2,7c1.3,0,2.7,0,4.1,0c6.2,0,9.3,3.3,9.3,9.6c0,21.9,0,43.9,0,65.8c0,7.3-2.9,10.3-10.1,10.3
			c-20.8,0-41.7-0.1-62.5,0.1C14.6,100,11,98.5,9,93.8z M78.2,28.5c-18.6,0-36.8,0-55.4,0c0-2.4,0-4.7,0-7.1c-1,0-1.7,0-2.4,0
			c-4.3,0-4.3,0-4.3,4.5c0,21.2,0,42.4-0.1,63.5c0,2.6,0.8,3.4,3.3,3.3c20.8-0.1,41.7-0.1,62.5,0c2.7,0,3.2-0.9,3.2-3.4
			c-0.1-20.7,0-41.4-0.1-62.1c0-6.4,1.4-5.9-6-5.7c-0.2,0-0.3,0.1-0.7,0.3C78.2,23.9,78.2,26.1,78.2,28.5z M30,21.2
			c13.8,0,27.4,0,40.9,0c0-2.4,0-4.5,0-6.8c-3.8,0-7.4,0-11,0c-3.7,0-4.7-1-6.2-4.6c-0.5-1.1-2.1-2.5-3.2-2.5
			c-1.1,0-2.7,1.3-3.2,2.5c-1.5,3.6-2.5,4.6-6.2,4.6c-3.7,0-7.3,0-11.1,0C30,16.9,30,18.9,30,21.2z"/>
		<path d="M32.8,62.5c3.5-3.4,6.7-6.5,9.8-9.7c0.7-0.7,1.3-1.4,2-2c1.6-1.3,3.3-1.4,4.7,0c1.6,1.5,1.6,3.5,0.1,5.1
			c-4.5,4.8-9.2,9.6-13.9,14.3c-1.6,1.7-3.5,1.5-5.1-0.1c-2.2-2.2-4.5-4.5-6.6-6.9c-1.5-1.6-1.6-3.5-0.2-5.1c1.6-1.8,3.5-1.6,5.1,0
			C30.3,59.6,31.6,61.1,32.8,62.5z"/>
		<path d="M64.8,78.4c-3.2,0-6.4,0-9.7,0c-2.4,0-3.8-1.2-3.8-3.5c-0.1-2.3,1.5-3.7,3.7-3.7c6.4-0.1,12.9-0.1,19.3,0
			c2.5,0,4,1.7,3.8,3.9c-0.2,2.4-1.7,3.4-3.9,3.4C71.1,78.4,67.9,78.4,64.8,78.4z"/>
		<path d="M67.6,49.9c-2.3,0-4.6,0-6.9,0c-2.2,0-3.5-1.1-3.6-3.4c-0.1-2.3,1.2-3.7,3.2-3.8c4.9-0.2,9.7-0.2,14.6,0
			c2,0.1,3.4,1.5,3.2,3.8c-0.2,2.3-1.5,3.3-3.7,3.3C72.2,49.9,69.9,49.9,67.6,49.9z"/>
		<path d="M67.3,64.2c-2.3,0-4.6,0-6.9,0c-2.1,0-3.2-1.2-3.4-3.3c-0.2-2.1,1-3.7,2.9-3.8c5-0.2,10.1-0.2,15.1,0c2,0.1,3.3,1.7,3,4
			c-0.3,2.1-1.6,3.1-3.6,3.1C72.1,64.2,69.7,64.2,67.3,64.2z"/>
	</g>
</g>
</svg>
