<svg enable-background="new 0 0 100 100" viewBox="0 0 100 100" xmlns="http://www.w3.org/2000/svg"><path d="m41.6 84.5c5.8-5.1 11-9.2 15.6-13.9 1.3-1.3 1.6-4.4 1.1-6.3-.5-2.2-2.4-3.1-5.1-1.6-2.8 1.7-6 3-9.1 3.8-3.4.9-6.6-.2-7.2-4.2-.5-3.7 2-6 5.4-6.6 2.9-.5 6-.5 9-.2 5.5.5 6.6-3.7 8.1-7.2 1.7-3.8.7-7.3-2.7-9.7-.9-.6-3-.3-4.2.3-3.2 1.7-6.1 4.1-9.3 5.8-3.1 1.6-6.4 1.8-8.3-1.7-1.8-3.2-.1-6.3 2.7-7.6 3.9-1.9 8.2-3.4 12.5-4.1 4-.7 8.4-5.7 8.7-11.5.3-4.8-2.2-7.6-7.6-7.9-2.3-.1-4.6.6-6.9.5-1.4-.1-2.7-1.1-4-1.7 1.2-1.1 2.3-2.1 3.5-3.2.1-.1.3 0 .5-.1 6.6-.7 13.6-1.6 17.6 5 4.5 7.3.9 14.1-3.4 20.3 8.5 10.3 8.7 13.7 1.3 25.2 5.9 7.6 5.4 12.7-2 19.3-3 2.6-6.1 5.1-8.8 8.3 2.5-.7 4.9-1.7 7.4-2.1 1.1-.2 2.4.8 3.7 1.3-.7 1.1-1.3 2.8-2.3 3.1-5.3 2-10.6 3.9-16 5.5-3.5 1-5.7-.9-5.6-4.4.3-5.5 1.1-10.9 2-16.4.2-1.1 1.8-1.9 2.8-2.8.6 1.2 1.7 2.3 1.7 3.5-.1 3.2-.6 6.5-1.1 11.3z"/></svg>