<?xml version="1.0" encoding="utf-8"?>
<!-- Generator: Adobe Illustrator 25.2.3, SVG Export Plug-In . SVG Version: 6.00 Build 0)  -->
<svg version="1.1" id="Layer_1" xmlns="http://www.w3.org/2000/svg" xmlns:xlink="http://www.w3.org/1999/xlink" x="0px" y="0px"
	 viewBox="0 0 158.5 158.5" style="enable-background:new 0 0 158.5 158.5;" xml:space="preserve">
<style type="text/css">
	.st0{fill:#81B031;}
	.st1{fill:#060704;}
	.st2{fill:#FFFFFF;}
</style>
<g>
	<path class="st0" d="M12,155c-4.7,0-8.5-3.8-8.5-8.5V12c0-4.7,3.8-8.5,8.5-8.5h134.5c4.7,0,8.5,3.8,8.5,8.5v134.5
		c0,4.7-3.8,8.5-8.5,8.5H12z"/>
	<path class="st1" d="M146.5,7c2.8,0,5,2.2,5,5v134.5c0,2.8-2.2,5-5,5H12c-2.8,0-5-2.2-5-5V12c0-2.8,2.2-5,5-5H146.5 M146.5,0H12
		C5.4,0,0,5.4,0,12v134.5c0,6.6,5.4,12,12,12h134.5c6.6,0,12-5.4,12-12V12C158.5,5.4,153.1,0,146.5,0L146.5,0z"/>
</g>
<g>
	<path d="M50.8,24.8c2.8,1.4,5.2,3.2,5.5,6.7c0.3,4-2,7.3-5.9,8.2c-3.5,0.8-7.2-1.1-8.6-4.5c-1.5-3.6,0-7.6,3.5-9.5
		c0.5-0.3,1.1-0.6,1.6-0.9C48.3,24.8,49.5,24.8,50.8,24.8z"/>
	<path d="M57.7,101.8c-1.2-1.7-2.7-3.1-3.4-4.9c-1.8-5-3.3-10.2-5-15.2c-0.8-2.4-0.4-4.4,1.4-6.2c2.9-3.1,5.7-6.3,8.8-9.7
		c-1.8-2.3-3.5-4.6-5.3-6.9c-1.7-2.2-3.4-4.4-5.3-6.9c-5.2,2.7-10.3,5.4-15.4,8.1c-0.8,0.4-1.6,0.8-2.4,1.2c-2.1,1-3.9,0.6-5.2-1.4
		c-1.2-1.9-0.5-4.1,1.7-5.3c8.4-4.5,16.8-9,25.2-13.4c0.8-0.4,1.9-0.6,2.9-0.6c10.1,0,20.2,0,30.2,0c2,0,3.9,0.6,4.2,2.7
		c0.2,1.3-0.4,3-1.3,4c-0.6,0.7-2.1,0.8-3.3,0.9c-6.1,0.1-12.1,0-18.8,0c3,3.9,5.4,7.6,8.3,10.9c2.2,2.6,3,5.3,2.1,8.5
		c-1.3,4.7-0.6,8.6,3.7,11.5c1.3,0.9,2.3,2.3,3.5,3.4c2.3,2,3.5,4.3,1.7,7.6c4.9-1.4,8.9-3.3,12.1-7c2.4-2.8,4.2-3.1,5.7-1.6
		c1.6,1.5,1,3.1-1.5,6c-3.1,3.5-6.8,5.8-11.1,7.4c-12.8,4.9-25.3,10.4-38.2,15c-3.8,1.4-8.4,0.8-12.6,0.7c-0.7,0-2-1.7-2-2.7
		c0-0.9,1.1-2.2,2-2.8c0.7-0.5,1.9-0.4,2.9-0.3C48.8,105.7,53.7,103.7,57.7,101.8z M67.2,70.7c-0.8,0.8-1.6,1.7-2.3,2.5
		c-2.1,2.4-5.3,4.6-5.9,7.3c-0.6,2.7,1.6,6,2.4,9c0.9,3.2,2.9,6.3,1.2,10.3c6.7-2.7,12.8-5.1,18.7-7.5c-3-2.9-5.8-6-8.9-8.7
		c-4-3.4-6.7-7.1-5-12.6C67.6,71,67.5,71,67.2,70.7z"/>
	<path d="M95.8,99.7c0,2.1-1.7,3.7-3.9,3.7c-2.1,0-3.7-1.7-3.6-3.9c0.1-2.3,1.5-3.4,3.7-3.5C94.1,95.9,95.8,97.6,95.8,99.7z"/>
	<path d="M62.4,113.4c0,2.1-1.7,3.7-3.9,3.6c-2.1-0.1-3.7-1.8-3.6-3.9c0.2-2.2,1.5-3.4,3.7-3.5C60.9,109.5,62.5,111.3,62.4,113.4z"
		/>
</g>
<g>
	<path class="st2" d="M27.8,130.8v-0.2c1.2-0.2,2.5-0.3,3.7-0.5c4.6-0.6,9.3-1.3,13.9-2.1c24.8-4.6,43.6-11.8,59.1-22.7
		c12.1-8.5,20.3-18.5,25-30.6c0.3,0,0.7,0,1.1,0v56.1H27.8z"/>
	<path d="M127.7,85.4v42.3H60.5c18.3-4.6,33.1-11.1,45.8-20C115.6,101.2,122.6,93.9,127.7,85.4 M129.2,71.6c-1.3,0-1.9,0.7-2.4,1.9
		c-4.8,12.3-13.3,21.8-24,29.2c-17.5,12.2-37.3,18.4-58,22.2c-6.7,1.2-13.4,2-20.1,3c0,1.9,0,3.8,0,5.8c36.4,0,72.6,0,108.9,0
		c0-20.7,0-41.4,0-62.1c-0.9,0-1.8,0.1-2.7,0.1c-0.5,0-0.9,0-1.4-0.1C129.5,71.6,129.3,71.6,129.2,71.6L129.2,71.6z"/>
</g>
</svg>
