<svg enable-background="new 0 0 158.5 158.5" viewBox="0 0 158.5 158.5" xmlns="http://www.w3.org/2000/svg"><path d="m12 155c-4.7 0-8.5-3.8-8.5-8.5v-134.5c0-4.7 3.8-8.5 8.5-8.5h134.5c4.7 0 8.5 3.8 8.5 8.5v134.5c0 4.7-3.8 8.5-8.5 8.5z" fill="#81b031"/><path d="m146.5 7c2.8 0 5 2.2 5 5v134.5c0 2.8-2.2 5-5 5h-134.5c-2.8 0-5-2.2-5-5v-134.5c0-2.8 2.2-5 5-5zm0-7h-134.5c-6.6 0-12 5.4-12 12v134.5c0 6.6 5.4 12 12 12h134.5c6.6 0 12-5.4 12-12v-134.5c0-6.6-5.4-12-12-12z" fill="#060704"/><path d="m85.3 24.7c1 .5 1.3 1.4 1.3 2.5-.1 2.6 0 5.2 0 7.8 0 .8.2 1.1 1 1.3 2 .4 3.9.9 5.8 1.5.9.3 1.4.1 1.9-.6 3.7-4.4 10.1-5.7 15.2-3 1.5.8 1.8 1.7.9 3.2-1.3 2.3-2.6 4.6-4 6.9-.2.3-.4.7-.5.9 1.8 1.9 3.6 3.8 5.4 5.5.2.2.9.1 1.3 0 4.8-1.7 10.1-.4 13.5 3.3.5.6 1 1.2 1.4 1.8.9 1.3.6 2.3-.7 3.1-2.4 1.4-4.9 2.8-7.3 4.2-.2.1-.4.3-.5.3.6 2.5 1.2 5 1.9 7.4.1.3.5.6.9.7 5.5.8 9.9 5.4 10.5 10.9 0 .4.1.8.1 1.3 0 1.4-.7 2.1-2.1 2.1-3.1 0-6.1 0-9.3 0-.1.3-.2.6-.3.9-.5 2-1.1 4.1-1.7 6.1-.2.7-.1 1.1.5 1.6 4.5 3.7 5.8 10.3 3.2 15.4-.8 1.6-1.7 1.8-3.3.9-2.3-1.3-4.5-2.5-6.7-3.9-.9-.6-1.4-.4-2 .4-.3.5-.7.9-1.1 1.3-.9 1-2 1.1-2.8.4s-.7-1.8.1-2.7c.9-1 1.7-2 2.6-3 .9-1.1 1.6-1.2 2.9-.5 2.2 1.2 4.3 2.5 6.5 3.7.3.2.7.4 1 .5 1.4-2.9.3-7.6-2.9-9.8-2.9-2-2.3-2.3-1.5-4.9s1.4-5.2 2-7.9c.3-1.5.8-2 2.4-2h8.7c-.8-3.3-2.7-5.5-5.7-6.6-1-.4-2.1-.5-3.2-.6-1.3-.1-1.8-.6-2.1-1.9-.8-3.1-1.6-6.2-2.5-9.3-.4-1.4-.2-2.1 1-2.8 2.2-1.3 4.3-2.5 6.5-3.7.3-.2.6-.4 1-.6-2.3-2.8-6.6-3.9-9.9-2.4-2.7 1.2-2.6 1.7-5.1-1.2-1.7-1.9-3.6-3.6-5.5-5.4-1.4-1.3-1.6-1.8-.6-3.4 1.4-2.4 2.8-4.8 4.2-7.2-3.1-1.4-7.6-.1-9.8 2.8-1.9 2.7-1.9 2.6-5.1 1.5-2.5-.9-5.2-1.4-7.8-1.9-1.5-.3-2-.8-2-2.4 0-2.8 0-5.7 0-8.6-3.3.3-6.4 3.5-7 7.1-.1.6-.1 1.2-.2 1.8-.1 1.2-.6 1.7-1.8 2-3.2.8-6.4 1.7-9.6 2.5-1.3.4-2 .2-2.7-1-1.3-2.2-2.5-4.4-3.8-6.6-.2-.3-.4-.6-.6-1-2.8 2.3-3.9 6.7-2.4 10 1.2 2.7 1.6 2.7-1.2 5.1-2 1.7-3.7 3.7-5.4 5.6-1.3 1.4-1.8 1.5-3.4.6-2.1-1.2-4.2-2.4-6.3-3.6-.3-.2-.6-.3-.9-.5-1.3 3.2-.1 7.7 2.9 9.8 2.6 1.9 2.6 1.9 1.5 5.1-.9 2.5-1.4 5.2-2 7.8-.3 1.5-.8 2-2.4 2-2.8 0-5.7 0-8.6 0 .5 3.8 4 6.9 8.1 7.2 2.4.2 2.5.4 3 2.7.6 2.8 1.4 5.6 2.2 8.3.5 1.7.4 2.3-1.2 3.2-2.4 1.4-4.8 2.8-7.3 4.2 2 2.1 4.3 3.2 7.1 3 1.4-.1 2.8-.7 4.2-1.2 1.3-.5 1.9-.5 2.8.6 1.2 1.3 2.3 2.6 3.4 3.9.9 1 1 2 .2 2.8s-1.9.6-2.9-.4c-.7-.7-1.4-1.5-2.1-2.3-.5-.7-1-.8-1.9-.5-5.4 2-11.7-.2-14.8-5-.9-1.4-.7-2.4.8-3.2l7.8-4.5c-.6-2.5-1.2-5-1.9-7.4-.1-.3-.4-.6-.7-.6-6-1.2-9.5-4.8-10.7-10.7 0-.1-.1-.1-.1-.2 0-.7 0-1.4 0-2.1.5-1 1.3-1.3 2.4-1.3 2.7.1 5.4 0 8 0 .7 0 1-.2 1.2-.9.5-2 1-4 1.6-6 .3-.8.1-1.2-.5-1.8-4.3-3.6-5.7-9.7-3.3-14.8 1-2.1 1.8-2.4 3.8-1.2 2.5 1.4 5 2.9 7.4 4.3 1.7-1.7 3.4-3.3 5.1-4.9.7-.6.8-1.1.5-2-1.9-5.3.1-11.3 4.7-14.5 1.8-1.2 2.7-1 3.7.8 1.5 2.5 2.9 5 4.3 7.5 2.4-.6 4.7-1.2 7-1.8.7-.2 1-.5 1.2-1.2.6-3.7 2.6-6.6 5.8-8.5 1.5-.9 3.3-1.3 5-1.9.9-.2 1.6-.2 2.3-.2z"/><path d="m25.3 116.2c1.2-1.5 2.1-1.6 3.5-.2.8.7 1.6 1.5 2.4 2.2 3 2.8 6.7 2.8 9.8 0 .8-.7 1.6-1.5 2.4-2.3 4.2-3.9 10.2-3.9 14.4 0 .7.6 1.3 1.3 2 1.9 3.4 3.3 7.1 3.2 10.5-.1.9-.9 1.8-1.7 2.7-2.5 3.8-3 9.1-3 12.9 0 1.4 1.2 2.7 2.5 4.1 3.6 2.2 1.7 5.5 1.7 7.7 0 1.2-.9 2.2-1.9 3.3-3 4.3-4 10.3-4.1 14.6 0 .7.7 1.5 1.4 2.2 2.1 3.1 2.8 6.8 2.8 9.8 0 .9-.8 1.8-1.7 2.7-2.5s1.9-.8 2.6-.1c.7.8.7 1.8-.1 2.6-1.2 1.2-2.5 2.4-3.8 3.5-3.9 3.1-9.2 3-12.9-.2-1-.8-1.9-1.8-2.9-2.7-3.1-2.9-6.9-2.9-10 0-.7.7-1.5 1.4-2.2 2.1-4.3 3.9-10.2 3.9-14.5-.1-1.1-1-2.2-2.1-3.4-3-2.1-1.6-5.4-1.6-7.5 0-1.2.9-2.2 1.9-3.3 3-4.3 4.1-10.3 4.1-14.7 0-.7-.7-1.5-1.4-2.2-2.1-3-2.8-6.8-2.8-9.7 0-.8.7-1.5 1.5-2.3 2.2-4.3 4-10.3 4-14.6 0-1.2-1.2-2.3-2.4-3.5-3.6 0-.1 0-.5 0-.8z"/><path d="m25.3 125.3c1.1-1.6 2.1-1.7 3.5-.3.8.7 1.6 1.5 2.4 2.2 3.1 2.8 6.8 2.8 9.9-.1.7-.7 1.4-1.3 2.1-2 4.4-4.1 10.3-4.1 14.7 0 1.1 1 2.1 2 3.2 2.9 2.2 1.7 5.5 1.8 7.7 0 1.1-.9 2.2-1.9 3.2-2.9 4.3-4.1 10.4-4.1 14.6 0 .8.8 1.6 1.5 2.4 2.3 3.1 2.7 6.7 2.6 9.7-.2.8-.7 1.5-1.5 2.3-2.2 4.3-3.9 10.1-3.9 14.4 0 1.1 1 2.2 2.1 3.4 3 2.2 1.7 5.5 1.7 7.7 0 1.3-1 2.4-2.2 3.7-3.3.5-.4 1.1-.7 1.7-.7.5.1 1.2.6 1.4 1 .2.5.1 1.4-.3 1.8-1.6 1.6-3.2 3.2-5 4.5-3.8 2.5-8.9 1.8-12.5-1.4-1.1-1-2.1-2.1-3.3-3-2.3-1.8-5.6-1.8-7.9 0-1.1.9-2.1 1.9-3.1 2.8-4.2 4-10.2 4.1-14.5.1-.8-.7-1.6-1.5-2.4-2.3-3-2.8-6.8-2.8-9.8 0-.8.7-1.6 1.5-2.4 2.3-4.3 3.9-10.2 3.8-14.4-.2-.8-.7-1.5-1.5-2.3-2.2-3-2.7-6.6-2.7-9.7 0-.8.7-1.5 1.5-2.3 2.2-4.1 3.9-9.9 4.1-14.2.4-1.4-1.2-2.6-2.6-4-3.9.1-.1.1-.5.1-.8z"/><path d="m83.4 75.2h8c.9 0 1.8.1 2.2 1.1.4.9 0 1.6-.6 2.3-5.8 6.9-11.5 13.8-17.3 20.8-.8 1-1.7 1.3-2.6.9s-1.1-1.2-.8-2.6c.9-3.5 1.8-7.1 2.6-10.6.1-.3.1-.6.2-1-2.7 0-5.2 0-7.8 0-.9 0-1.8-.1-2.2-1-.5-.9 0-1.7.5-2.4 5.7-8 11.5-16 17.2-24 .1-.1.2-.2.2-.3.7-.9 1.5-1.2 2.4-.9.8.4 1.2 1.2 1 2.3-.4 2.2-.9 4.3-1.3 6.5-.5 2.8-1.1 5.8-1.7 8.9zm4.7 3.6c-2.4 0-4.5 0-6.7 0-1.6 0-2.3-1-2-2.5.2-1.1.4-2.2.7-3.3.4-1.9.7-3.8 1.1-5.7-.1 0-.1 0-.2-.1-3.6 5-7.1 10-10.8 15.1h6.4c2.4 0 3 .8 2.4 3.2-.5 1.8-.9 3.7-1.4 5.5 0 0 .1.1.1.1 3.5-4 6.9-8.1 10.4-12.3z"/><path d="m88.1 78.8c-3.5 4.3-6.9 8.3-10.3 12.3 0 0-.1-.1-.1-.1.5-1.8.9-3.7 1.4-5.5.6-2.3-.1-3.2-2.4-3.2-2.1 0-4.1 0-6.4 0 3.7-5.2 7.3-10.2 10.8-15.1.1 0 .1 0 .2.1-.4 1.9-.7 3.8-1.1 5.7-.2 1.1-.5 2.2-.7 3.3-.3 1.5.5 2.5 2 2.5z" fill="#fff"/></svg>