<svg enable-background="new 0 0 158.5 158.5" viewBox="0 0 158.5 158.5" xmlns="http://www.w3.org/2000/svg"><path d="m12 155c-4.7 0-8.5-3.8-8.5-8.5v-134.5c0-4.7 3.8-8.5 8.5-8.5h134.5c4.7 0 8.5 3.8 8.5 8.5v134.5c0 4.7-3.8 8.5-8.5 8.5z" fill="#81b031"/><path d="m146.5 7c2.8 0 5 2.2 5 5v134.5c0 2.8-2.2 5-5 5h-134.5c-2.8 0-5-2.2-5-5v-134.5c0-2.8 2.2-5 5-5zm0-7h-134.5c-6.6 0-12 5.4-12 12v134.5c0 6.6 5.4 12 12 12h134.5c6.6 0 12-5.4 12-12v-134.5c0-6.6-5.4-12-12-12z" fill="#060704"/><path d="m126.6 126.7c-31.2 0-62.4 0-93.6 0 0-.5 0-.9 0-1.4 0-17.2 0-34.5 0-51.7 0-1.2-.1-2.4-.8-3.5-.5-.8-.8-1.8-1-2.8-.9-3.7-.5-7.5.2-11.1 1.3-7.1 1.9-14.2 1.6-21.4 0-.5 0-1 0-1.6h93.6v1.3c0 6.4-.3 12.9 1.2 19.2.6 2.3.7 4.8 1 7.1v4.2c-.6 1.9-1.2 3.8-1.8 5.7-.2.6-.4 1.2-.4 1.7v19.1zm-35.6-4.5c0-13.4 0-26.7 0-40h24.6v39.9h6.6c0-15.8 0-31.4 0-47.2-4.3 1.3-7.9 0-11.1-2.7-5.9 4.3-9.1 4.3-15.7 0-2.2 1.9-4.7 3.2-7.8 3.2-3 0-5.5-1.3-7.8-3.2-5.3 4.3-10.5 4.2-15.6 0-2.3 1.9-4.8 3.2-7.8 3.2s-5.5-1.3-7.8-3.2c-3.3 2.7-6.9 3.9-11.1 2.7v47.3zm-53.5-78h84.5c0-2.2 0-4.4 0-6.5-28.2 0-56.4 0-84.5 0zm73.4 78c0-11.9 0-23.8 0-35.5-5.2 0-10.3 0-15.4 0v35.5zm-13.2-73.4c0 .3-.1.5-.1.8v18.2c0 .5.4 1.1.7 1.4 2.7 2.3 6.6 2.3 9.4.2.7-.5 1-1.1 1-2 0-5.8 0-11.6 0-17.4 0-.4 0-.8 0-1.3-3.7.1-7.3.1-11 .1zm-46.7 0c-.1.3-.1.4-.1.5v18.6c0 .4.4 1 .7 1.3 2.8 2.4 6.5 2.4 9.5.2.7-.5 1-1.1.9-2 0-5.7 0-11.5 0-17.2 0-.4 0-.9 0-1.4-3.7 0-7.3 0-11 0zm31.1 0c0 .3-.1.5-.1.7v18.3c0 .4.3 1 .7 1.3 2.7 2.4 6.6 2.5 9.5.3.6-.5.9-1 .9-1.8 0-5.9 0-11.7 0-17.6 0-.4 0-.8-.1-1.2-3.6 0-7.2 0-10.9 0zm-15.5 0c-.1.2-.1.3-.1.4v18.7c0 .4.3.9.6 1.1 2.8 2.6 7.2 2.6 9.9 0 .3-.3.6-.9.6-1.4 0-6 0-12 0-18 0-.3 0-.6-.1-.9-3.6.1-7.2.1-10.9.1zm-20.2-.1c-2.8 0-5.5 0-8.1 0-.9 0-1.2.3-1.3 1.1-.5 3.1-1 6.2-1.4 9.4-.3 2.6-.5 5.2.2 7.8.8 3 3 4.4 5.9 3.9 1.3-.2 2.5-.9 3.7-1.5.8-.4 1-1.1 1-2 0-5.6 0-11.2 0-16.9 0-.5 0-1.1 0-1.8zm66.9 0v1.6 16c0 2.6.4 3.4 3 4.1 1.4.4 3 .3 4.5.3.5 0 1.1-.3 1.4-.7 1.1-1.3 2-2.7 2.2-4.6.5-5.5-.8-10.8-1.7-16.2 0-.2-.5-.5-.8-.5-2.9 0-5.7 0-8.6 0z"/><g fill="#fff"><path d="m91 122.2c-17.9 0-35.6 0-53.4 0 0-15.7 0-31.4 0-47.3 4.2 1.3 7.8.1 11.1-2.7 2.3 1.9 4.8 3.2 7.8 3.2s5.5-1.2 7.8-3.2c5.1 4.2 10.3 4.3 15.6 0 2.2 1.8 4.7 3.2 7.8 3.2 3 0 5.5-1.3 7.8-3.2 6.6 4.3 9.8 4.3 15.7 0 3.2 2.7 6.8 4 11.1 2.7v47.2c-2.1 0-4.3 0-6.6 0 0-13.3 0-26.6 0-39.9-8.2 0-16.3 0-24.6 0-.1 13.4-.1 26.6-.1 40zm-6.8-6.7c0-11.1 0-22.2 0-33.3-13.4 0-26.6 0-39.9 0v33.3z"/><path d="m37.5 44.2c0-2.2 0-4.3 0-6.5h84.5v6.5c-28.1 0-56.2 0-84.5 0z"/><path d="m110.9 122.2c-5.2 0-10.2 0-15.4 0 0-11.8 0-23.6 0-35.5h15.4z"/><path d="m97.7 48.8h11.1v1.3 17.4c0 .9-.3 1.4-1 2-2.9 2.2-6.8 2.1-9.4-.2-.4-.3-.7-.9-.7-1.4 0-6.1 0-12.1 0-18.2-.1-.3 0-.6 0-.9z"/><path d="m51 48.8h11v1.4 17.2c0 .9-.3 1.4-.9 2-2.9 2.3-6.7 2.2-9.5-.2-.4-.3-.7-.9-.7-1.3 0-6.2 0-12.4 0-18.6 0-.1 0-.2.1-.5z"/><path d="m82.1 48.8h11c0 .4.1.8.1 1.2v17.6c0 .8-.3 1.4-.9 1.8-2.9 2.2-6.8 2.1-9.5-.3-.3-.3-.7-.9-.7-1.3 0-6.1 0-12.2 0-18.3 0-.2 0-.4 0-.7z"/><path d="m66.6 48.8h10.9c0 .3.1.6.1.9v18c0 .5-.2 1-.6 1.4-2.8 2.6-7.1 2.6-9.9 0-.3-.3-.6-.7-.6-1.1 0-6.2 0-12.5 0-18.7 0-.2.1-.3.1-.5z"/><path d="m46.4 48.7v1.7 16.9c0 .9-.2 1.6-1 2-1.2.6-2.4 1.3-3.7 1.5-3 .6-5.1-.9-5.9-3.9-.7-2.6-.5-5.2-.2-7.8.4-3.1 1-6.2 1.4-9.4.1-.8.4-1.2 1.3-1.1 2.7.2 5.3.1 8.1.1z"/><path d="m113.3 48.7h8.5c.3 0 .7.3.8.5.9 5.4 2.2 10.7 1.7 16.2-.2 1.8-1.1 3.2-2.2 4.6-.3.4-.9.7-1.4.7-1.5 0-3.1.1-4.5-.3-2.5-.7-3-1.5-3-4.1 0-5.3 0-10.7 0-16 .1-.4.1-.9.1-1.6z"/></g><path d="m84.2 115.5c-13.3 0-26.5 0-39.9 0 0-11.1 0-22.1 0-33.3h39.9zm-4.4-28.8c-10.4 0-20.7 0-31 0v24.4h31c0-8.2 0-16.3 0-24.4z"/><path d="m79.8 86.7v24.4c-10.3 0-20.6 0-31 0 0-8.1 0-16.2 0-24.4z" fill="#fff"/></svg>