<?xml version="1.0" encoding="utf-8"?>
<!-- Generator: Adobe Illustrator 22.1.0, SVG Export Plug-In . SVG Version: 6.00 Build 0)  -->
<svg version="1.1" id="Layer_1" xmlns="http://www.w3.org/2000/svg" xmlns:xlink="http://www.w3.org/1999/xlink" x="0px" y="0px"
	 viewBox="0 0 1665.6 355.6" style="enable-background:new 0 0 1665.6 355.6;" xml:space="preserve">
<style type="text/css">
	.st0{fill:url(#SVGID_1_);}
	.st1{fill:#7F7F7F;}
	.st2{fill:#564242;}
	.st3{fill:#3F0505;}
	.st4{fill:#FFFFFF;}
</style>
<linearGradient id="SVGID_1_" gradientUnits="userSpaceOnUse" x1="832.8" y1="0.2898" x2="832.8" y2="355.8898" gradientTransform="matrix(1 0 0 -1 0 355.8898)">
	<stop  offset="0" style="stop-color:#FF832A"/>
	<stop  offset="1" style="stop-color:#7FE0FF"/>
</linearGradient>
<rect y="0" class="st0" width="1665.6" height="355.6"/>
<path class="st1" d="M831.5,272.7c0,0.7-24.5,0-24.5,0l-3.1-6.4l-16.9,3.3l-3.8,7.5v10.9h-7.7v-24.9l-5.4-7h-2.5l-4.6,7.3v10.4h-3.3
	v3.3h-5.4v-12.6H751v-17.4h-14.6v17.2h-4.2v15.8h-2.9v-2.4h-5.9v-4.8h-15.3v-5.3l-2.6-2.2h-8.9l-2.7,2.2v6.5h-5.2v-3.6h-8.4v3.5H677
	v1.9h-3.5l-3.5-8.4h-23v7.5h-13.2v13.7H625v-9.2l-4.6-3.3l-3.6-0.5l-1.3,2.1c0,0-3.5,1.2-3.5,1.7c0,0.5,0,3.3,0,3.3h-2.5v-10.4
	l-2.9-2.1H601v4.8h-8.6v5.1h-2.3v-4.8h-5v3.6h-12.7v4h-11.7V273h-12.3v-17.6l-1.9,7.1v12.6h-3.3v-15.4l-3.3-4.1h-3.8l-2.9,4.3v29
	l-8.4-11l-19.6-5.7l-1.2,5.4l-3.3,9.2l-5.8-4.3V267H488v7.3h-7.7v2.9c0,0-18.4-0.9-18.6,14.2h-19.4v-13.8h-7.5V276h-9.6v-6.7h-1.9
	v-11.8l-1.7,11.8h-1.9l-1.9-12.6v23.9h-8.2v-4.8h-3.3v-34.1c0,0-9-4.8-17.3,0v51.7c0,0-9,2.1-9,0s0-30.8,0-30.8l-4.4-5.7l-5.9,6.4
	v13.3l-3.6,0.2v-3.5l-15.5,0.3v10l-3.5,1.4l-8.4-4h-8.2l-6-5.1v5.5h-3.4v-4.3h-8.4v-4.5c0,0-8.1-1.2-9.6,3.3v7.6l-8.8-7.3l-16.3,9.4
	c0,0,1.3-9.4,0-9.4s-10.6,0-10.6,0s0.4-6.7,0-6.7s-26.1,0-26.1,0v6.2h-5.8l-3.5-3h-6.3l-2.8,2.3h-26v3.2H194v-4.3l-4.7-3.9H174v9.6
	l-8.9,7.4v-22.6l-7.3-6.1l-7.4,6.1v15.7h-7.6v-13.3h-2.7v-18.7h-16.9v18.7h-3.1v15.9l-5.6-1.2l-7.2-6H97.1v-7.2H82.2v9.1l-11.5,4.6
	H50.3l-4.5-3.7H32.1l-4.5,3.8v30.1H16.5v-41.6H8v11H0v58h831.5V272.7L831.5,272.7z"/>
<path class="st1" d="M1665.7,258.1c0,0.8-24.7,0-24.7,0l-3.1-7.7l-17,4l-3.9,9.1v13.1h-7.7v-30l-5.4-8.5h-2.5l-4.6,8.8v12.5h-3.3v4
	h-5.4v-15.2h-3.3v-21.1h-14.7v20.8h-4.3v19h-2.9V264h-6v-5.8h-15.4v-6.4l-2.7-2.6h-8.9l-2.7,2.7v8h-5.2v-4.4h-8.5v4.2h-3.3v2.3h-3.5
	l-3.5-10.1H1480v9.1h-13.3v16.5h-8.9v-11.1l-4.6-4l-3.7-0.6l-1.4,2.5c0,0-3.5,1.5-3.5,2.1s0,4,0,4h-2.5v-12.5l-2.9-2.5h-5.6v5.8
	h-8.7v6.1h-2.3v-5.8h-5v4.4h-12.7v4.8h-11.8v-12.3h-12.4v-21.3l-1.9,8.6V261h-3.3v-18.6l-3.3-5h-3.9l-2.9,5.2v35l-8.5-13.3
	l-19.7-6.9l-1.2,6.5l-3.3,11.1l-5.8-5.2v-18.7h-7v8.8h-7.7v3.5c0,0-18.5-1.1-18.7,17.1H1274v-16.7h-7.5V262h-9.7v-8.1h-1.9v-14.2
	l-1.7,14.2h-1.9l-1.9-15.2v28.8h-8.3v-5.8h-3.3v-41.1c0,0-9.1-5.8-17.4,0v62.3c0,0-9.1,2.5-9.1,0s0-37.1,0-37.1l-4.4-6.9l-6,7.7
	v16.1l-3.7,0.2v-4.2l-15.6,0.4v12.1l-3.5,1.7l-8.5-4.8h-8.3l-6.1-6.1v6.6h-3.4v-5.2h-8.5V258c0,0-8.1-1.4-9.7,4v9.2l-8.9-8.8
	l-16.4,11.1c0,0,1.4-11.3,0-11.3s-10.6,0-10.6,0s0.4-8.1,0-8.1s-26.3,0-26.3,0v7.5h-5.8l-3.7-3.6h-6.4l-2.8,2.8h-26.2v3.9h-2.9v-5.2
	l-4.7-4.7h-15.3v11.6l-9,8.9v-27.2l-7.4-7.4l-7.5,7.4v18.7h-7.6v-16.1h-2.7v-22.5h-17v22.5h-3.1v19.2l-5.6-1.5l-7.2-7.2h-10.3v-8.8
	h-15v11l-11.6,5.6H879l-4.5-4.5H861l-4.6,4.6v36.3h-11.1v-50.2h-8.5v13.3h-8.1v70h837L1665.7,258.1L1665.7,258.1z"/>
<g>
	<path class="st2" d="M0,270.3c0,0.8,24.6,0,24.6,0l3.1-7.7l16.9,4l3.8,9.1v13.1h7.7v-30l5.4-8.5H64l4.6,8.8v12.5h3.3v4h5.4v-15.2
		h3.3v-21.1h14.6v20.8h4.2v19h2.9v-2.9h6v-5.8h15.4V264l2.6-2.6h8.9l2.7,2.7v8h5.2v-4.4h8.5v4.2h3.3v2.3h3.5l3.5-10.1h23.3v9.1h13.3
		v16.5h8.8v-11.1l4.6-4l3.7-0.6l1.4,2.5c0,0,3.5,1.5,3.5,2.1s0,4,0,4h2.5v-12.5l2.9-2.5h5.6v5.8h8.7v6.1h2.3v-5.8h5v4.4h12.7v4.8
		h11.7v-12.3H284v-21.3l1.9,8.6v15.2h3.3v-18.6l3.3-5h3.8l2.9,5.2v35l8.5-13.3l19.6-6.9l1.2,6.5l3.3,11.1l5.8-5.2v-18.6h6.9v8.8h7.7
		v3.5c0,0,18.5-1.1,18.7,17.1h19.4V276h7.5v-1.9h9.6V266h1.9v-14.2L411,266h1.9l1.9-15.2v28.8h8.3v-5.8h3.3v-41.1c0,0,9-5.8,17.3,0
		V295c0,0,9,2.5,9,0s0-37.1,0-37.1l4.4-6.9l6,7.7v16.1l3.7,0.2v-4.2l15.6,0.4v12.1l3.5,1.7l8.5-4.8h8.3l6.1-6v6.6h3.4v-5.2h8.5v-5.4
		c0,0,8.1-1.4,9.6,4v9.2l8.8-8.8l16.4,11.1c0,0-1.4-11.3,0-11.3s10.6,0,10.6,0s-0.4-8.1,0-8.1s26.2,0,26.2,0v7.5h5.8l3.7-3.6h6.3
		l2.8,2.8H637v3.9h2.9v-5.2l4.7-4.7h15.3v11.6l8.9,8.9v-27.2l7.4-7.4l7.5,7.5v18.7h7.6V263h2.7v-22.5h16.9V263h3.1v19.2l5.6-1.5
		l7.2-7.2h10.3v-8.8H752v11l11.5,5.6H784l4.5-4.5h13.7l4.6,4.5V318h11.1v-50.2h8.5v13.3h8.1v70H0V270.3z"/>
	<path class="st2" d="M831.5,270.3c0,0.8,24.6,0,24.6,0l3.1-7.7l16.9,4l3.8,9.1v13.1h7.7v-30l5.4-8.5h2.5l4.6,8.8v12.5h3.3v4h5.4
		v-15.2h3.3v-21.1h14.6v20.8h4.2v19h2.9v-2.9h6v-5.8h15.4V264l2.6-2.6h8.9l2.7,2.7v8h5.2v-4.4h8.5v4.2h3.3v2.3h3.5l3.5-10.1h23.3
		v9.1h13.3v16.5h8.8v-11.1l4.6-4l3.7-0.6l1.4,2.5c0,0,3.5,1.5,3.5,2.1s0,4,0,4h2.5v-12.5l2.9-2.5h5.6v5.8h8.7v6.1h2.3v-5.8h5v4.4
		h12.7v4.8h11.7v-12.3h12.3v-21.3l1.9,8.6v15.2h3.3v-18.6l3.3-5h3.8l2.9,5.2v35l8.5-13.3l19.6-6.9l1.2,6.5l3.3,11.1l5.8-5.2v-18.6
		h6.9v8.8h7.7v3.5c0,0,18.5-1.1,18.7,17.1h19.4V276h7.5v-1.9h9.6V266h1.9v-14.2l1.7,14.2h1.9l1.9-15.2v28.8h8.3v-5.8h3.3v-41.1
		c0,0,9-5.8,17.3,0V295c0,0,9,2.5,9,0s0-37.1,0-37.1l4.4-6.9l6,7.7v16.1l3.7,0.2v-4.2l15.6,0.4v12.1l3.5,1.7l8.5-4.8h8.3l6.1-6v6.6
		h3.4v-5.2h8.5v-5.4c0,0,8.1-1.4,9.6,4v9.2l8.8-8.8l16.4,11.1c0,0-1.4-11.3,0-11.3s10.6,0,10.6,0s-0.4-8.1,0-8.1s26.2,0,26.2,0v7.5
		h5.8l3.7-3.6h6.3l2.8,2.8h26.1v3.9h2.9v-5.2l4.7-4.7h15.3v11.6l8.9,8.9v-27.2l7.4-7.4l7.5,7.5v18.7h7.6V263h2.7v-22.5h16.9V263h3.1
		v19.2l5.6-1.5l7.2-7.2h10.3v-8.8h14.9v11l11.5,5.6h20.5l4.5-4.5h13.7l4.6,4.5V318h11.1v-50.2h8.5v13.3h8.1v70H831.5V270.3z"/>
</g>
<g>
	<path class="st3" d="M0,296.8l44-22.4c0,0,0.9-14.7,1.5-14.7s8.8,0,8.8,0l1.8,9.9l25.3-11l50.4,21.2l0.7-1.2l-5.5-3.3l17.2-12.5
		l18.6,12.3L147.5,288l1.1,1l29.4-19.5l30.5,23.8l25.6-24.7l13.7,17.3l0.4-7.7l3.8,0.1l-0.5,10.9l3.7,5l-6.3,5.3l1.4,1.9l25.5-15.5
		c0,0,28,26.5,28.3,26.2s11.8-5,11.8-5v-8l6.3-0.2v3.2l12.1-5.9l17,7.3l27.8-18.2l0.1-12.1l-1-3.5h13.9l-1.1,3v4.8l24.9-16.6
		l13.4,25.2l-1.5,2.3l0.4,1l33-14.2V264l-3-0.4v-3.5h16.4v3.5l-3,0.5l0.1,6.4l28.2-12.3l49,22.3l0.5-0.9l-5.3-4.4l17.1-11.6
		c0,0,18.6,12.6,17.9,12.3s-15.5,12.3-15.5,12.3l0.8,1l30.5-19.2l29.5,23.2l26.4-25.9l13.5,18.4V277h4.3v12.2l3.6,4.4l-5.3,4.8
		l0.6,1.1l24.9-14.8l27.9,27.1l19.6-22.9l26.8,14.7l29.8-18.8v-11.2l-1.5-3.5h13.5l-1.1,3.2l-0.4,5.5l26-18.4l2.2,94.9H0V296.8z"/>
	<rect x="26.8" y="324.2" class="st4" width="7.2" height="7.2"/>
	<rect x="36.7" y="324.2" class="st4" width="7.2" height="7.2"/>
	<rect x="26.8" y="334.1" class="st4" width="7.2" height="7.2"/>
	<rect x="36.7" y="334.1" class="st4" width="7.2" height="7.2"/>
	<g>
		<rect x="65.4" y="292.7" class="st4" width="6" height="6.6"/>
		<rect x="73.6" y="292.7" class="st4" width="6" height="6.6"/>
		<rect x="65.4" y="301.8" class="st4" width="6" height="6.6"/>
		<rect x="73.6" y="301.8" class="st4" width="6" height="6.6"/>
	</g>
	<g>
		<rect x="83.2" y="292.7" class="st4" width="6" height="6.6"/>
		<rect x="91.4" y="292.7" class="st4" width="6" height="6.6"/>
		<rect x="83.2" y="301.8" class="st4" width="6" height="6.6"/>
		<rect x="91.4" y="301.8" class="st4" width="6" height="6.6"/>
	</g>
	<rect x="161.1" y="306.9" class="st4" width="4.7" height="5.2"/>
	<rect x="167.6" y="306.9" class="st4" width="4.7" height="5.2"/>
	<rect x="161.1" y="314.1" class="st4" width="4.7" height="5.2"/>
	<rect x="167.6" y="314.1" class="st4" width="4.7" height="5.2"/>
	<g>
		<rect x="183.5" y="306.9" class="st4" width="4.7" height="5.2"/>
		<rect x="190" y="306.9" class="st4" width="4.7" height="5.2"/>
		<rect x="183.5" y="314.1" class="st4" width="4.7" height="5.2"/>
		<rect x="190" y="314.1" class="st4" width="4.7" height="5.2"/>
	</g>
	<rect x="161.1" y="327.6" class="st4" width="4.7" height="5.2"/>
	<rect x="167.6" y="327.6" class="st4" width="4.7" height="5.2"/>
	<rect x="161.1" y="334.8" class="st4" width="4.7" height="5.2"/>
	<rect x="167.6" y="334.8" class="st4" width="4.7" height="5.2"/>
	<rect x="183.5" y="327.6" class="st4" width="4.7" height="5.2"/>
	<rect x="190" y="327.6" class="st4" width="4.7" height="5.2"/>
	<rect x="183.5" y="334.8" class="st4" width="4.7" height="5.2"/>
	<rect x="190" y="334.8" class="st4" width="4.7" height="5.2"/>
	<g>
		<rect x="225.1" y="307.8" class="st4" width="6" height="6.6"/>
		<rect x="233.4" y="307.8" class="st4" width="6" height="6.6"/>
		<rect x="225.1" y="316.9" class="st4" width="6" height="6.6"/>
		<rect x="233.4" y="316.9" class="st4" width="6" height="6.6"/>
	</g>
	<g>
		<rect x="267.2" y="317.2" class="st4" width="4.7" height="5.2"/>
		<rect x="273.7" y="317.2" class="st4" width="4.7" height="5.2"/>
		<rect x="267.2" y="324.4" class="st4" width="4.7" height="5.2"/>
		<rect x="273.7" y="324.4" class="st4" width="4.7" height="5.2"/>
	</g>
	<g>
		<rect x="296.5" y="340.3" class="st4" width="4.7" height="5.2"/>
		<rect x="303" y="340.3" class="st4" width="4.7" height="5.2"/>
		<rect x="296.5" y="347.5" class="st4" width="4.7" height="5.2"/>
		<rect x="303" y="347.5" class="st4" width="4.7" height="5.2"/>
	</g>
	<g>
		<rect x="328.9" y="307.7" class="st4" width="4.7" height="5.2"/>
		<rect x="335.4" y="307.7" class="st4" width="4.7" height="5.2"/>
		<rect x="328.9" y="314.8" class="st4" width="4.7" height="5.2"/>
		<rect x="335.4" y="314.8" class="st4" width="4.7" height="5.2"/>
	</g>
	<g>
		<rect x="349.2" y="332.9" class="st4" width="4.7" height="5.2"/>
		<rect x="355.7" y="332.9" class="st4" width="4.7" height="5.2"/>
		<rect x="349.2" y="340.1" class="st4" width="4.7" height="5.2"/>
		<rect x="355.7" y="340.1" class="st4" width="4.7" height="5.2"/>
	</g>
	<g>
		<rect x="384.9" y="307.7" class="st4" width="6.5" height="7.2"/>
		<rect x="393.8" y="307.7" class="st4" width="6.5" height="7.2"/>
		<rect x="384.9" y="317.5" class="st4" width="6.5" height="7.2"/>
		<rect x="393.8" y="317.5" class="st4" width="6.5" height="7.2"/>
	</g>
	<g>
		<rect x="443.2" y="324.1" class="st4" width="6.9" height="7.6"/>
		<rect x="452.6" y="324.1" class="st4" width="6.9" height="7.6"/>
		<rect x="443.2" y="334.6" class="st4" width="6.9" height="7.6"/>
		<rect x="452.6" y="334.6" class="st4" width="6.9" height="7.6"/>
	</g>
	<g>
		<rect x="482.2" y="293.2" class="st4" width="5.9" height="6.5"/>
		<rect x="490.4" y="293.2" class="st4" width="5.9" height="6.5"/>
		<rect x="482.2" y="302.2" class="st4" width="5.9" height="6.5"/>
		<rect x="490.4" y="302.2" class="st4" width="5.9" height="6.5"/>
	</g>
	<g>
		<rect x="499.8" y="293.2" class="st4" width="5.9" height="6.5"/>
		<rect x="508" y="293.2" class="st4" width="5.9" height="6.5"/>
		<rect x="499.8" y="302.2" class="st4" width="5.9" height="6.5"/>
		<rect x="508" y="302.2" class="st4" width="5.9" height="6.5"/>
	</g>
	<g>
		<rect x="538.7" y="324.9" class="st4" width="6" height="6.6"/>
		<rect x="546.9" y="324.9" class="st4" width="6" height="6.6"/>
		<rect x="538.7" y="334" class="st4" width="6" height="6.6"/>
		<rect x="546.9" y="334" class="st4" width="6" height="6.6"/>
	</g>
	<g>
		<rect x="564.6" y="324.9" class="st4" width="6" height="6.6"/>
		<rect x="572.8" y="324.9" class="st4" width="6" height="6.6"/>
		<rect x="564.6" y="334" class="st4" width="6" height="6.6"/>
		<rect x="572.8" y="334" class="st4" width="6" height="6.6"/>
	</g>
	<g>
		<rect x="641.8" y="307.9" class="st4" width="6" height="6.6"/>
		<rect x="650.1" y="307.9" class="st4" width="6" height="6.6"/>
		<rect x="641.8" y="316.9" class="st4" width="6" height="6.6"/>
		<rect x="650.1" y="316.9" class="st4" width="6" height="6.6"/>
	</g>
	<g>
		<rect x="611.2" y="340.6" class="st4" width="6" height="6.6"/>
		<rect x="619.5" y="340.6" class="st4" width="6" height="6.6"/>
	</g>
	<g>
		<rect x="683.2" y="316.9" class="st4" width="4.7" height="5.2"/>
		<rect x="689.7" y="316.9" class="st4" width="4.7" height="5.2"/>
		<rect x="683.2" y="324.1" class="st4" width="4.7" height="5.2"/>
		<rect x="689.7" y="324.1" class="st4" width="4.7" height="5.2"/>
	</g>
	<g>
		<rect x="713.2" y="340.2" class="st4" width="4.7" height="5.2"/>
		<rect x="719.7" y="340.2" class="st4" width="4.7" height="5.2"/>
		<rect x="713.2" y="347.4" class="st4" width="4.7" height="5.2"/>
		<rect x="719.7" y="347.4" class="st4" width="4.7" height="5.2"/>
	</g>
	<g>
		<rect x="744.7" y="307.6" class="st4" width="4.7" height="5.2"/>
		<rect x="751.1" y="307.6" class="st4" width="4.7" height="5.2"/>
		<rect x="744.7" y="314.8" class="st4" width="4.7" height="5.2"/>
		<rect x="751.1" y="314.8" class="st4" width="4.7" height="5.2"/>
	</g>
	<g>
		<rect x="801.3" y="308" class="st4" width="6.3" height="7"/>
		<rect x="810" y="308" class="st4" width="6.3" height="7"/>
		<rect x="801.3" y="317.6" class="st4" width="6.3" height="7"/>
		<rect x="810" y="317.6" class="st4" width="6.3" height="7"/>
	</g>
	<g>
		<rect x="760" y="334" class="st4" width="4.7" height="5.2"/>
		<rect x="766.5" y="334" class="st4" width="4.7" height="5.2"/>
	</g>
	<polygon class="st4" points="749.5,334 766,324.6 789.6,334.7 765.7,328.3 	"/>
	<polygon class="st4" points="338,333.4 354.5,324 378.1,334.1 354.3,327.7 	"/>
	<path class="st4" d="M104.3,340.5c0,0-6.1-0.9-6.1,6.1v9h6.1h6.1v-9C110.5,339.6,104.3,340.5,104.3,340.5z"/>
	<path class="st4" d="M231.4,340.5c0,0-6.1-0.9-6.1,6.1v9h6.1h6.1v-9C237.6,339.6,231.4,340.5,231.4,340.5z"/>
	<path class="st4" d="M413.3,340.5c0,0-6.1-0.9-6.1,6.1v9h6.1h6.1v-9C419.4,339.6,413.3,340.5,413.3,340.5z"/>
	<path class="st4" d="M515.3,340.5c0,0-6.1-0.9-6.1,6.1v9h6.1h6.1v-9C521.4,339.6,515.3,340.5,515.3,340.5z"/>
	<path class="st4" d="M649.7,340.5c0,0-6.1-0.9-6.1,6.1v9h6.1h6.1v-9C655.8,339.6,649.7,340.5,649.7,340.5z"/>
	<path class="st4" d="M777.8,340.5c0,0-6.1-0.9-6.1,6.1v9h6.1h6.1v-9C784,339.6,777.8,340.5,777.8,340.5z"/>
</g>
<g>
	<path class="st3" d="M1665.6,296.8l-44.1-22.4c0,0-0.9-14.7-1.5-14.7s-8.8,0-8.8,0l-1.8,9.9l-25.4-11l-50.4,21.2l-0.7-1.2l5.5-3.3
		l-17.2-12.5l-18.6,12.3l15.3,12.9l-1.1,1l-29.4-19.5l-30.5,23.8l-25.6-24.7l-13.7,17.3l-0.4-7.7l-3.8,0.1l0.5,10.9l-3.7,5l6.3,5.3
		l-1.4,1.9l-25.5-15.5c0,0-28,26.5-28.3,26.2s-11.8-5-11.8-5v-8l-6.3-0.2v3.2l-12.1-5.9l-17,7.3l-27.8-18.2l-0.1-12.1l1-3.5h-13.9
		l1.1,3v4.8l-24.9-16.6l-13.4,25.2l1.6,2.3l-0.4,1l-33-14.2V264l3-0.4v-3.5h-16.4v3.5l3,0.5l-0.1,6.4l-28.2-12.3l-49,22.3l-0.5-0.9
		l5.3-4.4l-17.1-11.6c0,0-18.6,12.6-17.9,12.3s15.5,12.3,15.5,12.3l-0.8,1l-30.5-19.2l-29.5,23.2l-26.4-25.9l-13.5,18.4V277H997
		v12.2l-3.6,4.4l5.3,4.8l-0.6,1.1l-24.9-14.8l-28,27.3l-19.6-22.9l-26.8,14.7L869,285.1v-11.2l1.5-3.5H857l1.1,3.2l0.4,5.5l-26-18.4
		l0.4,94.9h832.7L1665.6,296.8L1665.6,296.8z"/>
	<rect x="1631.7" y="324.2" class="st4" width="7.2" height="7.2"/>
	<rect x="1621.8" y="324.2" class="st4" width="7.2" height="7.2"/>
	<rect x="1631.7" y="334.1" class="st4" width="7.2" height="7.2"/>
	<rect x="1621.8" y="334.1" class="st4" width="7.2" height="7.2"/>
	<g>
		<rect x="1594.2" y="292.7" class="st4" width="6" height="6.6"/>
		<rect x="1586" y="292.7" class="st4" width="6" height="6.6"/>
		<rect x="1594.2" y="301.7" class="st4" width="6" height="6.6"/>
		<rect x="1586" y="301.7" class="st4" width="6" height="6.6"/>
	</g>
	<g>
		<rect x="1576.4" y="292.7" class="st4" width="6" height="6.6"/>
		<rect x="1568.2" y="292.7" class="st4" width="6" height="6.6"/>
		<rect x="1576.4" y="301.7" class="st4" width="6" height="6.6"/>
		<rect x="1568.2" y="301.7" class="st4" width="6" height="6.6"/>
	</g>
	<rect x="1499.8" y="306.9" class="st4" width="4.7" height="5.2"/>
	<rect x="1493.3" y="306.9" class="st4" width="4.7" height="5.2"/>
	<rect x="1499.8" y="314.1" class="st4" width="4.7" height="5.2"/>
	<rect x="1493.3" y="314.1" class="st4" width="4.7" height="5.2"/>
	<g>
		<rect x="1477.4" y="306.9" class="st4" width="4.7" height="5.2"/>
		<rect x="1470.9" y="306.9" class="st4" width="4.7" height="5.2"/>
		<rect x="1477.4" y="314.1" class="st4" width="4.7" height="5.2"/>
		<rect x="1470.9" y="314.1" class="st4" width="4.7" height="5.2"/>
	</g>
	<rect x="1499.8" y="327.6" class="st4" width="4.7" height="5.2"/>
	<rect x="1493.3" y="327.6" class="st4" width="4.7" height="5.2"/>
	<rect x="1499.8" y="334.8" class="st4" width="4.7" height="5.2"/>
	<rect x="1493.3" y="334.8" class="st4" width="4.7" height="5.2"/>
	<rect x="1477.4" y="327.6" class="st4" width="4.7" height="5.2"/>
	<rect x="1470.9" y="327.6" class="st4" width="4.7" height="5.2"/>
	<rect x="1477.4" y="334.8" class="st4" width="4.7" height="5.2"/>
	<rect x="1470.9" y="334.8" class="st4" width="4.7" height="5.2"/>
	<g>
		<rect x="1434.4" y="307.8" class="st4" width="6" height="6.6"/>
		<rect x="1426.2" y="307.8" class="st4" width="6" height="6.6"/>
		<rect x="1434.4" y="316.9" class="st4" width="6" height="6.6"/>
		<rect x="1426.2" y="316.9" class="st4" width="6" height="6.6"/>
	</g>
	<g>
		<rect x="1393.6" y="317.3" class="st4" width="4.7" height="5.2"/>
		<rect x="1387.1" y="317.3" class="st4" width="4.7" height="5.2"/>
		<rect x="1393.6" y="324.4" class="st4" width="4.7" height="5.2"/>
		<rect x="1387.1" y="324.4" class="st4" width="4.7" height="5.2"/>
	</g>
	<g>
		<rect x="1364.3" y="340.3" class="st4" width="4.7" height="5.2"/>
		<rect x="1357.8" y="340.3" class="st4" width="4.7" height="5.2"/>
		<rect x="1364.3" y="347.5" class="st4" width="4.7" height="5.2"/>
		<rect x="1357.8" y="347.5" class="st4" width="4.7" height="5.2"/>
	</g>
	<g>
		<rect x="1331.9" y="307.7" class="st4" width="4.7" height="5.2"/>
		<rect x="1325.4" y="307.7" class="st4" width="4.7" height="5.2"/>
		<rect x="1331.9" y="314.8" class="st4" width="4.7" height="5.2"/>
		<rect x="1325.4" y="314.8" class="st4" width="4.7" height="5.2"/>
	</g>
	<g>
		<rect x="1311.5" y="332.9" class="st4" width="4.7" height="5.2"/>
		<rect x="1305" y="332.9" class="st4" width="4.7" height="5.2"/>
		<rect x="1311.5" y="340.1" class="st4" width="4.7" height="5.2"/>
		<rect x="1305" y="340.1" class="st4" width="4.7" height="5.2"/>
	</g>
	<g>
		<rect x="1274.1" y="307.7" class="st4" width="6.5" height="7.2"/>
		<rect x="1265.2" y="307.7" class="st4" width="6.5" height="7.2"/>
		<rect x="1274.1" y="317.5" class="st4" width="6.5" height="7.2"/>
		<rect x="1265.2" y="317.5" class="st4" width="6.5" height="7.2"/>
	</g>
	<g>
		<rect x="1215.4" y="324.1" class="st4" width="6.9" height="7.6"/>
		<rect x="1205.9" y="324.1" class="st4" width="6.9" height="7.6"/>
		<rect x="1215.4" y="334.6" class="st4" width="6.9" height="7.6"/>
		<rect x="1205.9" y="334.6" class="st4" width="6.9" height="7.6"/>
	</g>
	<g>
		<rect x="1177.3" y="293.2" class="st4" width="5.9" height="6.5"/>
		<rect x="1169.2" y="293.2" class="st4" width="5.9" height="6.5"/>
		<rect x="1177.3" y="302.2" class="st4" width="5.9" height="6.5"/>
		<rect x="1169.2" y="302.2" class="st4" width="5.9" height="6.5"/>
	</g>
	<g>
		<rect x="1159.7" y="293.2" class="st4" width="5.9" height="6.5"/>
		<rect x="1151.5" y="293.2" class="st4" width="5.9" height="6.5"/>
		<rect x="1159.7" y="302.2" class="st4" width="5.9" height="6.5"/>
		<rect x="1151.5" y="302.2" class="st4" width="5.9" height="6.5"/>
	</g>
	<g>
		<rect x="1120.8" y="324.9" class="st4" width="6" height="6.6"/>
		<rect x="1112.5" y="324.9" class="st4" width="6" height="6.6"/>
		<rect x="1120.8" y="334" class="st4" width="6" height="6.6"/>
		<rect x="1112.5" y="334" class="st4" width="6" height="6.6"/>
	</g>
	<g>
		<rect x="1094.8" y="324.9" class="st4" width="6" height="6.6"/>
		<rect x="1086.6" y="324.9" class="st4" width="6" height="6.6"/>
		<rect x="1094.8" y="334" class="st4" width="6" height="6.6"/>
		<rect x="1086.6" y="334" class="st4" width="6" height="6.6"/>
	</g>
	<g>
		<rect x="1017.6" y="307.9" class="st4" width="6" height="6.6"/>
		<rect x="1009.3" y="307.9" class="st4" width="6" height="6.6"/>
		<rect x="1017.6" y="316.9" class="st4" width="6" height="6.6"/>
		<rect x="1009.3" y="316.9" class="st4" width="6" height="6.6"/>
	</g>
	<g>
		<rect x="1048.2" y="340.6" class="st4" width="6" height="6.6"/>
		<rect x="1040" y="340.6" class="st4" width="6" height="6.6"/>
	</g>
	<g>
		<rect x="977.5" y="316.9" class="st4" width="4.7" height="5.2"/>
		<rect x="971" y="316.9" class="st4" width="4.7" height="5.2"/>
		<rect x="977.5" y="324.1" class="st4" width="4.7" height="5.2"/>
		<rect x="971" y="324.1" class="st4" width="4.7" height="5.2"/>
	</g>
	<g>
		<rect x="947.4" y="340.2" class="st4" width="4.7" height="5.2"/>
		<rect x="940.9" y="340.2" class="st4" width="4.7" height="5.2"/>
		<rect x="947.4" y="347.4" class="st4" width="4.7" height="5.2"/>
		<rect x="940.9" y="347.4" class="st4" width="4.7" height="5.2"/>
	</g>
	<g>
		<rect x="916" y="307.6" class="st4" width="4.7" height="5.2"/>
		<rect x="909.5" y="307.6" class="st4" width="4.7" height="5.2"/>
		<rect x="916" y="314.8" class="st4" width="4.7" height="5.2"/>
		<rect x="909.5" y="314.8" class="st4" width="4.7" height="5.2"/>
	</g>
	<g>
		<rect x="857.7" y="308" class="st4" width="6.4" height="7"/>
		<rect x="849" y="308" class="st4" width="6.4" height="7"/>
		<rect x="857.7" y="317.6" class="st4" width="6.4" height="7"/>
		<rect x="849" y="317.6" class="st4" width="6.4" height="7"/>
	</g>
	<g>
		<rect x="900.6" y="334" class="st4" width="4.7" height="5.2"/>
		<rect x="894.1" y="334" class="st4" width="4.7" height="5.2"/>
	</g>
	<polygon class="st4" points="915.9,334 899.4,324.6 875.8,334.7 899.6,328.3 	"/>
	<polygon class="st4" points="1327.5,333.4 1311,324 1287.3,334.1 1311.2,327.7 	"/>
	<path class="st4" d="M1561.3,340.5c0,0,6.1-0.9,6.1,6.1v9h-6.1h-6.1v-9C1555.1,339.6,1561.3,340.5,1561.3,340.5z"/>
	<path class="st4" d="M1434.1,340.5c0,0,6.1-0.9,6.1,6.1v9h-6.1h-6.1v-9C1428,339.6,1434.1,340.5,1434.1,340.5z"/>
	<path class="st4" d="M1252.2,340.5c0,0,6.1-0.9,6.1,6.1v9h-6.1h-6.1v-9C1246.1,339.6,1252.2,340.5,1252.2,340.5z"/>
	<path class="st4" d="M1150.1,340.5c0,0,6.1-0.9,6.1,6.1v9h-6.1h-6.1v-9C1144,339.6,1150.1,340.5,1150.1,340.5z"/>
	<path class="st4" d="M1015.7,340.5c0,0,6.1-0.9,6.1,6.1v9h-6.1h-6.1v-9C1009.6,339.6,1015.7,340.5,1015.7,340.5z"/>
	<path class="st4" d="M887.5,340.5c0,0,6.1-0.9,6.1,6.1v9h-6.1h-6.1v-9C881.4,339.6,887.5,340.5,887.5,340.5z"/>
</g>
</svg>
