<?xml version="1.0" encoding="utf-8"?>
<!-- Generator: Adobe Illustrator 25.0.1, SVG Export Plug-In . SVG Version: 6.00 Build 0)  -->
<svg version="1.1" id="Layer_1" xmlns="http://www.w3.org/2000/svg" xmlns:xlink="http://www.w3.org/1999/xlink" x="0px" y="0px"
	 viewBox="0 0 100 100" style="enable-background:new 0 0 100 100;" xml:space="preserve">
<path d="M89.5,43.9c-2.8-3.3-5.4-6.1-7.6-9.2c-0.7-1-0.5-2.8-0.7-4.2c1.3,0.3,3.2,0.1,3.8,0.9c4.7,6,9.3,12.1,13.6,18.4
	c1.8,2.6,0.2,4.7-2.8,4.6c-6-0.1-12-0.4-18-0.9c-1-0.1-2-1.6-3-2.5c1.1-0.7,2.1-1.9,3.2-2.1c1.7-0.3,3.6,0,5.8-0.8
	c-1.5-0.6-2.9-1.4-4.5-1.9C54.8,38,30.9,39.6,7.7,51.3c-0.9,0.4-1.7,1.2-2.7,1.3c-1.4,0.2-2.9-0.2-4.4-0.3c0.7-1.3,1-3.3,2-3.8
	c6.6-3.1,13.2-6.4,20.2-8.5C44,33.8,65,35.1,85.5,43.2c0.8,0.3,1.5,0.6,2.3,0.9C88,44.1,88.2,44,89.5,43.9z"/>
</svg>
