<svg enable-background="new 0 0 100 100" viewBox="0 0 100 100" xmlns="http://www.w3.org/2000/svg"><path d="m11.4 40.8c3.1-3.1 5.9-5.6 8.3-8.5.8-1 .7-2.8 1-4.2-1.3.2-3.2-.2-3.9.6-5.2 5.6-10.3 11.3-15 17.2-2 2.5-.6 4.6 2.4 4.9 6 .4 12 .6 18 .6 1.1 0 2.1-1.5 3.2-2.3-1-.8-1.9-2.1-3-2.4-1.7-.5-3.6-.3-5.7-1.3 1.5-.5 3-1.1 4.6-1.5 25.2-6.1 48.9-2.5 71.1 11 .9.5 1.6 1.4 2.5 1.5 1.4.3 2.9.1 4.4.1-.5-1.4-.7-3.4-1.7-4-6.5-3.5-12.8-7.4-19.6-10-20.6-8-41.6-8.4-62.7-2.1-.8.2-1.6.5-2.4.7-.1 0-.3-.1-1.5-.3z"/></svg>