<svg enable-background="new 0 0 100 100" viewBox="0 0 100 100" xmlns="http://www.w3.org/2000/svg"><path d="m90.8 45.4c-2.8 3.3-5.4 6.1-7.6 9.2-.7 1-.5 2.8-.7 4.2 1.3-.3 3.2-.1 3.8-.9 4.7-6 9.3-12.1 13.6-18.4 1.8-2.6.2-4.7-2.8-4.6-6 .1-12 .4-18 .9-1 .1-2 1.6-3 2.5 1.1.7 2.1 1.9 3.2 2.1 1.7.3 3.6 0 5.8.8-1.5.6-2.9 1.4-4.5 1.9-24.5 8.2-48.4 6.6-71.6-5.1-.9-.4-1.7-1.2-2.7-1.3-1.4-.2-2.9.2-4.4.3.7 1.3 1 3.3 2 3.8 6.6 3.1 13.2 6.4 20.2 8.5 21.2 6.2 42.2 4.9 62.7-3.2.8-.3 1.5-.6 2.3-.9.2 0 .4.1 1.7.2z"/></svg>